<svg version="1.1" id="Layer_1" xmlns="http://www.w3.org/2000/svg" xmlns:xlink="http://www.w3.org/1999/xlink" x="0px" y="0px"
	 width="100%" viewBox="0 0 600 600" enable-background="new 0 0 600 600" xml:space="preserve">
<path fill="#000000" opacity="1.000000" stroke="none" 
	d="
M601.000000,389.000000 
	C601.000000,459.634369 601.000000,530.268738 601.000000,600.951538 
	C401.123749,600.951538 201.247482,600.951538 1.000000,600.951538 
	C1.000000,555.312012 1.000000,509.622986 1.468657,463.466614 
	C61.185314,462.999237 120.433319,462.999237 179.652008,462.999237 
	C179.652008,441.002899 179.652008,419.616882 179.652008,397.733398 
	C141.588516,397.733398 103.870232,397.733398 66.249054,397.733398 
	C66.249054,377.295654 66.249054,357.360260 66.249054,336.925232 
	C99.880836,336.925232 133.267151,336.925232 166.668549,336.925232 
	C166.668549,315.035461 166.668549,293.649719 166.668549,271.764282 
	C132.954025,271.764282 99.567719,271.764282 66.233894,271.764282 
	C66.233894,249.992844 66.233894,228.724625 66.233894,206.957367 
	C104.182755,206.957367 141.901047,206.957367 179.684509,206.957367 
	C179.684509,185.069138 179.684509,163.683487 179.684509,142.000000 
	C119.913475,142.000000 60.456738,142.000000 1.000000,142.000000 
	C1.000000,95.018715 1.000000,48.037434 1.000000,1.028075 
	C200.901627,1.028075 400.803253,1.028075 601.000000,1.028075 
	C601.000000,117.021843 601.000000,233.043945 600.656372,349.859680 
	C599.545410,347.552948 598.552551,344.488922 598.046143,341.346527 
	C593.611877,313.831421 577.801392,294.278656 553.621643,282.257385 
	C535.838196,273.416107 516.651794,267.418457 498.177887,259.937897 
	C480.807465,252.904160 468.377716,241.973221 473.049835,220.956055 
	C475.913849,208.072800 484.333069,200.382782 496.903351,199.120010 
	C514.515625,197.350754 530.441650,203.034897 544.944336,212.573029 
	C552.872925,217.787567 560.186401,223.937408 568.021973,229.850067 
	C568.511902,229.210526 569.003418,228.723267 569.314758,228.139816 
	C577.655396,212.509460 586.004272,196.883392 594.278992,181.218124 
	C595.827637,178.286377 595.341675,175.671478 592.802124,173.230942 
	C580.212341,161.132187 566.414917,150.658417 549.939148,144.657364 
	C538.877808,140.628433 527.415039,136.795120 515.824890,135.369019 
	C503.184570,133.813675 490.182861,134.340256 477.551086,137.945282 
	C461.362854,142.565277 446.621338,149.811539 435.842804,162.885849 
	C420.859406,181.060608 414.947205,202.807846 414.093811,225.993820 
	C413.827362,233.233673 413.875305,240.660095 415.180450,247.742935 
	C417.290985,259.196320 419.263519,270.965576 423.623901,281.650787 
	C431.565033,301.110779 448.591553,312.046661 466.648956,320.544464 
	C481.866028,327.705658 498.012695,332.883545 513.711975,339.031006 
	C523.175598,342.736725 532.660950,346.486237 538.304626,355.820160 
	C547.669922,371.309052 542.830017,391.504883 527.235474,399.359375 
	C516.540100,404.746246 505.710632,403.619446 494.806610,400.369110 
	C477.375946,395.173248 463.974152,383.826843 451.122131,371.642120 
	C447.047333,367.778900 442.861389,364.032990 438.731812,360.227417 
	C437.160858,358.779663 436.144073,358.185089 434.599060,360.706055 
	C425.195953,376.049255 415.471863,391.196320 406.142639,406.583282 
	C405.120483,408.269135 404.926697,412.081604 406.047272,413.189056 
	C416.394257,423.415314 426.571838,433.934631 437.854340,443.064148 
	C454.891479,456.850159 474.990021,464.655182 496.690155,466.730530 
	C513.549316,468.342926 530.626343,467.657074 546.631653,460.689484 
	C563.073303,453.532013 576.572510,442.833038 585.973877,427.287811 
	C592.878235,415.871338 597.256470,403.610077 599.109192,390.407227 
	C599.185852,389.860474 600.345093,389.465607 601.000000,389.000000 
M241.999985,148.595642 
	C241.999985,167.670380 241.999985,186.745102 241.999985,206.136383 
	C264.005157,206.136383 285.272278,206.136383 306.999481,206.136383 
	C306.999481,208.241623 306.999481,210.028366 306.999481,211.815109 
	C306.999756,265.956116 307.016663,320.097137 306.956787,374.238068 
	C306.953369,377.318878 306.801086,380.548981 305.893707,383.451935 
	C302.869659,393.126862 296.811035,401.729553 283.837433,401.074982 
	C275.832764,400.671051 268.788452,397.694305 262.773590,393.023621 
	C254.366241,386.494965 246.681808,379.035400 238.904465,372.165314 
	C230.388870,387.131409 220.643936,404.190826 211.041840,421.330261 
	C210.556320,422.196869 210.849060,424.175323 211.545181,424.926697 
	C221.980667,436.190826 233.585464,445.969055 247.328445,453.088196 
	C268.576508,464.095276 290.902618,468.131531 314.573914,463.993378 
	C327.836517,461.674835 339.031372,455.309296 347.362213,444.945557 
	C363.165985,425.285278 369.895874,401.737122 370.678680,377.270203 
	C372.130402,331.895996 371.746155,286.460785 371.965668,241.050232 
	C372.117035,209.733261 372.001160,178.415009 371.990112,147.097321 
	C371.989563,145.493256 371.851349,143.889206 371.779877,142.341751 
	C328.335419,142.341751 285.293854,142.341751 241.999985,142.341751 
	C241.999985,144.329300 241.999985,145.976685 241.999985,148.595642 
z"/>
<path fill="#C0CA33" opacity="1.000000" stroke="none" 
	d="
M1.000000,142.468658 
	C60.456738,142.000000 119.913475,142.000000 179.684509,142.000000 
	C179.684509,163.683487 179.684509,185.069138 179.684509,206.957367 
	C141.901047,206.957367 104.182755,206.957367 66.233894,206.957367 
	C66.233894,228.724625 66.233894,249.992844 66.233894,271.764282 
	C99.567719,271.764282 132.954025,271.764282 166.668549,271.764282 
	C166.668549,293.649719 166.668549,315.035461 166.668549,336.925232 
	C133.267151,336.925232 99.880836,336.925232 66.249054,336.925232 
	C66.249054,357.360260 66.249054,377.295654 66.249054,397.733398 
	C103.870232,397.733398 141.588516,397.733398 179.652008,397.733398 
	C179.652008,419.616882 179.652008,441.002899 179.652008,462.999237 
	C120.433319,462.999237 61.185314,462.999237 1.468657,462.999634 
	C1.000000,356.312439 1.000000,249.624878 1.000000,142.468658 
z"/>
<path fill="#C0CA33" opacity="1.000000" stroke="none" 
	d="
M601.000000,388.531311 
	C600.345093,389.465607 599.185852,389.860474 599.109192,390.407227 
	C597.256470,403.610077 592.878235,415.871338 585.973877,427.287811 
	C576.572510,442.833038 563.073303,453.532013 546.631653,460.689484 
	C530.626343,467.657074 513.549316,468.342926 496.690155,466.730530 
	C474.990021,464.655182 454.891479,456.850159 437.854340,443.064148 
	C426.571838,433.934631 416.394257,423.415314 406.047272,413.189056 
	C404.926697,412.081604 405.120483,408.269135 406.142639,406.583282 
	C415.471863,391.196320 425.195953,376.049255 434.599060,360.706055 
	C436.144073,358.185089 437.160858,358.779663 438.731812,360.227417 
	C442.861389,364.032990 447.047333,367.778900 451.122131,371.642120 
	C463.974152,383.826843 477.375946,395.173248 494.806610,400.369110 
	C505.710632,403.619446 516.540100,404.746246 527.235474,399.359375 
	C542.830017,391.504883 547.669922,371.309052 538.304626,355.820160 
	C532.660950,346.486237 523.175598,342.736725 513.711975,339.031006 
	C498.012695,332.883545 481.866028,327.705658 466.648956,320.544464 
	C448.591553,312.046661 431.565033,301.110779 423.623901,281.650787 
	C419.263519,270.965576 417.290985,259.196320 415.180450,247.742935 
	C413.875305,240.660095 413.827362,233.233673 414.093811,225.993820 
	C414.947205,202.807846 420.859406,181.060608 435.842804,162.885849 
	C446.621338,149.811539 461.362854,142.565277 477.551086,137.945282 
	C490.182861,134.340256 503.184570,133.813675 515.824890,135.369019 
	C527.415039,136.795120 538.877808,140.628433 549.939148,144.657364 
	C566.414917,150.658417 580.212341,161.132187 592.802124,173.230942 
	C595.341675,175.671478 595.827637,178.286377 594.278992,181.218124 
	C586.004272,196.883392 577.655396,212.509460 569.314758,228.139816 
	C569.003418,228.723267 568.511902,229.210526 568.021973,229.850067 
	C560.186401,223.937408 552.872925,217.787567 544.944336,212.573029 
	C530.441650,203.034897 514.515625,197.350754 496.903351,199.120010 
	C484.333069,200.382782 475.913849,208.072800 473.049835,220.956055 
	C468.377716,241.973221 480.807465,252.904160 498.177887,259.937897 
	C516.651794,267.418457 535.838196,273.416107 553.621643,282.257385 
	C577.801392,294.278656 593.611877,313.831421 598.046143,341.346527 
	C598.552551,344.488922 599.545410,347.552948 600.656372,350.326660 
	C601.000000,362.687561 601.000000,375.375122 601.000000,388.531311 
z"/>
<path fill="#C0CA33" opacity="1.000000" stroke="none" 
	d="
M241.999985,148.109863 
	C241.999985,145.976685 241.999985,144.329300 241.999985,142.341751 
	C285.293854,142.341751 328.335419,142.341751 371.779877,142.341751 
	C371.851349,143.889206 371.989563,145.493256 371.990112,147.097321 
	C372.001160,178.415009 372.117035,209.733261 371.965668,241.050232 
	C371.746155,286.460785 372.130402,331.895996 370.678680,377.270203 
	C369.895874,401.737122 363.165985,425.285278 347.362213,444.945557 
	C339.031372,455.309296 327.836517,461.674835 314.573914,463.993378 
	C290.902618,468.131531 268.576508,464.095276 247.328445,453.088196 
	C233.585464,445.969055 221.980667,436.190826 211.545181,424.926697 
	C210.849060,424.175323 210.556320,422.196869 211.041840,421.330261 
	C220.643936,404.190826 230.388870,387.131409 238.904465,372.165314 
	C246.681808,379.035400 254.366241,386.494965 262.773590,393.023621 
	C268.788452,397.694305 275.832764,400.671051 283.837433,401.074982 
	C296.811035,401.729553 302.869659,393.126862 305.893707,383.451935 
	C306.801086,380.548981 306.953369,377.318878 306.956787,374.238068 
	C307.016663,320.097137 306.999756,265.956116 306.999481,211.815109 
	C306.999481,210.028366 306.999481,208.241623 306.999481,206.136383 
	C285.272278,206.136383 264.005157,206.136383 241.999985,206.136383 
	C241.999985,186.745102 241.999985,167.670380 241.999985,148.109863 
z"/>
</svg>