<?xml version="1.0" encoding="UTF-8"?>
<svg version="1.1" xmlns="http://www.w3.org/2000/svg" width="512" height="512">
<path d="M0 0 C1.01823853 0.00215515 2.03647705 0.0043103 3.08557129 0.00653076 C17.7097884 0.05623391 32.00304638 0.37042012 46.375 3.3125 C47.37160645 3.50585938 48.36821289 3.69921875 49.39501953 3.8984375 C97.79648057 13.46213524 141.99059771 35.87987765 177.375 70.3125 C178.37877686 71.27760498 178.37877686 71.27760498 179.40283203 72.26220703 C188.33991207 80.87657599 196.74206664 89.58564609 204.10107422 99.59423828 C205.39750666 101.34285682 206.72788718 103.06078803 208.06640625 104.77734375 C215.93067241 114.9920598 222.3161092 125.94975258 228.375 137.3125 C229.03846436 138.55314209 229.03846436 138.55314209 229.71533203 139.81884766 C241.23204842 161.72199262 248.9030584 186.01309889 253.375 210.3125 C253.53581055 211.11316895 253.69662109 211.91383789 253.86230469 212.73876953 C259.3544441 240.81662453 259.10896692 274.30227935 253.375 302.3125 C253.18164062 303.30910645 252.98828125 304.30571289 252.7890625 305.33251953 C244.67028127 346.42132055 227.30084885 383.51549494 201.375 416.3125 C200.56289063 417.35019531 199.75078125 418.38789063 198.9140625 419.45703125 C186.24907313 435.01858759 171.69874403 449.61464417 155.375 461.3125 C154.02974408 462.30180622 152.68470229 463.29140366 151.33984375 464.28125 C120.03306909 487.08129792 84.47487825 502.30078684 46.375 509.3125 C45.57433105 509.47331055 44.77366211 509.63412109 43.94873047 509.79980469 C15.88172956 515.289821 -17.62684244 515.06193715 -45.625 509.3125 C-46.63755859 509.11382324 -47.65011719 508.91514648 -48.69335938 508.71044922 C-89.78600049 500.49315205 -126.72136417 483.05232803 -159.625 457.3125 C-160.16415039 456.89339355 -160.70330078 456.47428711 -161.25878906 456.04248047 C-177.49886305 443.27946125 -192.56962343 428.08823511 -204.625 411.3125 C-205.4887527 410.14261544 -206.35335469 408.9733575 -207.21875 407.8046875 C-222.36207742 387.1786757 -234.4442165 364.56952873 -242.625 340.3125 C-243.03806396 339.08998535 -243.03806396 339.08998535 -243.45947266 337.84277344 C-246.69755506 328.07192323 -249.22985473 318.19031263 -251.375 308.125 C-251.57375732 307.20033936 -251.77251465 306.27567871 -251.97729492 305.32299805 C-255.26999027 289.11638823 -256.00030278 273.1821298 -255.9375 256.6875 C-255.93534485 255.66926147 -255.9331897 254.65102295 -255.93096924 253.60192871 C-255.88126609 238.9777116 -255.56707988 224.68445362 -252.625 210.3125 C-252.33496094 208.81759033 -252.33496094 208.81759033 -252.0390625 207.29248047 C-244.41040781 168.68418872 -228.69757683 132.53083121 -204.625 101.3125 C-203.66013672 100.05953125 -203.66013672 100.05953125 -202.67578125 98.78125 C-188.57295377 80.82715922 -172.21896589 63.63892592 -153.625 50.3125 C-153.08327148 49.920625 -152.54154297 49.52875 -151.98339844 49.125 C-121.06865283 26.84146078 -86.69401468 11.73961685 -49.375 4.0625 C-48.64442383 3.91127686 -47.91384766 3.76005371 -47.16113281 3.60424805 C-31.46684491 0.57387475 -15.9450952 -0.06071045 0 0 Z " fill="#CCDBEA" transform="translate(255.625,-0.3125)"/>
<path d="M0 0 C0 12.87 0 25.74 0 39 C-3.073125 39.268125 -6.14625 39.53625 -9.3125 39.8125 C-43.42423158 43.00772894 -76.85226913 51.55079381 -105 72 C-103.69150423 75.5693777 -102.12607526 78.52418566 -99.9609375 81.64453125 C-99.09082031 82.90620117 -99.09082031 82.90620117 -98.203125 84.19335938 C-97.59984375 85.05767578 -96.9965625 85.92199219 -96.375 86.8125 C-95.45847656 88.13797852 -95.45847656 88.13797852 -94.5234375 89.49023438 C-93.01996525 91.66322161 -91.51205266 93.83297876 -90 96 C-89.31043213 95.62174072 -88.62086426 95.24348145 -87.91040039 94.85375977 C-86.06655775 93.84437015 -84.2196167 92.84063643 -82.37109375 91.83984375 C-80.10244534 90.60168222 -77.84466927 89.34341136 -75.59765625 88.06640625 C-52.01609743 74.81600182 -26.97684534 69 0 69 C0 97.38 0 125.76 0 155 C-5.28 155.99 -10.56 156.98 -16 158 C-26.81471001 161.48059632 -36.76924018 168.01308482 -42.21875 178.30078125 C-46.73909957 188.16482978 -47.6175933 198.20322139 -44.0390625 208.62109375 C-38.90345719 220.37892696 -30.81618183 226.12975096 -19.25 230.875 C-18.24662598 231.29990723 -17.24325195 231.72481445 -16.20947266 232.16259766 C-11.30180731 234.23554962 -6.37365992 236.25808974 -1.4453125 238.28125 C-0.58776367 238.63590332 0.26978516 238.99055664 1.15332031 239.35595703 C2.75588159 240.01667323 4.36184623 240.66921721 5.97167969 241.31201172 C15.63763417 245.27526833 15.63763417 245.27526833 18 250 C18.50070446 254.33943865 18.32164627 256.46046433 16.0625 260.25 C11.26425159 265.26269526 4.86312411 266.16796634 -1.8125 266.5 C-13.66604011 266.12345807 -22.0066818 260.31928685 -30 252 C-32.08643831 249.71743649 -34.05440805 247.40639004 -36 245 C-40.25911847 246.6869858 -43.1776993 249.76794425 -46.4375 252.875 C-50.18152025 256.41652434 -53.91824684 259.8414097 -58 263 C-56.63757574 266.06713244 -55.10300295 268.11840293 -52.6875 270.4375 C-52.05972656 271.04464844 -51.43195313 271.65179688 -50.78515625 272.27734375 C-50.19605469 272.84582031 -49.60695312 273.41429687 -49 274 C-48.21625 274.825 -47.4325 275.65 -46.625 276.5 C-32.96602452 289.50854808 -18.74873782 293.65640777 0 296 C0 324.71 0 353.42 0 383 C-30.74969065 381.38159523 -56.24083011 375.46658228 -82.77734375 359.8828125 C-85.13745765 358.50393383 -87.55517788 357.22241106 -90 356 C-95.28 363.59 -100.56 371.18 -106 379 C-81.05262155 396.46316491 -54.57832103 406.11723516 -24.625 410.75 C-23.87806885 410.86569336 -23.1311377 410.98138672 -22.36157227 411.10058594 C-14.89714002 412.16174969 -7.58450788 412.49436614 0 413 C0 425.87 0 438.74 0 452 C-21.08835173 452 -21.08835173 452 -31.6875 450.375 C-32.87738525 450.19678711 -34.06727051 450.01857422 -35.29321289 449.83496094 C-60.25982149 445.89786116 -83.74651906 437.94283413 -106 426 C-106.96317139 425.49629883 -106.96317139 425.49629883 -107.94580078 424.98242188 C-123.33621052 416.91804611 -137.37559294 406.93752563 -150 395 C-151.30777305 393.86950856 -152.6201671 392.74433698 -153.9375 391.625 C-162.83647127 383.83840014 -170.77519839 375.35550582 -178 366 C-178.63373535 365.18885742 -178.63373535 365.18885742 -179.28027344 364.36132812 C-215.56394423 317.66167295 -231.51563354 258.46500306 -225.0715332 199.84838867 C-224.4852334 195.21352656 -223.773401 190.60690127 -223 186 C-222.83975342 184.96601074 -222.83975342 184.96601074 -222.67626953 183.91113281 C-218.58330165 157.71345005 -208.164779 131.34521339 -194 109 C-193.62552734 108.40606445 -193.25105469 107.81212891 -192.86523438 107.20019531 C-183.60379905 92.61078205 -172.96071403 79.45225022 -161 67 C-160.1440625 66.1028125 -159.288125 65.205625 -158.40625 64.28125 C-152.63917803 58.3681762 -146.5587581 53.01607762 -140 48 C-139.35530762 47.5059668 -138.71061523 47.01193359 -138.04638672 46.50292969 C-127.87317221 38.77721144 -117.46632786 32.01990411 -106.13769531 26.11572266 C-104.11014656 25.05748855 -102.09783402 23.97432694 -100.0859375 22.88671875 C-77.71242663 11.00836658 -52.99510467 4.24642219 -27.9375 1.125 C-26.49540161 0.94457153 -26.49540161 0.94457153 -25.02416992 0.76049805 C-16.56654225 -0.16773432 -8.6508966 0 0 0 Z " fill="#EEF2F6" transform="translate(256,30)"/>
<path d="M0 0 C1.01823853 0.00215515 2.03647705 0.0043103 3.08557129 0.00653076 C17.7097884 0.05623391 32.00304638 0.37042012 46.375 3.3125 C47.37160645 3.50585938 48.36821289 3.69921875 49.39501953 3.8984375 C97.79648057 13.46213524 141.99059771 35.87987765 177.375 70.3125 C178.37877686 71.27760498 178.37877686 71.27760498 179.40283203 72.26220703 C188.33991207 80.87657599 196.74206664 89.58564609 204.10107422 99.59423828 C205.39750666 101.34285682 206.72788718 103.06078803 208.06640625 104.77734375 C215.93067241 114.9920598 222.3161092 125.94975258 228.375 137.3125 C229.03846436 138.55314209 229.03846436 138.55314209 229.71533203 139.81884766 C241.23204842 161.72199262 248.9030584 186.01309889 253.375 210.3125 C253.53581055 211.11316895 253.69662109 211.91383789 253.86230469 212.73876953 C259.3544441 240.81662453 259.10896692 274.30227935 253.375 302.3125 C253.18164062 303.30910645 252.98828125 304.30571289 252.7890625 305.33251953 C244.67028127 346.42132055 227.30084885 383.51549494 201.375 416.3125 C200.56289063 417.35019531 199.75078125 418.38789063 198.9140625 419.45703125 C186.24907313 435.01858759 171.69874403 449.61464417 155.375 461.3125 C154.02974408 462.30180622 152.68470229 463.29140366 151.33984375 464.28125 C120.03306909 487.08129792 84.47487825 502.30078684 46.375 509.3125 C45.57433105 509.47331055 44.77366211 509.63412109 43.94873047 509.79980469 C15.88172956 515.289821 -17.62684244 515.06193715 -45.625 509.3125 C-46.63755859 509.11382324 -47.65011719 508.91514648 -48.69335938 508.71044922 C-89.78600049 500.49315205 -126.72136417 483.05232803 -159.625 457.3125 C-160.16415039 456.89339355 -160.70330078 456.47428711 -161.25878906 456.04248047 C-177.49886305 443.27946125 -192.56962343 428.08823511 -204.625 411.3125 C-205.4887527 410.14261544 -206.35335469 408.9733575 -207.21875 407.8046875 C-222.36207742 387.1786757 -234.4442165 364.56952873 -242.625 340.3125 C-243.03806396 339.08998535 -243.03806396 339.08998535 -243.45947266 337.84277344 C-246.69755506 328.07192323 -249.22985473 318.19031263 -251.375 308.125 C-251.57375732 307.20033936 -251.77251465 306.27567871 -251.97729492 305.32299805 C-255.26999027 289.11638823 -256.00030278 273.1821298 -255.9375 256.6875 C-255.93534485 255.66926147 -255.9331897 254.65102295 -255.93096924 253.60192871 C-255.88126609 238.9777116 -255.56707988 224.68445362 -252.625 210.3125 C-252.33496094 208.81759033 -252.33496094 208.81759033 -252.0390625 207.29248047 C-244.41040781 168.68418872 -228.69757683 132.53083121 -204.625 101.3125 C-203.66013672 100.05953125 -203.66013672 100.05953125 -202.67578125 98.78125 C-188.57295377 80.82715922 -172.21896589 63.63892592 -153.625 50.3125 C-153.08327148 49.920625 -152.54154297 49.52875 -151.98339844 49.125 C-121.06865283 26.84146078 -86.69401468 11.73961685 -49.375 4.0625 C-48.64442383 3.91127686 -47.91384766 3.76005371 -47.16113281 3.60424805 C-31.46684491 0.57387475 -15.9450952 -0.06071045 0 0 Z M-101.63574219 54.23974609 C-103.73916171 55.37406438 -105.85734205 56.47755001 -107.9765625 57.58203125 C-134.7032987 71.7328447 -159.26060055 92.22750886 -177.625 116.3125 C-178.05377441 116.87018066 -178.48254883 117.42786133 -178.92431641 118.00244141 C-196.12735214 140.47806418 -210.50490024 166.78942531 -217.625 194.3125 C-217.8219043 195.07304687 -218.01880859 195.83359375 -218.22167969 196.6171875 C-227.09803117 231.5317319 -228.45627853 266.91975418 -221.625 302.3125 C-221.36807373 303.65924805 -221.36807373 303.65924805 -221.10595703 305.03320312 C-212.6987294 347.12587403 -189.90625604 384.5941271 -160.625 415.3125 C-159.86703125 416.11171875 -159.1090625 416.9109375 -158.328125 417.734375 C-152.8008816 423.41841963 -146.84171071 428.40238043 -140.625 433.3125 C-139.67238281 434.09367187 -138.71976562 434.87484375 -137.73828125 435.6796875 C-107.69865998 459.75754014 -71.28970589 473.96391643 -33.625 480.3125 C-32.35914063 480.54066406 -31.09328125 480.76882813 -29.7890625 481.00390625 C25.39492792 489.56281149 86.53870111 473.43633934 131.48144531 440.70654297 C132.10631836 440.24650879 132.73119141 439.78647461 133.375 439.3125 C133.9740918 438.87180176 134.57318359 438.43110352 135.19042969 437.97705078 C185.27349759 400.72552455 215.59418814 346.23699698 224.734375 284.90087891 C232.83722585 227.63832135 216.82865258 168.44381103 182.5 122.1875 C163.48759051 97.11488498 140.88056905 75.89130796 113.375 60.3125 C112.64104004 59.89500488 111.90708008 59.47750977 111.15087891 59.04736328 C47.06097825 23.02678969 -36.21102733 18.87189542 -101.63574219 54.23974609 Z " fill="#FC455F" transform="translate(255.625,-0.3125)"/>
<path d="M0 0 C0 9.9 0 19.8 0 30 C-4.063125 30.268125 -8.12625 30.53625 -12.3125 30.8125 C-45.47196561 33.21582078 -76.6003224 41.22199771 -106 57 C-106.64211426 57.33580078 -107.28422852 57.67160156 -107.94580078 58.01757812 C-134.47114978 71.91651814 -158.78235512 92.19645704 -177 116 C-177.64533691 116.83869629 -177.64533691 116.83869629 -178.30371094 117.69433594 C-195.50442269 140.16879324 -209.88052904 166.47935595 -217 194 C-217.29535645 195.14082031 -217.29535645 195.14082031 -217.59667969 196.3046875 C-226.47303117 231.2192319 -227.83127853 266.60725418 -221 302 C-220.82871582 302.89783203 -220.65743164 303.79566406 -220.48095703 304.72070312 C-212.07014799 346.83130515 -189.26952651 384.25547373 -160 415 C-159.31550781 415.72574219 -158.63101563 416.45148438 -157.92578125 417.19921875 C-152.67386849 422.62157898 -146.9106367 427.3168368 -141 432 C-140.04609375 432.78246094 -139.0921875 433.56492187 -138.109375 434.37109375 C-98.4718559 466.13192636 -49.97129203 479.65759569 0 482 C0 491.9 0 501.8 0 512 C-58.87591858 513.09706681 -113.84151895 493.10881698 -160 457 C-160.53915039 456.58089355 -161.07830078 456.16178711 -161.63378906 455.72998047 C-177.87386305 442.96696125 -192.94462343 427.77573511 -205 411 C-205.8637527 409.83011544 -206.72835469 408.6608575 -207.59375 407.4921875 C-222.73707742 386.8661757 -234.8192165 364.25702873 -243 340 C-243.41306396 338.77748535 -243.41306396 338.77748535 -243.83447266 337.53027344 C-247.07255506 327.75942323 -249.60485473 317.87781263 -251.75 307.8125 C-251.94875732 306.88783936 -252.14751465 305.96317871 -252.35229492 305.01049805 C-255.64499027 288.80388823 -256.37530278 272.8696298 -256.3125 256.375 C-256.31034485 255.35676147 -256.3081897 254.33852295 -256.30596924 253.28942871 C-256.25626609 238.6652116 -255.94207988 224.37195362 -253 210 C-252.70996094 208.50509033 -252.70996094 208.50509033 -252.4140625 206.97998047 C-244.78540781 168.37168872 -229.07257683 132.21833121 -205 101 C-204.03513672 99.74703125 -204.03513672 99.74703125 -203.05078125 98.46875 C-188.94795377 80.51465922 -172.59396589 63.32642592 -154 50 C-153.45827148 49.608125 -152.91654297 49.21625 -152.35839844 48.8125 C-107.33744492 16.36111916 -55.35353805 -0.66291662 0 0 Z " fill="#FC7C50" transform="translate(256,0)"/>
<path d="M0 0 C65.66666667 0 65.66666667 0 80 14 C89.30377379 24.6705653 93.6385797 36.42973607 93.375 50.53125 C91.92159234 63.97527088 84.79530875 75.55238042 74.59765625 84.17578125 C60.21327797 94.27729201 48.06118148 93 30 93 C30 109.17 30 125.34 30 142 C20.1 142 10.2 142 0 142 C0 95.14 0 48.28 0 0 Z " fill="#2A3F66" transform="translate(323,185)"/>
<path d="M0 0 C2.96601626 1.99760671 5.86856622 4.06998417 8.75 6.1875 C9.46663818 6.71085937 10.18327637 7.23421875 10.92163086 7.7734375 C11.58171143 8.27488281 12.24179199 8.77632812 12.921875 9.29296875 C13.51581055 9.7418042 14.10974609 10.19063965 14.72167969 10.65307617 C16 12 16 12 16 15 C14.74658203 17.03710938 14.74658203 17.03710938 13.0078125 19.34375 C12.38519531 20.17777344 11.76257813 21.01179688 11.12109375 21.87109375 C10.46238281 22.73863281 9.80367188 23.60617188 9.125 24.5 C7.83552899 26.21844354 6.54644984 27.93718121 5.2578125 29.65625 C4.39373779 30.79803711 4.39373779 30.79803711 3.51220703 31.96289062 C2.29215205 33.60643901 1.13541391 35.29687913 0 37 C-4.24751414 35.56095149 -7.20519364 33.42386306 -10.6875 30.625 C-20.18986569 23.33711904 -29.9961357 19.8148512 -42 21 C-45.16251776 21.91619188 -46.39107679 22.78808685 -49 25 C-50.32026414 28.48694391 -50.32026414 28.48694391 -50 32 C-47.55290602 35.59445786 -43.34187784 36.6428156 -39.4375 38.109375 C-37.90227303 38.70554708 -36.36711921 39.30190757 -34.83203125 39.8984375 C-32.42908143 40.82141194 -30.02476828 41.7405843 -27.61865234 42.65527344 C-10.77624952 49.08239297 5.00351903 56.42502472 12.875 73.75 C13.97551971 76.92927917 14.66549923 79.65499226 15 83 C15.06445312 83.63292969 15.12890625 84.26585937 15.1953125 84.91796875 C15.81294157 96.22058075 11.26394404 106.55771596 4 115 C-3.66860218 123.31455355 -14.6940386 129.14680483 -26.03710938 130.18676758 C-28.11271488 130.26696143 -30.17308698 130.2780891 -32.25 130.25 C-32.99016357 130.24250732 -33.73032715 130.23501465 -34.49291992 130.22729492 C-53.01082609 129.86813302 -69.76337546 123.12677703 -83 110 C-84.86677132 107.96829307 -86.67999777 105.90736607 -88.45703125 103.796875 C-89.90282773 102.11316264 -91.41007985 100.54694933 -93 99 C-91.42345523 94.92964805 -88.5027048 92.4493154 -85.3125 89.625 C-84.5076416 88.90026489 -84.5076416 88.90026489 -83.68652344 88.16088867 C-79.84349959 84.71224385 -75.95201714 81.32328714 -72 78 C-68.26940944 79.50900292 -66.3630832 81.68372511 -63.8125 84.75 C-57.25604205 92.19856617 -49.27710611 98.28225803 -39.1484375 99.28125 C-31.47083061 99.51449375 -24.38033635 98.96810021 -18.4375 93.75 C-16.55185565 90.14268037 -16.35417214 88.01848448 -17 84 C-20.98204562 78.96836086 -25.71907316 77.07171279 -31.5 74.75 C-32.41547607 74.3679541 -33.33095215 73.9859082 -34.27416992 73.59228516 C-38.14145458 71.97940482 -42.02032376 70.39621803 -45.90478516 68.82519531 C-47.8010129 68.0566203 -49.69478707 67.28196136 -51.5859375 66.50097656 C-53.34968215 65.77261067 -55.11897345 65.05747395 -56.89453125 64.35839844 C-67.17682398 60.09986976 -74.57719886 52.85306828 -79.03515625 42.625 C-82.30775351 33.12685726 -82.07089728 23.81064512 -78.2578125 14.53125 C-72.34316159 2.62847426 -62.14358086 -4.86411487 -49.75390625 -9.11328125 C-32.85674094 -13.10459917 -14.58054302 -9.0040625 0 0 Z " fill="#2A3F66" transform="translate(290,196)"/>
<path d="M0 0 C25.41 0 50.82 0 77 0 C77 9.9 77 19.8 77 30 C61.49 30 45.98 30 30 30 C30 38.25 30 46.5 30 55 C44.19 55 58.38 55 73 55 C73 64.9 73 74.8 73 85 C58.81 85 44.62 85 30 85 C30 93.25 30 101.5 30 110 C45.51 110 61.02 110 77 110 C77 119.9 77 129.8 77 140 C51.59 140 26.18 140 0 140 C0 93.8 0 47.6 0 0 Z " fill="#42567F" transform="translate(107,186)"/>
<path d="M0 0 C0.62003906 0.3403125 1.24007812 0.680625 1.87890625 1.03125 C3.79303623 2.07886699 5.71002336 3.12127061 7.62890625 4.16015625 C9.89755466 5.39831778 12.15533073 6.65658864 14.40234375 7.93359375 C35.93296194 20.03158103 58.48471447 25.58698863 83 27 C83.73299316 27.04672852 84.46598633 27.09345703 85.22119141 27.14160156 C115.05158716 28.83400542 147.09098797 20.06578672 172.13012695 3.84448242 C175.48596739 1.70607072 176.89190169 1 181 1 C182.4921875 2.44946289 182.4921875 2.44946289 183.875 4.47265625 C184.64070313 5.57577148 184.64070313 5.57577148 185.421875 6.70117188 C186.20304687 7.8700293 186.20304687 7.8700293 187 9.0625 C187.78117187 10.19075195 187.78117187 10.19075195 188.578125 11.34179688 C191.62029768 15.7782987 194.39910247 20.29212538 197 25 C173.14062853 40.32360121 148.90428987 50.77570047 121 56 C119.80246094 56.226875 118.60492188 56.45375 117.37109375 56.6875 C95.04283038 60.1559681 72.00746657 58.70043644 50 54 C49.14374023 53.81808105 48.28748047 53.63616211 47.40527344 53.44873047 C24.24291453 48.33656486 2.63671336 38.19010336 -17 25 C-11.69445786 16.39167005 -5.93553243 8.18076402 0 0 Z " fill="#FC455F" transform="translate(166,385)"/>
<path d="M0 0 C1.02884807 0.97029462 2.04232718 1.95939307 3 3 C0.9199736 6.064758 -1.16460632 9.12639214 -3.25 12.1875 C-3.83652344 13.05181641 -4.42304688 13.91613281 -5.02734375 14.80664062 C-7.88364615 18.99481437 -10.74368543 23.10693085 -14 27 C-17.400663 25.72699258 -20.37201538 24.25167138 -23.4375 22.3125 C-56.95131342 2.06661858 -99.78544461 -5.88998608 -138.140625 3.1875 C-155.51088159 7.5262381 -171.35353713 14.0578891 -186.77734375 23.1171875 C-189.15940862 24.50889085 -191.51221518 25.81534056 -194 27 C-197.6998591 22.02365712 -201.36753861 17.02575259 -205 12 C-205.63164062 11.12988281 -206.26328125 10.25976562 -206.9140625 9.36328125 C-208.3125 7.3125 -208.3125 7.3125 -210 4 C-208.90288091 0.57298405 -207.23485328 -0.79819906 -204.17578125 -2.55078125 C-203.01502075 -3.22246338 -203.01502075 -3.22246338 -201.83081055 -3.90771484 C-200.99976807 -4.37129395 -200.16872559 -4.83487305 -199.3125 -5.3125 C-198.45760986 -5.7967041 -197.60271973 -6.2809082 -196.72192383 -6.77978516 C-178.34927537 -17.06079947 -159.58883506 -23.71081738 -139 -28 C-138.20384277 -28.16806152 -137.40768555 -28.33612305 -136.58740234 -28.50927734 C-90.50680494 -37.84536311 -38.46694139 -27.10422225 0 0 Z " fill="#FC4560" transform="translate(360,100)"/>
<path d="M0 0 C2.96601626 1.99760671 5.86856622 4.06998417 8.75 6.1875 C9.46663818 6.71085937 10.18327637 7.23421875 10.92163086 7.7734375 C11.58171143 8.27488281 12.24179199 8.77632812 12.921875 9.29296875 C13.51581055 9.7418042 14.10974609 10.19063965 14.72167969 10.65307617 C16 12 16 12 16 15 C14.74658203 17.03710938 14.74658203 17.03710938 13.0078125 19.34375 C12.38519531 20.17777344 11.76257813 21.01179688 11.12109375 21.87109375 C10.46238281 22.73863281 9.80367188 23.60617188 9.125 24.5 C7.83552899 26.21844354 6.54644984 27.93718121 5.2578125 29.65625 C4.39373779 30.79803711 4.39373779 30.79803711 3.51220703 31.96289062 C2.29215205 33.60643901 1.13541391 35.29687913 0 37 C-4.24751414 35.56095149 -7.20519364 33.42386306 -10.6875 30.625 C-20.18986569 23.33711904 -29.9961357 19.8148512 -42 21 C-45.16251776 21.91619188 -46.39107679 22.78808685 -49 25 C-50.32026414 28.48694391 -50.32026414 28.48694391 -50 32 C-47.67952348 35.19871243 -44.46679264 36.21424771 -40.875 37.625 C-35.08333333 39.91666667 -35.08333333 39.91666667 -34 41 C-33.9116033 43.3756852 -33.88469695 45.72208674 -33.90234375 48.09765625 C-33.9037587 48.80651474 -33.90517365 49.51537323 -33.90663147 50.24571228 C-33.91224557 52.51801712 -33.92480037 54.79022475 -33.9375 57.0625 C-33.94251319 58.59960796 -33.94707641 60.13671745 -33.95117188 61.67382812 C-33.96221958 65.44925642 -33.97949359 69.22461171 -34 73 C-40.65536447 70.88834837 -47.12252043 68.44537161 -53.5625 65.75 C-54.90344727 65.21439453 -54.90344727 65.21439453 -56.27148438 64.66796875 C-66.82235048 60.23768554 -74.43146058 53.18744138 -79.03515625 42.625 C-82.30775351 33.12685726 -82.07089728 23.81064512 -78.2578125 14.53125 C-72.34316159 2.62847426 -62.14358086 -4.86411487 -49.75390625 -9.11328125 C-32.85674094 -13.10459917 -14.58054302 -9.0040625 0 0 Z " fill="#425780" transform="translate(290,196)"/>
<path d="M0 0 C0.62003906 0.3403125 1.24007812 0.680625 1.87890625 1.03125 C3.79303623 2.07886699 5.71002336 3.12127061 7.62890625 4.16015625 C9.89755466 5.39831778 12.15533073 6.65658864 14.40234375 7.93359375 C38.37305367 21.40266097 62.87574947 25.48849532 90 28 C90 37.9 90 47.8 90 58 C80.4051126 58 72.01889349 57.91610958 62.75 56.3125 C61.67790283 56.13170898 60.60580566 55.95091797 59.5012207 55.76464844 C31.7597531 50.91417812 6.39516737 40.71468046 -17 25 C-11.69445786 16.39167005 -5.93553243 8.18076402 0 0 Z " fill="#FC7D51" transform="translate(166,385)"/>
<path d="M0 0 C0 9.9 0 19.8 0 30 C-4.62 30.33 -9.24 30.66 -14 31 C-38.57611933 33.05626805 -61.63567894 41.69945854 -82.77734375 54.1171875 C-85.15940862 55.50889085 -87.51221518 56.81534056 -90 58 C-93.6998591 53.02365712 -97.36753861 48.02575259 -101 43 C-101.63164062 42.12988281 -102.26328125 41.25976562 -102.9140625 40.36328125 C-104.3125 38.3125 -104.3125 38.3125 -106 35 C-104.90288091 31.57298405 -103.23485328 30.20180094 -100.17578125 28.44921875 C-99.01502075 27.77753662 -99.01502075 27.77753662 -97.83081055 27.09228516 C-96.99976807 26.62870605 -96.16872559 26.16512695 -95.3125 25.6875 C-94.45760986 25.2032959 -93.60271973 24.7190918 -92.72192383 24.22021484 C-71.22627752 12.19162529 -48.9232897 5.05195448 -24.625 1.1875 C-23.87847168 1.06358887 -23.13194336 0.93967773 -22.36279297 0.81201172 C-14.75674411 -0.30319173 -7.92940367 0 0 0 Z " fill="#FC7D51" transform="translate(256,69)"/>
<path d="M0 0 C3.73059056 1.50900292 5.6369168 3.68372511 8.1875 6.75 C16.73742459 16.46327499 25.32340781 20.41542598 38 22 C38 31.9 38 41.8 38 52 C27.15436824 51.71707048 18.92475459 50.72735266 9 46 C8.20207031 45.62875 7.40414062 45.2575 6.58203125 44.875 C-2.40858103 40.29217463 -10.17652431 33.48552297 -16.5625 25.7265625 C-17.95949143 24.04865431 -19.43388605 22.51950342 -21 21 C-19.42345523 16.92964805 -16.5027048 14.4493154 -13.3125 11.625 C-12.77592773 11.14184326 -12.23935547 10.65868652 -11.68652344 10.16088867 C-7.84349959 6.71224385 -3.95201714 3.32328714 0 0 Z " fill="#425780" transform="translate(218,274)"/>
<path d="M0 0 C16.40470578 0 29.75832873 6.64014558 42.75 16.1875 C43.46663818 16.71085937 44.18327637 17.23421875 44.92163086 17.7734375 C45.58171143 18.27488281 46.24179199 18.77632812 46.921875 19.29296875 C47.51581055 19.7418042 48.10974609 20.19063965 48.72167969 20.65307617 C50 22 50 22 50 25 C48.74658203 27.03710938 48.74658203 27.03710938 47.0078125 29.34375 C46.38519531 30.17777344 45.76257813 31.01179688 45.12109375 31.87109375 C44.46238281 32.73863281 43.80367188 33.60617188 43.125 34.5 C41.83552899 36.21844354 40.54644984 37.93718121 39.2578125 39.65625 C38.39373779 40.79803711 38.39373779 40.79803711 37.51220703 41.96289062 C36.29215205 43.60643901 35.13541391 45.29687913 34 47 C29.75248586 45.56095149 26.79480636 43.42386306 23.3125 40.625 C15.96164144 34.90614812 8.89866678 32.54247622 0 30 C0 20.1 0 10.2 0 0 Z " fill="#2A3F66" transform="translate(256,186)"/>
<path d="M0 0 C3.135 -0.103125 6.27 -0.20625 9.5 -0.3125 C10.95696289 -0.38078003 10.95696289 -0.38078003 12.44335938 -0.45043945 C18.89266682 -0.55211181 23.0179021 0.87893123 28 5 C31.42733044 8.69097125 32.86706964 11.23867273 33.25 16.3125 C32.84968738 22.2171112 30.80726056 25.48895951 26.4375 29.3125 C22.86800971 32.23717914 20.85546509 33.12563533 16.2109375 33.09765625 C15.36321777 33.09515869 14.51549805 33.09266113 13.64208984 33.09008789 C12.5639502 33.08098389 11.48581055 33.07187988 10.375 33.0625 C6.95125 33.041875 3.5275 33.02125 0 33 C0 22.11 0 11.22 0 0 Z " fill="#CAD9E9" transform="translate(353,215)"/>
<path d="M0 0 C5.08784768 0.84797461 7.12954831 1.3344761 11.25 3.875 C12.10078125 4.38804687 12.9515625 4.90109375 13.828125 5.4296875 C16 7 16 7 18 10 C18.57685511 14.36761725 18.33587576 16.43659549 16.0625 20.25 C12.78087735 23.7566482 8.6193621 25.05794762 4 26 C2.68 26 1.36 26 0 26 C0 17.42 0 8.84 0 0 Z " fill="#CADAE9" transform="translate(256,270)"/>
<path d="M0 0 C0 6.6 0 13.2 0 20 C-6.13282533 18.97786245 -10.95007183 17.6607286 -16 14 C-17.4375 10.5 -17.4375 10.5 -17 7 C-11.73073776 0.22523426 -8.61960826 0 0 0 Z " fill="#EAEFF4" transform="translate(256,216)"/>
</svg>
