<?xml version="1.0" encoding="UTF-8"?>
<svg version="1.1" xmlns="http://www.w3.org/2000/svg" width="512" height="512">
<path d="M0 0 C22.11843003 18.1062497 36.60543436 41.4103788 40.51953125 70.0625 C42.76747884 100.49359755 35.79275713 128.04102786 15.75390625 151.54296875 C15.0165625 152.37441406 14.27921875 153.20585937 13.51953125 154.0625 C12.59914063 155.10857422 12.59914063 155.10857422 11.66015625 156.17578125 C-6.5448087 175.58663063 -32.86827693 185.66329255 -59.015625 187.28125 C-88.18835907 188.03006884 -114.07504485 177.57573173 -135.48046875 158.0625 C-136.145625 157.47984375 -136.81078125 156.8971875 -137.49609375 156.296875 C-154.35382285 140.69953686 -165.02817114 115.68599617 -166.70361328 93.04736328 C-167.84202713 61.9750719 -160.41036605 35.66352055 -139.48046875 12.0625 C-138.866875 11.36511719 -138.25328125 10.66773438 -137.62109375 9.94921875 C-102.3766211 -27.62982367 -40.31268886 -30.94467271 0 0 Z M-90.35546875 62.375 C-96.53510471 71.00641728 -97.5441775 79.55688213 -96.48046875 90.0625 C-94.10156256 99.83348758 -88.42784769 107.55882874 -79.90234375 112.80859375 C-71.30280604 117.26093505 -62.83539111 118.36285024 -53.48046875 115.9375 C-43.47160943 112.58569595 -36.29770682 106.31661079 -31.3828125 96.9765625 C-28.12485137 88.82408303 -28.084157 78.89181517 -31.10546875 70.6875 C-35.47014713 61.41065745 -41.39987426 55.0127477 -50.96484375 51.02734375 C-65.72981391 46.09804471 -80.36418486 50.37289168 -90.35546875 62.375 Z " fill="#3276FE" transform="translate(280.48046875,172.9375)"/>
<path d="M0 0 C51.15 0 102.3 0 155 0 C155 23.1 155 46.2 155 70 C140.81 70 126.62 70 112 70 C112 126.76 112 183.52 112 242 C89.23 242 66.46 242 43 242 C43 185.24 43 128.48 43 70 C28.81 70 14.62 70 0 70 C0 46.9 0 23.8 0 0 Z " fill="#295FCB" transform="translate(357,135)"/>
<path d="M0 0 C22.77 0 45.54 0 69 0 C69 79.86 69 159.72 69 242 C46.23 242 23.46 242 0 242 C0 162.14 0 82.28 0 0 Z " fill="#3377FF" transform="translate(0,135)"/>
<path d="M0 0 C28.36792014 1.77299501 51.05007057 9.90199803 72 29 C72.66515625 29.58265625 73.3303125 30.1653125 74.015625 30.765625 C90.8733541 46.36296314 101.54770239 71.37650383 103.22314453 94.01513672 C104.36155838 125.0874281 96.9298973 151.39897945 76 175 C75.38640625 175.69738281 74.7728125 176.39476562 74.140625 177.11328125 C56.90836466 195.48699473 31.83201082 205.93580059 7 208 C4.69 208 2.38 208 0 208 C0 184.9 0 161.8 0 138 C3.96 137.01 7.92 136.02 12 135 C20.86846816 130.61793338 27.18460809 125.15998078 30.9375 115.8125 C33.67856562 106.01319039 32.95189798 95.88246701 28 87 C23.98506619 79.99895917 19.19634163 76.59817081 12 73 C8.04 72.01 4.08 71.02 0 70 C0 46.9 0 23.8 0 0 Z " fill="#285ECC" transform="translate(218,152)"/>
<path d="M0 0 C1.33783539 -0.00855011 1.33783539 -0.00855011 2.70269775 -0.01727295 C4.58515257 -0.02666574 6.4676234 -0.03323398 8.35009766 -0.03710938 C11.15428583 -0.04670783 13.95770527 -0.0777415 16.76171875 -0.109375 C33.13372141 -0.20560729 49.23662756 1.50953333 65.140625 5.515625 C66.42803589 5.83309692 66.42803589 5.83309692 67.74145508 6.15698242 C95.19850649 13.11297121 121.84472687 25.02285043 144.453125 42.203125 C143.17505033 45.70250571 141.68958592 48.52568631 139.484375 51.5234375 C138.91332031 52.30589844 138.34226562 53.08835938 137.75390625 53.89453125 C137.15964844 54.69761719 136.56539063 55.50070313 135.953125 56.328125 C134.77569419 57.93464122 133.5985969 59.54140195 132.421875 61.1484375 C131.63973633 62.20828857 131.63973633 62.20828857 130.84179688 63.28955078 C129.67323675 64.89981349 128.55675241 66.54768389 127.453125 68.203125 C124.64640067 66.84553959 121.99877775 65.35117213 119.35546875 63.69921875 C96.14205532 49.35714341 72.3731922 39.18734848 45.453125 34.203125 C44.30070313 33.98914063 43.14828125 33.77515625 41.9609375 33.5546875 C-6.56259412 25.67674943 -57.89906841 37.53368624 -98.15625 65.63671875 C-100.546875 67.203125 -100.546875 67.203125 -103.546875 68.203125 C-105.63205934 65.32946343 -107.7146841 62.45395611 -109.796875 59.578125 C-110.38339844 58.76988281 -110.96992187 57.96164063 -111.57421875 57.12890625 C-112.71870501 55.54720052 -113.85880328 53.96230896 -114.99414062 52.37402344 C-115.95096121 51.03627994 -116.91659364 49.70472715 -117.89648438 48.38378906 C-119.03125 46.8046875 -119.03125 46.8046875 -120.546875 44.203125 C-119.11993667 39.92231001 -115.95268914 38.51708639 -112.296875 36.203125 C-111.54035645 35.72182129 -110.78383789 35.24051758 -110.00439453 34.74462891 C-77.31537605 14.30485856 -38.92015513 0.19970703 0 0 Z " fill="#2DE5E6" transform="translate(205.546875,30.796875)"/>
<path d="M0 0 C3.65943697 1.31909467 6.51057123 2.93640711 9.62890625 5.25 C14.84647692 8.9772496 20.24752676 12.05595124 25.9375 15 C26.93749023 15.51763916 27.93748047 16.03527832 28.96777344 16.56860352 C75.28578759 40.06959022 128.94743658 42.41174755 178.11328125 26.6953125 C194.92292991 21.04203777 211.0832435 12.70691608 225.609375 2.56640625 C228 1 228 1 231 0 C233.08518434 2.87366157 235.1678091 5.74916889 237.25 8.625 C237.83652344 9.43324219 238.42304688 10.24148438 239.02734375 11.07421875 C240.17183001 12.65592448 241.31192828 14.24081604 242.44726562 15.82910156 C243.40408621 17.16684506 244.36971864 18.49839785 245.34960938 19.81933594 C246.484375 21.3984375 246.484375 21.3984375 248 24 C246.58403454 28.24789637 243.50076665 29.63722524 239.875 31.9375 C239.12508789 32.41550049 238.37517578 32.89350098 237.60253906 33.38598633 C204.83245725 53.86894923 166.48015264 68.00286959 127.453125 68.203125 C126.56123474 68.20882507 125.66934448 68.21452515 124.75042725 68.22039795 C122.86797243 68.22979074 120.9855016 68.23635898 119.10302734 68.24023438 C116.29883917 68.24983283 113.49541973 68.2808665 110.69140625 68.3125 C94.37292319 68.40832693 78.29900398 66.70469916 62.4375 62.75 C61.15782349 62.43639526 61.15782349 62.43639526 59.85229492 62.11645508 C32.22386277 55.09701054 5.99716149 42.82124533 -17 26 C-15.72192533 22.50061929 -14.23646092 19.67743869 -12.03125 16.6796875 C-11.17466797 15.50599609 -11.17466797 15.50599609 -10.30078125 14.30859375 C-9.70652344 13.50550781 -9.11226563 12.70242188 -8.5 11.875 C-7.32256919 10.26848378 -6.1454719 8.66172305 -4.96875 7.0546875 C-4.44732422 6.34812012 -3.92589844 5.64155273 -3.38867188 4.91357422 C-2.22011175 3.30331151 -1.10362741 1.65544111 0 0 Z " fill="#2DE5E6" transform="translate(102,413)"/>
<path d="M0 0 C2.3230249 0.01611516 4.64431129 0.00000981 6.96728516 -0.01904297 C21.3903372 -0.04018419 35.4736435 1.9934902 49.32275391 6.07861328 C50.1916626 6.3320752 51.06057129 6.58553711 51.95581055 6.84667969 C68.96084988 12.00497294 86.03106259 20.08363966 99.82275391 31.39111328 C98.0676755 35.34249091 95.53775666 38.72317871 93.01025391 42.20361328 C92.58421875 42.79464844 92.15818359 43.38568359 91.71923828 43.99462891 C90.86072619 45.18563584 90.00119298 46.3759074 89.140625 47.56542969 C87.02301178 50.49901836 84.92355361 53.44546774 82.82275391 56.39111328 C78.69842774 55.50892237 75.59409024 53.5002269 72.07275391 51.26611328 C41.6616897 32.59173766 5.76443368 27.18844209 -28.98974609 35.14111328 C-44.20561655 38.90805388 -59.83179031 44.85390247 -72.36474609 54.45361328 C-75.17724609 56.39111328 -75.17724609 56.39111328 -77.17333984 56.23974609 C-79.7014687 55.16911063 -80.52135582 54.01547071 -82.05224609 51.75048828 C-82.56271484 51.00927734 -83.07318359 50.26806641 -83.59912109 49.50439453 C-84.11990234 48.72451172 -84.64068359 47.94462891 -85.17724609 47.14111328 C-86.21754546 45.6141392 -87.25918167 44.08807491 -88.30224609 42.56298828 C-88.79208984 41.84304687 -89.28193359 41.12310547 -89.78662109 40.38134766 C-91.47759441 37.96126085 -93.28936096 35.66020599 -95.17724609 33.39111328 C-93.8411273 30.25343469 -92.63895942 28.70558081 -89.74755859 26.91064453 C-89.04526123 26.47324951 -88.34296387 26.03585449 -87.61938477 25.58520508 C-86.854729 25.12927979 -86.09007324 24.67335449 -85.30224609 24.20361328 C-84.50214111 23.72384033 -83.70203613 23.24406738 -82.87768555 22.74975586 C-70.71523831 15.61792993 -58.09296872 9.9699489 -44.55224609 6.01611328 C-43.77905029 5.78947998 -43.00585449 5.56284668 -42.20922852 5.3293457 C-28.30666073 1.54291451 -14.3820955 -0.1179604 0 0 Z " fill="#2DE5E5" transform="translate(215.17724609375,90.60888671875)"/>
<path d="M0 0 C4.12432616 0.88219091 7.22866366 2.89088638 10.75 5.125 C41.16106421 23.79937562 77.05832023 29.20267119 111.8125 21.25 C127.02837045 17.4830594 142.65454421 11.53721081 155.1875 1.9375 C158 0 158 0 159.87109375 -0.03125 C163.22202241 1.59195214 164.86125566 4.55078017 166.875 7.5625 C167.754501 8.83772771 168.63470689 10.11246956 169.515625 11.38671875 C170.15081055 12.31556885 170.15081055 12.31556885 170.79882812 13.26318359 C173.09683965 16.5859588 175.55596518 19.78416471 178 23 C176.66388121 26.13767859 175.46171333 27.68553247 172.5703125 29.48046875 C171.86801514 29.91786377 171.16571777 30.35525879 170.44213867 30.8059082 C169.29515503 31.48979614 169.29515503 31.48979614 168.125 32.1875 C167.32489502 32.66727295 166.52479004 33.1470459 165.70043945 33.64135742 C153.53799222 40.77318335 140.91572263 46.42116438 127.375 50.375 C126.6018042 50.6016333 125.8286084 50.8282666 125.03198242 51.06176758 C111.12941463 54.84819877 97.20484941 56.50907369 82.82275391 56.39111328 C80.499729 56.37499812 78.17844261 56.39110347 75.85546875 56.41015625 C61.48937409 56.43111928 47.42758559 54.41909716 33.625 50.375 C32.76052246 50.12339111 31.89604492 49.87178223 31.00537109 49.61254883 C14.01193739 44.44056724 -3.27153391 36.41900451 -17 25 C-15.2449216 21.04862237 -12.71500276 17.66793458 -10.1875 14.1875 C-9.76146484 13.59646484 -9.33542969 13.00542969 -8.89648438 12.39648438 C-8.03797229 11.20547744 -7.17843907 10.01520588 -6.31787109 8.82568359 C-4.20025788 5.89209492 -2.1007997 2.94564554 0 0 Z " fill="#2DE5E5" transform="translate(137,365)"/>
<path d="M0 0 C46.75717512 -1.27907166 94.60621728 13.58421174 132 42 C130.72192533 45.49938071 129.23646092 48.32256131 127.03125 51.3203125 C126.46019531 52.10277344 125.88914062 52.88523438 125.30078125 53.69140625 C124.70652344 54.49449219 124.11226563 55.29757813 123.5 56.125 C122.32256919 57.73151622 121.1454719 59.33827695 119.96875 60.9453125 C119.18661133 62.00516357 119.18661133 62.00516357 118.38867188 63.08642578 C117.22011175 64.69668849 116.10362741 66.34455889 115 68 C112.19327567 66.64241459 109.54565275 65.14804713 106.90234375 63.49609375 C75.99522328 44.4005716 43.28617092 32.80075658 6.77539062 31.34106445 C1.09960781 31.09960781 1.09960781 31.09960781 0 30 C-0.08783542 27.78144736 -0.10694609 25.56011504 -0.09765625 23.33984375 C-0.0962413 22.67537735 -0.09482635 22.01091095 -0.09336853 21.3263092 C-0.08775518 19.19666101 -0.07520054 17.06711661 -0.0625 14.9375 C-0.05748671 13.49674631 -0.05292351 12.05599097 -0.04882812 10.61523438 C-0.03778145 7.07678898 -0.02050792 3.53840461 0 0 Z " fill="#28B0CC" transform="translate(218,31)"/>
<path d="M0 0 C0.66 0 1.32 0 2 0 C3.35693359 1.55712891 3.35693359 1.55712891 4.8984375 3.7265625 C5.46046875 4.51160156 6.0225 5.29664063 6.6015625 6.10546875 C7.47941406 7.35263672 7.47941406 7.35263672 8.375 8.625 C8.9525 9.43324219 9.53 10.24148438 10.125 11.07421875 C11.2502329 12.65416905 12.36861613 14.23902407 13.47949219 15.82910156 C14.41844392 17.16968583 15.36980908 18.50178756 16.34082031 19.81933594 C17.4765625 21.3984375 17.4765625 21.3984375 19 24 C17.58403454 28.24789637 14.50076665 29.63722524 10.875 31.9375 C10.12508789 32.41550049 9.37517578 32.89350098 8.60253906 33.38598633 C-24.59067188 54.13342639 -63.51894892 68.42023567 -103.0625 68.0625 C-104.02349609 68.05798828 -104.98449219 68.05347656 -105.97460938 68.04882812 C-108.31647422 68.03717706 -110.65820181 68.02082025 -113 68 C-113.02465622 63.74585377 -113.04283899 59.49174502 -113.05493164 55.23754883 C-113.05997101 53.78929927 -113.06680253 52.34105483 -113.07543945 50.89282227 C-113.08752247 48.81525412 -113.09323211 46.73775303 -113.09765625 44.66015625 C-113.10289307 43.40855713 -113.10812988 42.15695801 -113.11352539 40.86743164 C-113 38 -113 38 -112 37 C-110.31054257 36.81916891 -108.61446593 36.69961541 -106.91796875 36.60546875 C-72.35396549 34.46576751 -25.87885936 25.87885936 0 0 Z " fill="#28B1CC" transform="translate(331,413)"/>
<path d="M0 0 C34.06666266 -1.08723391 70.30991999 9.11744993 97 31 C95.2449216 34.95137763 92.71500276 38.33206542 90.1875 41.8125 C89.76146484 42.40353516 89.33542969 42.99457031 88.89648438 43.60351562 C88.03797229 44.79452256 87.17843907 45.98479412 86.31787109 47.17431641 C84.20025788 50.10790508 82.1007997 53.05435446 80 56 C75.87567384 55.11780909 72.77133634 53.10911362 69.25 50.875 C49.16721475 38.54286086 27.42188745 32.41101569 3.95703125 31.24609375 C1 31 1 31 0 30 C-0.08783542 27.78144736 -0.10694609 25.56011504 -0.09765625 23.33984375 C-0.0962413 22.67537735 -0.09482635 22.01091095 -0.09336853 21.3263092 C-0.08775518 19.19666101 -0.07520054 17.06711661 -0.0625 14.9375 C-0.05748671 13.49674631 -0.05292351 12.05599097 -0.04882812 10.61523438 C-0.03778145 7.07678898 -0.02050792 3.53840461 0 0 Z " fill="#28B1CC" transform="translate(218,91)"/>
<path d="M0 0 C3.35092866 1.62320214 4.99016191 4.58203017 7.00390625 7.59375 C7.88340725 8.86897771 8.76361314 10.14371956 9.64453125 11.41796875 C10.06798828 12.03720215 10.49144531 12.65643555 10.92773438 13.29443359 C13.2257459 16.6172088 15.68487143 19.81541471 18.12890625 23.03125 C16.79278746 26.16892859 15.59061958 27.71678247 12.69921875 29.51171875 C11.99692139 29.94911377 11.29462402 30.38650879 10.57104492 30.8371582 C9.80638916 31.2930835 9.0417334 31.74900879 8.25390625 32.21875 C7.45380127 32.69852295 6.65369629 33.1782959 5.8293457 33.67260742 C-20.22064595 48.94782321 -48.67901652 56.99482693 -78.87109375 56.03125 C-78.89574997 51.77710377 -78.91393274 47.52299502 -78.92602539 43.26879883 C-78.93106476 41.82054927 -78.93789628 40.37230483 -78.9465332 38.92407227 C-78.95861622 36.84650412 -78.96432586 34.76900303 -78.96875 32.69140625 C-78.97398682 31.43980713 -78.97922363 30.18820801 -78.98461914 28.89868164 C-78.87109375 26.03125 -78.87109375 26.03125 -77.87109375 25.03125 C-76.51195822 24.85199246 -75.14497126 24.73146923 -73.77734375 24.63671875 C-49.47102956 22.76295945 -24.47320981 17.12675379 -4.68359375 1.96875 C-1.87109375 0.03125 -1.87109375 0.03125 0 0 Z " fill="#28B1CC" transform="translate(296.87109375,364.96875)"/>
</svg>
