<?xml version="1.0" encoding="UTF-8"?>
<svg version="1.1" xmlns="http://www.w3.org/2000/svg" width="100" height="100">
<path d="M0 0 C3.1925657 1.42855065 5.52863248 2.52863248 8 5 C8.8563027 7.63233792 9.38929927 10.29546818 10 13 C12.31 13.33 14.62 13.66 17 14 C16.01 13.01 15.02 12.02 14 11 C14.33 10.01 14.66 9.02 15 8 C22.72777469 8.1679951 28.05705572 12.52623902 33.70703125 17.50390625 C35 19 35 19 36.4375 22.5625 C37.6545943 26.05154326 37.6545943 26.05154326 40.1875 27.4375 C40.785625 27.623125 41.38375 27.80875 42 28 C41.6875 30.375 41.6875 30.375 41 33 C38 35 38 35 36.03515625 34.7734375 C33.8844064 33.95606999 32.28609655 32.98973571 30.4375 31.625 C29.85871094 31.20476563 29.27992187 30.78453125 28.68359375 30.3515625 C27 29 27 29 25.51953125 27.4453125 C22.827372 24.88464689 19.57048217 23.85167465 16 23 C12.43079423 23.11702314 10.07040019 23.36444988 7 25.1875 C5.75610087 27.08383301 5.75610087 27.08383301 6.0625 29.9375 C7.17170211 33.56089357 7.98107761 34.72273413 11 37 C13.85235939 37.67916898 16.70394444 37.82561757 19.625 38 C28.77374601 38.80952651 36.34206861 39.8995944 43.0625 46.6875 C46.41735884 50.86926067 47.08546249 54.72574348 47 60 C45.68 60.33 44.36 60.66 43 61 C43 63.97 43 66.94 43 70 C41.35 70.33 39.7 70.66 38 71 C37.82984375 70.20335938 37.6596875 69.40671875 37.484375 68.5859375 C36.09762459 62.52259261 34.77257314 57.9433717 31 53 C31 52.34 31 51.68 31 51 C29.9171875 50.566875 29.9171875 50.566875 28.8125 50.125 C27.11361201 49.4454448 25.42455617 48.739346 23.7578125 47.984375 C20.50991537 46.82506894 17.48911641 46.48961282 14.0625 46.125 C7.19843518 45.19878205 3.6630046 44.21397107 -0.8125 38.8125 C-2.70887444 34.32108684 -3.74061177 29.69222386 -2.421875 24.8984375 C-0.63031915 20.63031915 -0.63031915 20.63031915 1 19 C-6.13260521 19.03142117 -12.47647037 20.56810573 -19.1875 22.8125 C-20.30874268 23.1849585 -20.30874268 23.1849585 -21.45263672 23.56494141 C-25.96518651 25.12747518 -30.10462639 26.98856393 -34.2668457 29.3347168 C-36 30 -36 30 -39 29 C-38.84765625 26.7265625 -38.84765625 26.7265625 -38 24 C-35.55859375 22.0859375 -35.55859375 22.0859375 -32.4375 20.375 C-31.35855469 19.78332031 -30.27960937 19.19164063 -29.16796875 18.58203125 C-25.49556674 16.74809437 -21.89864292 15.27455634 -18 14 C-24.52523581 13.77880557 -30.52158456 14.48337047 -36.95703125 15.5546875 C-40.38426047 16.05623324 -43.54850872 16.16053448 -47 16 C-47.33 15.01 -47.66 14.02 -48 13 C-43.64280134 9.95604884 -39.42164428 8.94207274 -34.3125 7.875 C-33.56033203 7.70613281 -32.80816406 7.53726562 -32.03320312 7.36328125 C-26.38476416 6.142257 -20.75652466 5.47297341 -15 5 C-15.60473145 4.9498877 -16.20946289 4.89977539 -16.83251953 4.84814453 C-19.59738164 4.61469552 -22.36113367 4.36994583 -25.125 4.125 C-26.55199219 4.00705078 -26.55199219 4.00705078 -28.0078125 3.88671875 C-32.94633821 3.44087962 -37.35191009 2.86236599 -42 1 C-41.67 0.01 -41.34 -0.98 -41 -2 C-30.74392853 -7.12803574 -10.70456627 -3.10036901 0 0 Z " fill="#1F2633" transform="translate(49,22)"/>
<path d="M0 0 C0.66 0 1.32 0 2 0 C2.66 1.98 3.32 3.96 4 6 C2.7934375 7.175625 2.7934375 7.175625 1.5625 8.375 C-1.63131766 11.64671565 -1.94433606 12.16504097 -2.25 16.75 C-2.18335194 20.83034264 -1.31713297 23.56425112 1 27 C5.01578326 30.00456248 8.37381582 30.46134106 13.3125 30.875 C21.46347505 31.75586622 25.96332393 34.09828731 31.8125 39.6875 C34.60198078 43.9115709 35.81263262 48.11538298 37 53 C35.98854494 46.47837929 34.14943746 41.21339578 30 36 C29.34 35.67 28.68 35.34 28 35 C28 34.34 28 33.68 28 33 C33.84337138 34.25215101 36.73102506 37.21899104 40 42 C40.33 42.99 40.66 43.98 41 45 C41.99 44.67 42.98 44.34 44 44 C43.67 45.65 43.34 47.3 43 49 C42.01 49 41.02 49 40 49 C40 51.97 40 54.94 40 58 C38.35 58.33 36.7 58.66 35 59 C34.82984375 58.20335937 34.6596875 57.40671875 34.484375 56.5859375 C33.09762459 50.52259261 31.77257314 45.9433717 28 41 C28 40.34 28 39.68 28 39 C26.9171875 38.566875 26.9171875 38.566875 25.8125 38.125 C24.11361201 37.4454448 22.42455617 36.739346 20.7578125 35.984375 C17.50991537 34.82506894 14.48911641 34.48961282 11.0625 34.125 C4.19843518 33.19878205 0.6630046 32.21397107 -3.8125 26.8125 C-5.70887444 22.32108684 -6.74061177 17.69222386 -5.421875 12.8984375 C-3.63031915 8.63031915 -3.63031915 8.63031915 -2 7 C-9.13260521 7.03142117 -15.47647037 8.56810573 -22.1875 10.8125 C-22.93499512 11.06080566 -23.68249023 11.30911133 -24.45263672 11.56494141 C-28.96518651 13.12747518 -33.10462639 14.98856393 -37.2668457 17.3347168 C-39 18 -39 18 -42 17 C-41.80859375 14.7109375 -41.80859375 14.7109375 -41 12 C-38.78515625 10.1640625 -38.78515625 10.1640625 -36.0625 8.625 C-35.16660156 8.10164063 -34.27070312 7.57828125 -33.34765625 7.0390625 C-32.57292969 6.69617187 -31.79820313 6.35328125 -31 6 C-30.34 6.33 -29.68 6.66 -29 7 C-30.66666667 8.66666667 -32.33333333 10.33333333 -34 12 C-33.35675781 11.67386719 -32.71351562 11.34773438 -32.05078125 11.01171875 C-21.71914778 6.01539386 -11.51877223 3.29795293 0 4 C0 2.68 0 1.36 0 0 Z " fill="#1F232F" transform="translate(52,34)"/>
<path d="M0 0 C8.97814528 -0.59196562 17.74352292 0.16310186 26 4 C28.05999022 6.73934869 28.99614585 8.98821084 30.0625 12.25 C30.68714055 15.13618706 30.68714055 15.13618706 33 16 C35.20266316 16.38787256 37.41224568 16.73709495 39.625 17.0625 C40.81351563 17.23910156 42.00203125 17.41570313 43.2265625 17.59765625 C44.14179687 17.73042969 45.05703125 17.86320312 46 18 C46 18.66 46 19.32 46 20 C46.9075 20.12375 47.815 20.2475 48.75 20.375 C53.55240027 21.29853851 55.24336851 21.93181436 58.125 26 C59.053125 27.485 59.053125 27.485 60 29 C60.66 29.66 61.32 30.32 62 31 C57.21698781 31 55.76633601 29.80471831 52 27 C51.51917969 26.4946875 51.03835937 25.989375 50.54296875 25.46875 C46.75267674 21.86077583 41.38483459 20.79960412 36.3125 20.5625 C33.21124239 20.69663744 31.81543758 21.09039792 28.9375 22.5 C26.55742464 25.57106498 26.44065372 27.31602188 26.71484375 31.10546875 C27.08544425 33.56767754 27.40852981 35.04683203 29 37 C32.94447061 39.87839747 36.51345236 40.2154724 41.25 40.5 C50.70588357 41.08090752 57.31321941 42.74887345 64.50390625 49.0859375 C66.28747701 51.36779043 66.64324737 53.15575297 67 56 C66.443125 55.2575 65.88625 54.515 65.3125 53.75 C62.05874704 49.88067216 58.62877141 47.05723174 54 45 C54 45.66 54 46.32 54 47 C54.99 47.33 55.98 47.66 57 48 C60.6259519 52.41139549 62.9229233 57.39920114 64 63 C63.5390625 65.203125 63.5390625 65.203125 63 67 C62.67128906 65.82244141 62.67128906 65.82244141 62.3359375 64.62109375 C59.94153062 56.6884043 57.5639371 50.7200542 50.2734375 46.375 C45.49277614 44.36689404 40.78326334 44.17595926 35.65625 43.72265625 C30.43086881 42.68986189 27.12624551 40.65182675 24.125 36.25 C22.76618618 32.32453786 22.24113911 29.10437666 23 25 C26 19.5 26 19.5 29 18 C28.69166645 14.21924332 27.98141315 11.25910022 26 8 C18.25676572 3.43347722 8.82135284 2.0824737 0 1 C0 0.67 0 0.34 0 0 Z " fill="#3676AE" transform="translate(26,22)"/>
<path d="M0 0 C1.38638672 -0.0309375 1.38638672 -0.0309375 2.80078125 -0.0625 C8.15847473 -0.09315919 11.83484521 0.29540197 16.5 3.25 C15.84 3.58 15.18 3.91 14.5 4.25 C14.5 5.57 14.5 6.89 14.5 8.25 C13.50742187 8.33636719 12.51484375 8.42273437 11.4921875 8.51171875 C0.65264803 9.5843955 -9.02269273 11.84129773 -18.7734375 16.97265625 C-20.12308594 17.60494141 -20.12308594 17.60494141 -21.5 18.25 C-22.16 17.92 -22.82 17.59 -23.5 17.25 C-22.38625 16.6725 -21.2725 16.095 -20.125 15.5 C-17.22525966 13.93654449 -17.22525966 13.93654449 -15.5625 11.1875 C-13.74091048 7.86577794 -9.97760132 7.31754273 -6.5 6.25 C-13.22073623 6.13412524 -19.77012132 6.57060013 -26.4609375 7.2265625 C-29.5 7.25 -29.5 7.25 -32.5 5.25 C-29.95906145 4.60118552 -27.41731727 3.95587101 -24.875 3.3125 C-24.16214844 3.13009766 -23.44929688 2.94769531 -22.71484375 2.75976562 C-15.05932454 0.82832729 -7.89353621 0.04403646 0 0 Z " fill="#1F2734" transform="translate(37.5,29.75)"/>
<path d="M0 0 C0 0.66 0 1.32 0 2 C-0.99459229 1.98428955 -0.99459229 1.98428955 -2.00927734 1.96826172 C-15.83486294 1.77958988 -29.30273871 2.04074934 -43 4 C-33.03983465 -2.64011023 -11.2361752 -3.74539173 0 0 Z " fill="#3570A5" transform="translate(51,31)"/>
<path d="M0 0 C0 0.66 0 1.32 0 2 C-0.99257813 2.08636719 -1.98515625 2.17273437 -3.0078125 2.26171875 C-13.84735197 3.3343955 -23.52269273 5.59129773 -33.2734375 10.72265625 C-34.17320313 11.14417969 -35.07296875 11.56570312 -36 12 C-36.66 11.67 -37.32 11.34 -38 11 C-25.35547799 4.32077319 -14.64436622 -0.76479282 0 0 Z " fill="#346EA1" transform="translate(52,36)"/>
</svg>
