<?xml version="1.0" encoding="UTF-8"?>
<svg version="1.1" xmlns="http://www.w3.org/2000/svg" width="512" height="512">
<path d="M0 0 C0.62825684 0.20898926 1.25651367 0.41797852 1.90380859 0.63330078 C17.56903011 5.95063379 30.29706058 14.43576209 42 26 C42.71542969 26.64324219 43.43085938 27.28648438 44.16796875 27.94921875 C59.82145817 42.35292858 71.17807964 66.98129554 72.14526367 88.18457031 C72.16994258 91.87313852 72.18565383 95.56134314 72.1875 99.25 C72.19974609 100.52230469 72.21199219 101.79460937 72.22460938 103.10546875 C72.23585897 110.37270922 71.71253346 116.93326114 70 124 C75.94 124 81.88 124 88 124 C88 81.76 88 39.52 88 -4 C161.92 -4 235.84 -4 312 -4 C311.625 61.125 311.625 61.125 311.39697266 81.62158203 C311.39676599 87.73132942 311.39676599 87.73132942 311.41513062 93.84103394 C311.41439262 96.5472598 311.3916106 99.24436455 311.33578491 101.94918823 C310.35871923 119.71208094 310.35871923 119.71208094 318.16812706 134.80909538 C320.07402049 136.49992127 322.03337634 138.01221826 324.09091187 139.51242065 C325.53091049 140.74377243 325.53091049 140.74377243 327 142 C326.97583609 145.35588779 325.83548937 147.69210535 324.15234375 150.55078125 C323.61577148 151.47407227 323.61577148 151.47407227 323.06835938 152.41601562 C322.69517578 153.04185547 322.32199219 153.66769531 321.9375 154.3125 C321.56044922 154.95767578 321.18339844 155.60285156 320.79492188 156.26757812 C319.86962507 157.84878152 318.93567319 159.4249146 318 161 C318.71285156 161.12117187 319.42570312 161.24234375 320.16015625 161.3671875 C321.59681641 161.61855469 321.59681641 161.61855469 323.0625 161.875 C324.47208984 162.11863281 324.47208984 162.11863281 325.91015625 162.3671875 C329.31537003 163.06458906 332.65784319 164.04509806 336 165 C336 185.46 336 205.92 336 227 C321 231 321 231 318 231 C318.66128906 232.02480469 319.32257813 233.04960937 320.00390625 234.10546875 C320.85754406 235.46566087 321.71036625 236.82636511 322.5625 238.1875 C323.21895508 239.19780273 323.21895508 239.19780273 323.88867188 240.22851562 C324.29794922 240.88916016 324.70722656 241.54980469 325.12890625 242.23046875 C325.51119385 242.83270264 325.89348145 243.43493652 326.28735352 244.05541992 C327.27695869 246.75573003 326.80618346 248.25331501 326 251 C324.39483643 253.1265564 324.39483643 253.1265564 322.29394531 255.25537109 C321.50932922 256.05905121 320.72471313 256.86273132 319.9163208 257.69076538 C319.06221619 258.54304718 318.20811157 259.39532898 317.328125 260.2734375 C316.45355652 261.15657623 315.57898804 262.03971497 314.67791748 262.94961548 C312.35302368 265.28893016 310.01808684 267.61768522 307.68029785 269.9440918 C306.24971781 271.37528231 304.82929803 272.81580927 303.41210938 274.26025391 C300.6909636 277.0302286 297.95033901 279.77934168 295.203125 282.5234375 C294.35711731 283.38786469 293.51110962 284.25229187 292.63946533 285.14291382 C291.8422406 285.92768097 291.04501587 286.71244812 290.22363281 287.52099609 C289.52715637 288.21873138 288.83067993 288.91646667 288.11309814 289.63534546 C286 291 286 291 283.3518219 290.77043152 C281.19461933 290.0637552 279.40014699 289.30102112 277.44921875 288.15234375 C276.83369141 287.79462891 276.21816406 287.43691406 275.58398438 287.06835938 C274.64522461 286.50858398 274.64522461 286.50858398 273.6875 285.9375 C273.04232422 285.56044922 272.39714844 285.18339844 271.73242188 284.79492188 C270.15121848 283.86962507 268.5750854 282.93567319 267 282 C266.87882812 282.71285156 266.75765625 283.42570312 266.6328125 284.16015625 C266.46523438 285.11792969 266.29765625 286.07570313 266.125 287.0625 C265.88136719 288.47208984 265.88136719 288.47208984 265.6328125 289.91015625 C264.93541094 293.31537003 263.95490194 296.65784319 263 300 C250.13 300 237.26 300 224 300 C224.04640625 304.56457031 224.0928125 309.12914062 224.140625 313.83203125 C224.16109156 316.74416373 224.18034913 319.65620606 224.1953125 322.56835938 C224.21911548 327.17881965 224.24710587 331.78895864 224.30175781 336.39916992 C224.34559623 340.12098877 224.369216 343.84246254 224.37950897 347.56451988 C224.38683294 348.97614655 224.40113267 350.38775687 224.42292023 351.79923439 C224.61883809 365.03199961 222.3053495 375.25241606 213 385 C203.83288499 393.75121565 193.84634548 396.63039557 181.37817383 396.45410156 C180.27441406 396.45468567 179.1706543 396.45526978 178.03344727 396.45587158 C174.42430985 396.45310888 170.81602246 396.42210205 167.20703125 396.390625 C164.68926952 396.38315618 162.17150194 396.37746628 159.6537323 396.37347412 C153.72887233 396.3598184 147.80428019 396.32836843 141.87955731 396.28807616 C134.46337825 396.23874968 127.0471608 396.21744686 119.63085938 396.1953125 C106.4204167 396.15253107 93.21023817 396.08434112 80 396 C80 401.28 80 406.56 80 412 C82.578125 411.95359375 85.15625 411.9071875 87.8125 411.859375 C90.33119746 411.82811002 92.84987265 411.80386193 95.36865234 411.78027344 C97.10866089 411.76025478 98.84860299 411.73303114 100.58837891 411.69824219 C103.10075346 411.64929048 105.61223275 411.62693413 108.125 411.609375 C108.89303955 411.58872986 109.6610791 411.56808472 110.45239258 411.54681396 C117.04676278 411.54412224 122.07518488 413.47942206 127.08618164 417.79785156 C128.76194726 419.84092682 130.40903736 421.88979368 132 424 C132.55155762 424.72123047 133.10311523 425.44246094 133.67138672 426.18554688 C148.73991541 447.34350484 144 464.59255897 144 492 C70.08 492 -3.84 492 -80 492 C-80 434.92546584 -80 434.92546584 -61.97094727 416.44848633 C-56.228667 412.22837623 -51.12632399 411.56878075 -44.22265625 411.70703125 C-43.00563271 411.71339851 -43.00563271 411.71339851 -41.76402283 411.71989441 C-39.19649744 411.73656133 -36.62978436 411.77418952 -34.0625 411.8125 C-32.31186037 411.8275624 -30.56120832 411.84124807 -28.81054688 411.85351562 C-24.53980702 411.88386195 -20.27080259 411.94260245 -16 412 C-16 406.72 -16 401.44 -16 396 C-17.39124588 396.00888245 -18.78249176 396.01776489 -20.21589661 396.0269165 C-33.35394247 396.10815096 -46.49193708 396.16803688 -59.6301775 396.20724869 C-66.38400721 396.22781738 -73.13764862 396.25582786 -79.89135742 396.30175781 C-86.41415887 396.34609604 -92.93683852 396.36916623 -99.45978355 396.37950897 C-101.94316363 396.3868758 -104.42653354 396.40126131 -106.90983009 396.42292023 C-110.39950929 396.45213463 -113.8883912 396.45594835 -117.37817383 396.45410156 C-118.39525925 396.46848267 -119.41234467 396.48286377 -120.46025085 396.49768066 C-131.6943129 396.43372898 -140.86393908 392.76693906 -149 385 C-160.40923004 373.04854912 -160.58704461 360.26368559 -160.51757812 344.6484375 C-160.52300534 342.59571843 -160.53013135 340.54300327 -160.53881836 338.49029541 C-160.55698325 332.94070043 -160.55001239 327.39140441 -160.53730202 321.8418045 C-160.52713889 316.02001673 -160.53657688 310.19825368 -160.54284668 304.37646484 C-160.55011344 294.60184152 -160.54056084 284.82733929 -160.52148438 275.05273438 C-160.4997176 263.76970146 -160.50676965 252.48695772 -160.52879 241.20393181 C-160.54697164 231.49743623 -160.54948879 221.79102745 -160.53903532 212.08452034 C-160.53281561 206.29561756 -160.53192284 200.50685048 -160.54518127 194.71795654 C-160.55677936 189.27425422 -160.5486417 183.8309229 -160.52560425 178.38726044 C-160.52033829 176.39553186 -160.5217945 174.4037718 -160.53065491 172.41205597 C-160.58752543 158.32387851 -159.71527083 147.38851795 -150.21875 136.2265625 C-146.84150884 132.83742965 -143.12944789 130.3787504 -139 128 C-137.989375 127.38125 -136.97875 126.7625 -135.9375 126.125 C-134.9784375 125.568125 -134.9784375 125.568125 -134 125 C-134.21112427 124.04818848 -134.21112427 124.04818848 -134.42651367 123.07714844 C-135.98631754 115.42455405 -136.3496293 108.04715278 -136.3125 100.25 C-136.30686035 99.0115332 -136.3012207 97.77306641 -136.29541016 96.49707031 C-135.90925582 67.4016794 -123.65524103 43.18770088 -103.26416016 22.8293457 C-76.92998566 -2.46778496 -34.56398911 -11.81580458 0 0 Z M199.609375 172.6328125 C196.60668826 177.04938572 194.80824052 182.00025663 193 187 C189.04 187.495 189.04 187.495 185 188 C185 193.28 185 198.56 185 204 C187.64 204.33 190.28 204.66 193 205 C193.25652344 205.75023437 193.51304687 206.50046875 193.77734375 207.2734375 C197.9373622 218.39483363 204.15612955 225.88503126 214.4453125 231.84375 C224.46569808 236.37897039 237.08338826 236.95199794 247.4375 233.0625 C257.13721227 228.32574065 264.54557033 220.84188178 269 211 C272.66612935 200.30606561 272.67162494 187.95309573 267.671875 177.71484375 C261.41040301 167.54726657 252.6236482 160.13923346 241 157 C224.0261578 155.54461572 210.90335518 159.31834963 199.609375 172.6328125 Z " fill="#000000" transform="translate(168,12)"/>
<path d="M0 0 C3.32999365 1.46367368 3.79390581 3.11347753 5.203125 6.42578125 C9.26302884 15.14323975 14.68042889 22.27898781 21.078125 29.42578125 C21.5100415 29.91159668 21.94195801 30.39741211 22.38696289 30.89794922 C25.61680331 34.41754218 29.06833996 37.4981878 32.73046875 40.56640625 C48.54253856 54.27046811 48.54253856 54.27046811 49.859375 63.73046875 C50.16376782 69.26455972 49.90008535 74.74543923 49.51513672 80.27001953 C49.03911414 90.90119053 53.62340347 101.14557781 60.20703125 109.30078125 C68.10309869 117.72325318 77.4573153 121.85720282 88.390625 125.05078125 C88.41640625 125.95699219 88.4421875 126.86320312 88.46875 127.796875 C88.93124923 137.73009703 89.80843775 145.06449375 97.328125 151.98828125 C103.14730724 156.88194743 108.3716518 157.36774842 115.71484375 157.38671875 C117.06700737 157.39670395 117.06700737 157.39670395 118.44648743 157.40689087 C120.35191821 157.41699751 122.25738424 157.42170851 124.1628418 157.42138672 C127.05122683 157.4257407 129.93805884 157.46202771 132.82617188 157.5 C147.55616096 157.91264103 147.55616096 157.91264103 160.27026367 151.35888672 C168.12792339 143.18475332 167.81958951 134.39986534 167.7421875 123.6796875 C167.86034335 115.7730918 167.86034335 115.7730918 170.7421875 111.84765625 C173.390625 110.05078125 173.390625 110.05078125 176.390625 109.42578125 C180.62309069 110.30754494 181.82027899 111.55237354 184.390625 115.05078125 C185.05997066 118.96428803 184.99880562 122.8385883 184.953125 126.80078125 C184.88062501 135.85770299 185.33531696 143.22149792 191.35546875 150.390625 C197.46463839 155.33844754 201.71286246 157.5617119 209.69921875 157.359375 C216.95917715 156.52695597 222.53400782 153.79938691 227.13671875 148.125 C231.59358205 140.75243174 231.79403839 134.80874792 231.7265625 126.29296875 C231.73906788 123.78645571 231.75210468 121.27994527 231.765625 118.7734375 C231.76956426 114.83861162 231.76554451 110.90404024 231.75097656 106.96923828 C231.74242416 103.16009466 231.76405119 99.35201833 231.7890625 95.54296875 C231.77571869 94.36580292 231.76237488 93.18863708 231.74862671 91.97579956 C231.82191641 83.89488734 231.82191641 83.89488734 234.56860352 79.81811523 C239.48733877 76.73768228 244.28648272 77.182687 249.953125 77.23828125 C251.12085449 77.24311523 252.28858398 77.24794922 253.49169922 77.25292969 C261.82167177 77.5070842 267.06982544 78.67654113 273.6796875 83.91015625 C275.390625 86.05078125 275.390625 86.05078125 275.390625 90.05078125 C274.53271484 91.81835938 274.53271484 91.81835938 273.3515625 93.58203125 C272.93648438 94.22785156 272.52140625 94.87367188 272.09375 95.5390625 C271.20595457 96.88381146 270.31268177 98.22495976 269.4140625 99.5625 C267.98324487 101.72870495 267.98324487 101.72870495 266.390625 105.05078125 C267.51427336 108.44747562 269.69393847 110.59729915 272.19775391 113.08496094 C272.97841217 113.86546814 273.75907043 114.64597534 274.56338501 115.45013428 C275.40613983 116.28256653 276.24889465 117.11499878 277.1171875 117.97265625 C277.98000336 118.83264221 278.84281921 119.69262817 279.73178101 120.57867432 C282.48840529 123.32410435 285.25190299 126.06249815 288.015625 128.80078125 C289.88587357 130.66099908 291.75567089 132.52167071 293.625 134.3828125 C298.2083186 138.9440807 302.79729978 143.49959136 307.390625 148.05078125 C312.55976666 146.05928761 317.03511594 143.31267893 321.74609375 140.4140625 C323.05513672 139.73923828 323.05513672 139.73923828 324.390625 139.05078125 C326.390625 140.05078125 326.390625 140.05078125 326.98486328 141.81665039 C327.14196777 142.56551514 327.29907227 143.31437988 327.4609375 144.0859375 C327.63496094 144.89482422 327.80898438 145.70371094 327.98828125 146.53710938 C328.24931641 147.81231445 328.24931641 147.81231445 328.515625 149.11328125 C328.78826172 150.39428711 328.78826172 150.39428711 329.06640625 151.70117188 C329.51538842 153.81611421 329.95397851 155.93325772 330.390625 158.05078125 C332.370625 158.05078125 334.350625 158.05078125 336.390625 158.05078125 C336.390625 163.33078125 336.390625 168.61078125 336.390625 174.05078125 C220.230625 174.05078125 104.070625 174.05078125 -15.609375 174.05078125 C-15.609375 12.75203349 -15.609375 12.75203349 -9.42578125 5.484375 C-8.68199219 4.82566406 -7.93820313 4.16695312 -7.171875 3.48828125 C-6.43066406 2.80636719 -5.68945312 2.12445313 -4.92578125 1.421875 C-2.609375 0.05078125 -2.609375 0.05078125 0 0 Z " fill="#68D5F3" transform="translate(39.609375,153.94921875)"/>
<path d="M0 0 C63.36 0 126.72 0 192 0 C192 33 192 66 192 100 C184.125 93.25 184.125 93.25 181 90 C175.96395634 91.80381927 171.91567802 94.6343516 167.5234375 97.63671875 C166.69070313 98.08660156 165.85796875 98.53648438 165 99 C164.01 98.67 163.02 98.34 162 98 C160.02 89.09 160.02 89.09 158 80 C138.2 80 118.4 80 98 80 C96.68 85.94 95.36 91.88 94 98 C93.01 98.495 93.01 98.495 92 99 C88.78085879 97.12656536 85.67957776 95.14358224 82.5859375 93.07226562 C81.93109375 92.65525391 81.27625 92.23824219 80.6015625 91.80859375 C80.00682129 91.41470459 79.41208008 91.02081543 78.79931641 90.61499023 C76.96805949 89.79571239 76.96805949 89.79571239 74.95629883 90.60131836 C72.55717167 92.31660595 71.57475599 94.02204871 70.09765625 96.5703125 C66.0625 102.125 66.0625 102.125 53 112 C35.51 112 18.02 112 0 112 C0 75.04 0 38.08 0 0 Z " fill="#E5E8EC" transform="translate(272,24)"/>
<path d="M0 0 C19.4497318 15.08399899 33.39351218 35.53209906 36.90625 60.25390625 C37.96131908 72.39750413 37.71910479 84.60010009 33.90625 96.25390625 C33.5659375 97.37539062 33.225625 98.496875 32.875 99.65234375 C28.2630501 113.76864986 21.37582492 124.70301802 10.98730469 135.11425781 C8.92217604 137.23753179 6.92052871 139.4117169 4.92631531 141.60148621 C2.96303968 143.74399848 0.96908371 145.85652425 -1.02999878 147.96560669 C-2.02084086 149.02215175 -3.00046349 150.08934609 -3.96780396 151.16744995 C-5.3524874 152.70432269 -6.77645378 154.193178 -8.21484375 155.6796875 C-9.0339624 156.56052002 -9.85308105 157.44135254 -10.69702148 158.34887695 C-14.09375 160.25390625 -14.09375 160.25390625 -27.09375 160.25390625 C-27.09375 139.13390625 -27.09375 118.01390625 -27.09375 96.25390625 C-19.83375 95.92390625 -12.57375 95.59390625 -5.09375 95.25390625 C3.02046901 92.64576443 10.14260763 90.06904674 14.55859375 82.375 C19.20559307 73.28874956 21.94859624 64.94479866 19.22265625 54.6796875 C18.26747552 52.40865613 17.18043309 50.36151728 15.90625 48.25390625 C15.51695312 47.55523437 15.12765625 46.8565625 14.7265625 46.13671875 C10.16513579 38.98418574 2.74755515 35.86767463 -5.09375 33.25390625 C-16.50658925 32.2896636 -24.35750537 34.49284475 -33.3046875 41.55078125 C-41.34341534 49.20336932 -42.40641391 58.56153534 -42.71875 69.12890625 C-42.75742188 70.19882813 -42.79609375 71.26875 -42.8359375 72.37109375 C-42.92977086 74.9984278 -43.01283022 77.62614277 -43.09375 80.25390625 C-48.37375 80.25390625 -53.65375 80.25390625 -59.09375 80.25390625 C-59.11953125 78.69800781 -59.1453125 77.14210938 -59.171875 75.5390625 C-59.22818936 73.46481699 -59.28553592 71.39059932 -59.34375 69.31640625 C-59.35792969 68.29482422 -59.37210937 67.27324219 -59.38671875 66.22070312 C-59.69962585 56.42671093 -62.76909448 47.13070314 -70.09375 40.25390625 C-79.41324489 34.5758034 -87.20618172 32.35400247 -98.09375 33.25390625 C-106.94175608 35.6035285 -114.43512817 41.32335213 -119.0859375 49.12890625 C-122.81786677 56.99778037 -123.55641036 65.14668308 -121.1484375 73.5546875 C-117.51720863 82.72411134 -113.03218908 88.79276848 -104.09375 93.25390625 C-95.50679271 96.42147104 -95.50679271 96.42147104 -75.09375 96.25390625 C-75.09375 117.37390625 -75.09375 138.49390625 -75.09375 160.25390625 C-89.5774501 160.25390625 -89.5774501 160.25390625 -94.11349487 155.78396606 C-94.70252594 155.13724945 -95.29155701 154.49053284 -95.8984375 153.82421875 C-96.55151886 153.15985809 -97.20460022 152.49549744 -97.87747192 151.81100464 C-99.94033272 149.6957184 -101.9529117 147.53894037 -103.96875 145.37890625 C-105.34086189 143.96723915 -106.71584453 142.5583564 -108.09375 141.15234375 C-116.98996466 131.98598669 -124.76024632 122.76509181 -130.34375 111.19140625 C-130.68164551 110.49877686 -131.01954102 109.80614746 -131.36767578 109.0925293 C-141.13815436 88.75208256 -142.22767341 64.819919 -134.91943359 43.48095703 C-130.55555851 31.71062335 -124.21973427 21.76561301 -116.09375 12.25390625 C-115.52140625 11.57972656 -114.9490625 10.90554687 -114.359375 10.2109375 C-85.24646502 -21.2800072 -34.25755926 -24.26577115 0 0 Z " fill="#FDE8A5" transform="translate(187.09375,39.74609375)"/>
<path d="M0 0 C31.68 0 63.36 0 96 0 C96.495 6.435 96.495 6.435 97 13 C99.33123208 20.27344408 102.63134416 24.71865036 109 29 C112.52302565 30.63527954 115.29156488 31.25270513 119.16557312 31.26742554 C120.6939959 31.28022049 120.6939959 31.28022049 122.2532959 31.29327393 C123.36039917 31.29236755 124.46750244 31.29146118 125.6081543 31.29052734 C127.37005852 31.30060318 127.37005852 31.30060318 129.16755676 31.31088257 C132.38274605 31.32661002 135.59778017 31.33323685 138.8130033 31.33451414 C140.82574865 31.33593858 142.83846716 31.34021384 144.85120583 31.34550858 C151.88478937 31.36400302 158.91829724 31.3721804 165.9519043 31.37060547 C172.48835239 31.36940598 179.02446927 31.39047168 185.56083363 31.4220928 C191.18738681 31.44833363 196.81383238 31.45896943 202.4404462 31.45769465 C205.7943543 31.45718705 209.14773497 31.4646219 212.50162315 31.48405075 C216.2496493 31.50372593 219.99683226 31.49786501 223.74487305 31.48583984 C225.39034622 31.50269836 225.39034622 31.50269836 227.06906128 31.51989746 C234.61383105 31.45862933 242.0377992 30.47676084 247.91038036 25.32367516 C255.09964249 17.62100943 255.17265103 10.75553662 256 0 C287.68 0 319.36 0 352 0 C352 33.81132075 352 33.81132075 343.6875 42.4375 C336.49842425 48.50384856 328.07660319 48.43254368 319.17114258 48.38768005 C317.24600311 48.39575836 317.24600311 48.39575836 315.28197193 48.40399987 C311.73532397 48.41841621 308.18890915 48.41422182 304.64224863 48.40683305 C300.8112309 48.40209427 296.9802631 48.41461742 293.14926147 48.42485046 C285.65054325 48.44202917 278.15190886 48.44288051 270.65317607 48.43763756 C264.55788877 48.43359335 258.46262621 48.4350424 252.36734009 48.44038582 C251.49927036 48.44113424 250.63120063 48.44188266 249.73682576 48.44265376 C247.97326588 48.44418526 246.209706 48.44572361 244.44614613 48.44726873 C227.91578693 48.4609901 211.38547508 48.45555835 194.85511696 48.44408352 C179.73577764 48.43414873 164.61656064 48.44709669 149.49724019 48.47101771 C133.96604512 48.49540497 118.43490703 48.50501767 102.9036932 48.49836498 C94.18670531 48.49487229 85.46981154 48.49710827 76.75283813 48.51461601 C69.3333679 48.52933321 61.91405807 48.52997964 54.494591 48.5125451 C50.71024587 48.50402922 46.92618737 48.50189974 43.14185715 48.51719666 C39.03729126 48.53358252 34.93341771 48.51890515 30.82885742 48.50120544 C29.63585935 48.51081045 28.44286127 48.52041546 27.21371174 48.53031152 C19.14566283 48.45863924 13.7720665 47.29307393 7.5390625 41.8515625 C6.59160156 40.74941406 6.59160156 40.74941406 5.625 39.625 C4.97789063 38.89539063 4.33078125 38.16578125 3.6640625 37.4140625 C-3.81388767 26.56576859 0 12.31001736 0 0 Z " fill="#CBD0D8" transform="translate(24,344)"/>
<path d="M0 0 C25.08 0 50.16 0 76 0 C75.34 1.65 74.68 3.3 74 5 C74.65113667 7.04862118 74.65113667 7.04862118 76.0625 8.84765625 C76.76246094 9.87922852 76.76246094 9.87922852 77.4765625 10.93164062 C77.97929687 11.63482422 78.48203125 12.33800781 79 13.0625 C79.99359606 14.4599037 80.97352614 15.86715603 81.9375 17.28515625 C82.37964844 17.90269775 82.82179688 18.52023926 83.27734375 19.15649414 C84 21 84 21 83.38598633 22.99951172 C80.28099876 27.48115134 76.21214028 30.39304883 71 32 C63.01337511 33.1541634 54.85191945 32.65970253 46.8125 32.4375 C44.59835665 32.40233944 42.38415953 32.37040882 40.16992188 32.34179688 C34.77860667 32.26515312 29.38990251 32.14462497 24 32 C24 37.28 24 42.56 24 48 C56.01 48 88.02 48 121 48 C121 53.28 121 58.56 121 64 C118.64875 64.0093457 116.2975 64.01869141 113.875 64.02832031 C106.08768685 64.06215789 98.3006368 64.11774445 90.51353455 64.18390274 C85.79432834 64.2233337 81.0753075 64.25554362 76.35595703 64.27099609 C71.79752443 64.28619161 67.2396016 64.32068828 62.68139648 64.36830902 C60.94641563 64.38309303 59.21136199 64.3910393 57.47631836 64.39188385 C55.03705129 64.39426433 52.59918077 64.42142845 50.16015625 64.45410156 C49.45021011 64.4490712 48.74026398 64.44404083 48.00880432 64.43885803 C41.61341441 64.5705375 36.52092601 66.79089585 31.7578125 70.96484375 C31.21898437 71.61582031 30.68015625 72.26679688 30.125 72.9375 C29.57070313 73.58589844 29.01640625 74.23429687 28.4453125 74.90234375 C25.60218034 79.02872745 24.75070409 82.65672124 24.72875977 87.62890625 C24.71857315 88.73355225 24.70838654 89.83819824 24.69789124 90.97631836 C24.69575119 92.1597583 24.69361115 93.34319824 24.69140625 94.5625 C24.6662541 97.07552323 24.64085597 99.58854401 24.61523438 102.1015625 C24.58645212 106.0582622 24.56242938 110.01491947 24.54370117 113.97167969 C24.52207617 117.79383917 24.4826468 121.61550927 24.44140625 125.4375 C24.44129044 126.62093994 24.44117462 127.80437988 24.4410553 129.02368164 C24.42771652 130.12832764 24.41437775 131.23297363 24.40063477 132.37109375 C24.39556412 133.33974365 24.39049347 134.30839355 24.38526917 135.30639648 C23.92831601 138.50117749 22.88217145 140.39937056 21 143 C18.19084526 144.40457737 16.11189466 144.24895157 13 144 C9.8640843 142.22015595 9.15897264 141.47691793 8 138 C7.89717786 136.24813015 7.84514998 134.49304113 7.82421875 132.73828125 C7.78844727 131.18270508 7.78844727 131.18270508 7.75195312 129.59570312 C7.70937158 127.42662514 7.67791306 125.257297 7.65820312 123.08789062 C7.45017772 115.25549225 6.20435625 109.79237214 1.10546875 103.7578125 C-5.31233114 98.29418652 -11.08098071 96.46527675 -19.515625 96.6953125 C-26.69795986 97.57616489 -30.99190098 101.56494463 -35.5546875 106.90234375 C-38.3749133 110.99548228 -39.24443551 114.63112169 -39.30859375 119.5625 C-39.33373047 120.60664063 -39.35886719 121.65078125 -39.38476562 122.7265625 C-39.41992092 124.90879475 -39.45117122 127.0910934 -39.47851562 129.2734375 C-39.50494141 130.31757813 -39.53136719 131.36171875 -39.55859375 132.4375 C-39.57204834 133.38496094 -39.58550293 134.33242188 -39.59936523 135.30859375 C-40.07699436 138.51723691 -41.06125811 140.41310981 -43 143 C-46.7696881 144.2565627 -50.31717743 144.18175362 -54.24609375 144.203125 C-55.05361588 144.20882507 -55.861138 144.21452515 -56.69313049 144.22039795 C-58.40030612 144.22983834 -60.10749989 144.23637812 -61.81469727 144.24023438 C-64.42431375 144.2499509 -67.03314607 144.2809869 -69.64257812 144.3125 C-71.30207866 144.31902933 -72.96158482 144.32428007 -74.62109375 144.328125 C-75.40036728 144.3404718 -76.17964081 144.3528186 -76.98252869 144.36553955 C-80.22277164 144.35223287 -82.58383795 144.22539875 -85.46118164 142.66699219 C-88.35727372 139.52967397 -88.11020147 136.36712489 -88.0625 132.3125 C-88.05347656 131.31863281 -88.04445312 130.32476562 -88.03515625 129.30078125 C-88.02355469 128.54152344 -88.01195312 127.78226562 -88 127 C-87.24976563 126.78085937 -86.49953125 126.56171875 -85.7265625 126.3359375 C-72.7054206 122.30167943 -61.69880486 116.27850073 -55.0534668 103.93164062 C-50.91814729 95.88500262 -48.38389526 88.48936593 -49.60546875 79.35546875 C-50.58992031 70.59356533 -50.90618127 62.43409114 -45.26025391 55.15966797 C-38.91634243 47.76389815 -31.57362549 41.35153449 -24.28024292 34.91957092 C-16.47552144 27.92991209 -10.61473656 19.65914819 -5.5625 10.5 C-4.92441406 9.3553125 -4.28632813 8.210625 -3.62890625 7.03125 C-2.38043451 4.70795488 -1.17952379 2.35904759 0 0 Z " fill="#68D5F3" transform="translate(232,152)"/>
<path d="M0 0 C11.88 0 23.76 0 36 0 C36.825 2.92875 37.65 5.8575 38.5 8.875 C38.76103516 9.79651855 39.02207031 10.71803711 39.29101562 11.66748047 C39.49404297 12.39338379 39.69707031 13.11928711 39.90625 13.8671875 C40.11572266 14.61081543 40.32519531 15.35444336 40.54101562 16.12060547 C41 18 41 18 41 20 C46.22011193 21.77483806 48.3016713 21.94972145 54 21 C60.93 17.04 60.93 17.04 68 13 C76.25 21.25 84.5 29.5 93 38 C90.36 42.62 87.72 47.24 85 52 C83.97529156 58.14825063 83.73825346 59.90997467 87 65 C89.75479503 66.3874136 92.53493109 66.87752395 95.5625 67.375 C97.10571764 67.67319399 98.64869861 67.97261617 100.19140625 68.2734375 C101.44824219 68.51320313 102.70507812 68.75296875 104 69 C104.66 69.33 105.32 69.66 106 70 C106 81.88 106 93.76 106 106 C101.606875 107.2375 101.606875 107.2375 97.125 108.5 C95.74272217 108.89155273 95.74272217 108.89155273 94.33251953 109.29101562 C93.60661621 109.49404297 92.88071289 109.69707031 92.1328125 109.90625 C91.01737061 110.22045898 91.01737061 110.22045898 89.87939453 110.54101562 C88 111 88 111 86 111 C84.22516194 116.22011193 84.05027855 118.3016713 85 124 C87.64 128.62 90.28 133.24 93 138 C84.75 146.25 76.5 154.5 68 163 C63.38 160.36 58.76 157.72 54 155 C47.85174937 153.97529156 46.09002533 153.73825346 41 157 C39.6125864 159.75479503 39.12247605 162.53493109 38.625 165.5625 C38.32680601 167.10571764 38.02738383 168.64869861 37.7265625 170.19140625 C37.48679687 171.44824219 37.24703125 172.70507812 37 174 C36.67 174.66 36.34 175.32 36 176 C24.12 176 12.24 176 0 176 C-0.825 173.07125 -1.65 170.1425 -2.5 167.125 C-2.76103516 166.20348145 -3.02207031 165.28196289 -3.29101562 164.33251953 C-3.49404297 163.60661621 -3.69707031 162.88071289 -3.90625 162.1328125 C-4.22045898 161.01737061 -4.22045898 161.01737061 -4.54101562 159.87939453 C-5 158 -5 158 -5 156 C-10.22011193 154.22516194 -12.3016713 154.05027855 -18 155 C-22.62 157.64 -27.24 160.28 -32 163 C-40.25 154.75 -48.5 146.5 -57 138 C-51 127 -51 127 -48 122 C-48.2483449 118.398999 -48.86068384 115.41794848 -50 112 C-37.42346768 110.81353469 -37.42346768 110.81353469 -32 112 C-28.70931925 114.80871236 -27.57789413 118.0436625 -26 122 C-18.75990915 132.90323205 -5.56984879 139.65336579 6.87597656 142.60083008 C22.12488632 145.46657346 36.94711804 141.95239814 49.86328125 133.51953125 C50.56839844 133.01808594 51.27351563 132.51664063 52 132 C52.94939453 131.32517578 52.94939453 131.32517578 53.91796875 130.63671875 C64.02234396 122.71827901 70.38509072 109.86672653 72.71875 97.390625 C74.67526363 80.76025915 70.93109791 66.0163453 61.15234375 52.43359375 C54.03739302 43.7992285 44.51775685 38.4893816 34 35 C32.92492187 34.64292969 31.84984375 34.28585938 30.7421875 33.91796875 C15.76783912 30.24472045 0.70319064 33.65736999 -12.4375 41.31640625 C-21.35871808 47.17775532 -27.2329635 54.46592699 -32 64 C-37.94 64 -43.88 64 -50 64 C-49.34 62.02 -48.68 60.04 -48 58 C-48.93882645 50.22936546 -48.93882645 50.22936546 -57 38 C-48.75 29.75 -40.5 21.5 -32 13 C-25.07 16.96 -25.07 16.96 -18 21 C-12.3016713 21.94972145 -10.22011193 21.77483806 -5 20 C-4.72285156 18.72382813 -4.44570313 17.44765625 -4.16015625 16.1328125 C-3.79441043 14.46351107 -3.42851738 12.7942419 -3.0625 11.125 C-2.78889648 9.86236328 -2.78889648 9.86236328 -2.50976562 8.57421875 C-2.33251953 7.76855469 -2.15527344 6.96289062 -1.97265625 6.1328125 C-1.81031494 5.38918457 -1.64797363 4.64555664 -1.48071289 3.87939453 C-1 2 -1 2 0 0 Z " fill="#FCC428" transform="translate(382,120)"/>
<path d="M0 0 C63.36 0 126.72 0 192 0 C192 5.28 192 10.56 192 16 C128.64 16 65.28 16 0 16 C0 10.72 0 5.44 0 0 Z " fill="#969FAA" transform="translate(104,472)"/>
<path d="M0 0 C21.12 0 42.24 0 64 0 C64 15.84 64 31.68 64 48 C42.88 48 21.76 48 0 48 C0 32.16 0 16.32 0 0 Z " fill="#AAB2BD" transform="translate(168,408)"/>
<path d="M0 0 C21.12 0 42.24 0 64 0 C64 26.01333333 64 26.01333333 59 34 C58.38318359 35.01900391 58.38318359 35.01900391 57.75390625 36.05859375 C53.14121986 42.42327972 45.26572269 45.57809244 38 48 C29.77462485 48.69494167 23.1166797 48.32953898 16 44 C14.95199219 43.38125 14.95199219 43.38125 13.8828125 42.75 C6.24454422 37.67703692 2.83744975 30.51234925 0 22 C0 14.74 0 7.48 0 0 Z " fill="#A9B0BB" transform="translate(104,216)"/>
<path d="M0 0 C52.8 0 105.6 0 160 0 C160 5.28 160 10.56 160 16 C107.2 16 54.4 16 0 16 C0 10.72 0 5.44 0 0 Z " fill="#000000" transform="translate(288,72)"/>
<path d="M0 0 C42.24 0 84.48 0 128 0 C128 5.28 128 10.56 128 16 C85.76 16 43.52 16 0 16 C0 10.72 0 5.44 0 0 Z " fill="#000000" transform="translate(320,40)"/>
<path d="M0 0 C5.28 0 10.56 0 16 0 C16 21.12 16 42.24 16 64 C10.72 64 5.44 64 0 64 C0 42.88 0 21.76 0 0 Z " fill="#FFEAA7" transform="translate(128,136)"/>
<path d="M0 0 C4.98669007 2.49334503 8.49675474 5.99350949 11 11 C11.08400529 12.59447464 11.10727467 14.19240545 11.09765625 15.7890625 C11.09443359 16.73007813 11.09121094 17.67109375 11.08789062 18.640625 C11.07532227 20.11789063 11.07532227 20.11789063 11.0625 21.625 C11.05798828 22.61757812 11.05347656 23.61015625 11.04882812 24.6328125 C11.03702145 27.0886016 11.020554 29.54427104 11 32 C7.62529496 32.11689626 4.2511157 32.18747934 0.875 32.25 C-0.07632813 32.28351563 -1.02765625 32.31703125 -2.0078125 32.3515625 C-7.88815352 32.4332339 -11.37919867 32.02763982 -16 28 C-20.39893104 23.00661882 -21.35676337 20.08984773 -21.28125 13.5390625 C-20.73016315 8.56397287 -17.99302299 5.87480597 -14.375 2.6875 C-9.71860985 -0.62098774 -5.60468123 -0.62082623 0 0 Z " fill="#F7D36D" transform="translate(101,88)"/>
<path d="M0 0 C4.98669007 2.49334503 8.49675474 5.99350949 11 11 C11.54360446 15.95482094 11.56437074 19.87125852 9.3125 24.375 C6.18921832 27.92034678 3.51818411 30.49393863 -1 32 C-2.55421729 32.08106686 -4.11167027 32.10756898 -5.66796875 32.09765625 C-6.56064453 32.09443359 -7.45332031 32.09121094 -8.37304688 32.08789062 C-9.76620117 32.07532227 -9.76620117 32.07532227 -11.1875 32.0625 C-12.59805664 32.05573242 -12.59805664 32.05573242 -14.03710938 32.04882812 C-16.35813712 32.03704626 -18.67903644 32.02059558 -21 32 C-21.11689626 28.62529496 -21.18747934 25.2511157 -21.25 21.875 C-21.28351563 20.92367187 -21.31703125 19.97234375 -21.3515625 18.9921875 C-21.4332339 13.11184648 -21.02763982 9.62080133 -17 5 C-11.37343316 0.04326255 -7.41017624 -0.82081952 0 0 Z " fill="#F7D36E" transform="translate(181,88)"/>
<path d="M0 0 C4.6097266 -0.11505141 9.21444212 -0.21448773 13.82446289 -0.2746582 C15.39104114 -0.29974547 16.95750299 -0.33382415 18.52368164 -0.37719727 C20.78040309 -0.43811226 23.03557294 -0.46626499 25.29296875 -0.48828125 C25.98899704 -0.51408768 26.68502533 -0.5398941 27.40214539 -0.56648254 C30.86792243 -0.56846475 32.80403945 -0.13530652 35.66918945 1.84301758 C38 5 38 5 43 16 C28.81 16 14.62 16 0 16 C0 10.72 0 5.44 0 0 Z " fill="#A9B1BC" transform="translate(248,440)"/>
<path d="M0 0 C0.72822464 0.0028299 1.45644928 0.00565979 2.20674133 0.00857544 C4.52992262 0.01975993 6.85271672 0.04486084 9.17578125 0.0703125 C10.75194755 0.08034456 12.3281199 0.08947002 13.90429688 0.09765625 C17.76589376 0.11799115 21.6266547 0.15714156 25.48828125 0.1953125 C25.48828125 5.4753125 25.48828125 10.7553125 25.48828125 16.1953125 C11.29828125 16.1953125 -2.89171875 16.1953125 -17.51171875 16.1953125 C-9.3457732 -0.13657859 -9.3457732 -0.13657859 0 0 Z " fill="#A9B1BC" transform="translate(126.51171875,439.8046875)"/>
<path d="M0 0 C10.56 0 21.12 0 32 0 C32 5.28 32 10.56 32 16 C21.44 16 10.88 16 0 16 C0 10.72 0 5.44 0 0 Z " fill="#FF826E" transform="translate(184,344)"/>
<path d="M0 0 C10.56 0 21.12 0 32 0 C32 5.28 32 10.56 32 16 C27.58296833 16.08079936 23.16740904 16.14041087 18.75 16.1875 C17.49574219 16.21263672 16.24148437 16.23777344 14.94921875 16.26367188 C13.74394531 16.27333984 12.53867188 16.28300781 11.296875 16.29296875 C10.18666992 16.3086792 9.07646484 16.32438965 7.93261719 16.34057617 C4.64999084 15.95935208 3.31802002 15.31835911 1 13 C0 10 0 10 0 0 Z " fill="#FD816D" transform="translate(136,344)"/>
<path d="M0 0 C10.56 0 21.12 0 32 0 C32 11.55555556 32 11.55555556 29 15 C25.76248322 16.07917226 23.42248229 16.11425601 20.01953125 16.09765625 C18.85615234 16.09443359 17.69277344 16.09121094 16.49414062 16.08789062 C15.27919922 16.07951172 14.06425781 16.07113281 12.8125 16.0625 C11.58595703 16.05798828 10.35941406 16.05347656 9.09570312 16.04882812 C6.06378135 16.03703076 3.0318846 16.01909514 0 16 C0 10.72 0 5.44 0 0 Z " fill="#FE816D" transform="translate(232,344)"/>
<path d="M0 0 C5.28 0 10.56 0 16 0 C16 5.28 16 10.56 16 16 C10.72 16 5.44 16 0 16 C0 10.72 0 5.44 0 0 Z " fill="#000000" transform="translate(40,296)"/>
<path d="M0 0 C5.28 0 10.56 0 16 0 C16 5.28 16 10.56 16 16 C10.72 16 5.44 16 0 16 C0 10.72 0 5.44 0 0 Z " fill="#000000" transform="translate(40,264)"/>
<path d="M0 0 C5.28 0 10.56 0 16 0 C16 5.28 16 10.56 16 16 C10.72 16 5.44 16 0 16 C0 10.72 0 5.44 0 0 Z " fill="#000000" transform="translate(40,232)"/>
<path d="M0 0 C5.28 0 10.56 0 16 0 C16 5.28 16 10.56 16 16 C10.72 16 5.44 16 0 16 C0 10.72 0 5.44 0 0 Z " fill="#000000" transform="translate(224,184)"/>
<path d="M0 0 C5.28 0 10.56 0 16 0 C16 5.28 16 10.56 16 16 C10.72 16 5.44 16 0 16 C0 10.72 0 5.44 0 0 Z " fill="#000000" transform="translate(320,104)"/>
<path d="M0 0 C5.28 0 10.56 0 16 0 C16 5.28 16 10.56 16 16 C10.72 16 5.44 16 0 16 C0 10.72 0 5.44 0 0 Z " fill="#000000" transform="translate(288,104)"/>
<path d="M0 0 C5.28 0 10.56 0 16 0 C16 5.28 16 10.56 16 16 C10.72 16 5.44 16 0 16 C0 10.72 0 5.44 0 0 Z " fill="#000000" transform="translate(288,40)"/>
</svg>
