<?xml version="1.0" encoding="UTF-8"?>
<svg version="1.1" xmlns="http://www.w3.org/2000/svg" width="1200" height="1200">
<path d="M0 0 C396 0 792 0 1200 0 C1200 396 1200 792 1200 1200 C804 1200 408 1200 0 1200 C0 804 0 408 0 0 Z " fill="#1E1E1E" transform="translate(0,0)"/>
<path d="M0 0 C17.64655593 -0.65175433 36.05099272 2.806048 49.76220703 14.83251953 C50.84554036 15.91585286 51.9288737 16.9991862 53.01220703 18.08251953 C54.66220703 19.40251953 56.31220703 20.72251953 58.01220703 22.08251953 C58.34220703 16.47251953 58.67220703 10.86251953 59.01220703 5.08251953 C79.80220703 5.08251953 100.59220703 5.08251953 122.01220703 5.08251953 C122.01220703 94.84251953 122.01220703 184.60251953 122.01220703 277.08251953 C66.90220703 277.08251953 11.79220703 277.08251953 -44.98779297 277.08251953 C-44.98779297 267.08251953 -44.98779297 267.08251953 -43.26513672 264.19970703 C-42.10691406 263.08982422 -42.10691406 263.08982422 -40.92529297 261.95751953 C-39.68585938 260.71615234 -39.68585938 260.71615234 -38.42138672 259.44970703 C-37.61830078 258.66853516 -36.81521484 257.88736328 -35.98779297 257.08251953 C-34.80592519 255.76264172 -33.63789435 254.43016774 -32.48779297 253.08251953 C-29.90125985 250.10860242 -27.26585172 247.1847121 -24.61279297 244.27001953 C-21.4835647 240.80721871 -18.48278948 237.2757295 -15.55029297 233.64501953 C-14.84262787 232.78987259 -14.13496277 231.93472565 -13.40585327 231.05366516 C-11.84034421 229.13007566 -10.31806654 227.17013381 -8.85049438 225.17082214 C-2.91775219 217.6614926 -2.91775219 217.6614926 2.21734619 216.1210022 C5.89760916 215.81349145 9.42457698 215.84217735 13.11376953 216.00830078 C14.43138275 216.0238652 15.74899597 216.03942963 17.10653687 216.0554657 C20.57763505 216.09708818 24.04351209 216.20475432 27.51257324 216.32720947 C31.06510512 216.44059249 34.61852272 216.49076063 38.17236328 216.54541016 C45.12355936 216.65687248 52.06050157 216.87205505 59.01220703 217.08251953 C58.68220703 200.58251953 58.35220703 184.08251953 58.01220703 167.08251953 C55.04220703 169.72251953 52.07220703 172.36251953 49.01220703 175.08251953 C29.55334766 189.27078096 7.10310183 191.50773388 -16.37841797 188.65673828 C-33.73752466 185.36658201 -48.4592021 176.21526235 -60.98779297 164.08251953 C-61.75220703 163.34388672 -62.51662109 162.60525391 -63.30419922 161.84423828 C-80.75349416 143.78801134 -86.55747139 119.31208362 -86.33886719 94.84179688 C-85.60150128 66.85798732 -73.99195344 41.23921047 -53.73779297 21.89501953 C-44.57499817 13.84402828 -34.37520773 8.31259027 -22.98779297 4.08251953 C-22.21951172 3.77443359 -21.45123047 3.46634766 -20.65966797 3.14892578 C-13.87756046 0.59953645 -7.18311351 0.29819361 0 0 Z " fill="#FDFDFD" transform="translate(376.98779296875,514.91748046875)"/>
<path d="M0 0 C21.12 0 42.24 0 64 0 C64.33 57.42 64.66 114.84 65 174 C67.475 171.525 67.475 171.525 70 169 C71.42348511 167.72447807 72.85609301 166.45907616 74.296875 165.203125 C81.92752852 158.37569817 89.04679194 151.02181004 96.25 143.75 C99.08558805 140.88767313 101.92458061 138.02878502 104.765625 135.171875 C105.72205902 134.20299347 105.72205902 134.20299347 106.69781494 133.21453857 C110.3132775 129.57943132 114.02459111 126.2367301 118 123 C120.58324923 120.53976263 122.91209234 118.11117734 125.125 115.3125 C127 113 127 113 130 111 C132.71876211 110.81579243 135.33344965 110.74772012 138.05151367 110.77294922 C138.87125168 110.77265717 139.69098969 110.77236511 140.53556824 110.77206421 C143.24647589 110.77345812 145.95710908 110.78902219 148.66796875 110.8046875 C150.54698028 110.80841741 152.42599376 110.81126449 154.30500793 110.81326294 C159.25179408 110.82090111 164.19846287 110.84055121 169.14520264 110.8626709 C174.19248873 110.88312534 179.23979378 110.8922638 184.28710938 110.90234375 C194.19145782 110.9237969 204.09571915 110.9579351 214 111 C213.23196154 115.92433169 211.80559662 117.52913878 208 120.8125 C206.90737177 121.77305599 205.81632062 122.73540783 204.7265625 123.69921875 C204.13133789 124.22177246 203.53611328 124.74432617 202.92285156 125.28271484 C199.33540368 128.48663922 195.86455187 131.81529011 192.375 135.125 C186.9414188 140.2587891 181.47609979 145.34088015 175.8828125 150.30078125 C173.9957171 151.95822806 173.9957171 151.95822806 172.3671875 153.73046875 C171 155 171 155 169 155 C169 155.66 169 156.32 169 157 C167.51586914 158.47827148 167.51586914 158.47827148 165.47265625 160.18359375 C160.62720584 164.30504806 156.00832259 168.6321545 151.38671875 173.0012207 C147.83388423 176.35461949 144.26250911 179.67939079 140.62890625 182.9453125 C139.93547119 183.57429443 139.24203613 184.20327637 138.52758789 184.85131836 C137.20000095 186.05357982 135.8647818 187.24747953 134.52124023 188.43188477 C132.937607 189.8748078 131.45836782 191.43057831 130 193 C129.618261 196.773195 129.618261 196.773195 131.09854126 198.5728302 C131.61339081 199.0757811 132.12824036 199.57873199 132.65869141 200.09692383 C133.23994781 200.67465042 133.82120422 201.25237701 134.42007446 201.84761047 C135.05746552 202.46121933 135.69485657 203.07482819 136.3515625 203.70703125 C137.00321381 204.35065109 137.65486511 204.99427094 138.32626343 205.65739441 C140.41662482 207.7187269 142.52009767 209.76602711 144.625 211.8125 C146.7059209 213.85070192 148.78395825 215.89175752 150.85946655 217.93547058 C152.15135828 219.20593864 153.44675033 220.47286094 154.74624634 221.73554993 C158.23410771 225.14794193 161.47778845 228.66484816 164.62059021 232.39628601 C166.62613405 234.72794897 168.79942879 236.85175282 171 239 C172.45442478 240.44669279 173.90747011 241.89477289 175.35961914 243.34375 C176.1872023 244.16810547 177.01478546 244.99246094 177.8674469 245.84179688 C181.12366065 249.0864073 184.37802305 252.3328705 187.63176823 255.57995605 C190.09604824 258.03900678 192.56126209 260.49710649 195.02856445 262.953125 C197.88771836 265.79929498 200.74277969 268.64953957 203.59765625 271.5 C204.48002457 272.37720703 205.36239288 273.25441406 206.27149963 274.15820312 C207.50814613 275.39473633 207.50814613 275.39473633 208.76977539 276.65625 C209.49193741 277.37619141 210.21409943 278.09613281 210.95814514 278.83789062 C213 281 213 281 215.13938904 283.70898438 C216.79497886 286.06930982 216.79497886 286.06930982 219 287 C219 288.65 219 290.3 219 292 C207.92544788 292.18566347 196.85126816 292.32766008 185.77547455 292.41449738 C180.63198228 292.45618363 175.48955756 292.51269037 170.34667969 292.60351562 C165.37990389 292.69067819 160.41415233 292.73832348 155.44667053 292.75901794 C153.55517965 292.77375783 151.66374254 292.80254327 149.77268982 292.84584045 C134.98405613 293.17085727 134.98405613 293.17085727 130.01098633 290.23608398 C127.95399139 288.24872631 126.38245448 286.49853242 125 284 C125 283.34 125 282.68 125 282 C124.01 281.67 123.02 281.34 122 281 C120.4921875 279.46875 120.4921875 279.46875 118.875 277.5 C116.20785079 274.34893765 113.44435078 271.39410589 110.5 268.5 C107.83730372 265.87292508 105.2873525 263.23270989 102.875 260.375 C98.68886786 255.48135257 94.05776216 251.03296262 89.4855957 246.50512695 C85.67409588 242.71643625 82.01356355 238.87561658 78.546875 234.765625 C76.13985093 232.01821368 73.51861202 229.49560226 70.89453125 226.95703125 C68.78045081 224.77320795 66.89874621 222.37343277 65 220 C64.67 243.76 64.34 267.52 64 292 C42.88 292 21.76 292 0 292 C0 195.64 0 99.28 0 0 Z " fill="#FDFDFD" transform="translate(901,409)"/>
<path d="M0 0 C0.80695313 0.67675781 1.61390625 1.35351562 2.4453125 2.05078125 C18.57295248 15.93436123 29.99592918 34.71604509 33 56 C33.18808114 60.22155231 33.1858156 64.44026855 33.18530273 68.66577148 C33.1874751 70.66459254 33.20594797 72.66337425 33.22460938 74.66210938 C33.26308622 100.35181607 23.62455666 121.81667346 6.0625 140.3125 C-2.63843318 148.56368316 -12.41078009 154.06754319 -23.16503906 159.12451172 C-24.73783265 159.8749159 -26.2893869 160.66955766 -27.8359375 161.47265625 C-41.36241546 168.27751516 -56.23653287 169.65602395 -71.14160156 169.46655273 C-73.63153397 169.43742356 -76.11934181 169.44604597 -78.609375 169.45898438 C-107.81019217 169.42101566 -134.30949019 159.94649632 -155.6875 139.75 C-174.71921883 119.8594491 -182.09454851 95.71947753 -182.25 68.6875 C-182.25926514 67.6857373 -182.26853027 66.68397461 -182.27807617 65.65185547 C-182.18057231 42.53005635 -171.10816915 21.91496621 -155.125 5.75 C-115.97074587 -32.81124224 -42.03207218 -37.19441859 0 0 Z " fill="#FDFDFD" transform="translate(849,538)"/>
<path d="M0 0 C1.08319016 -0.00669708 2.16638031 -0.01339417 3.28239441 -0.02029419 C5.57623131 -0.02505129 7.87016325 -0.01217786 10.16381836 0.01708984 C13.61992411 0.05417201 17.06949747 0.01765679 20.52539062 -0.02734375 C41.12998038 -0.07280366 56.39678184 4.85141851 71.4140625 19.41015625 C85.89866366 34.75098999 87.03515368 51.3919475 86.96899414 71.6965332 C86.96914017 72.89812073 86.96928619 74.09970825 86.96943665 75.33770752 C86.96886531 78.58685192 86.96390064 81.83595146 86.95686269 85.08508706 C86.95054947 88.4976559 86.95001912 91.91022591 86.94883728 95.32279968 C86.94574721 101.76453947 86.93756561 108.20626199 86.92748779 114.64799422 C86.91514886 122.71259177 86.9097256 130.77719222 86.90429688 138.84179688 C86.89459848 153.20444048 86.87455954 167.56704649 86.85546875 181.9296875 C66.06546875 181.9296875 45.27546875 181.9296875 23.85546875 181.9296875 C23.85546875 141.9996875 23.85546875 102.0696875 23.85546875 60.9296875 C2.73546875 60.9296875 -18.38453125 60.9296875 -40.14453125 60.9296875 C-40.14453125 101.1896875 -40.14453125 141.4496875 -40.14453125 182.9296875 C-61.26453125 182.9296875 -82.38453125 182.9296875 -104.14453125 182.9296875 C-104.14453125 123.1996875 -104.14453125 63.4696875 -104.14453125 1.9296875 C-83.35453125 1.9296875 -62.56453125 1.9296875 -41.14453125 1.9296875 C-41.14453125 12.8196875 -41.14453125 23.7096875 -41.14453125 34.9296875 C-40.48453125 34.9296875 -39.82453125 34.9296875 -39.14453125 34.9296875 C-38.81453125 33.6096875 -38.48453125 32.2896875 -38.14453125 30.9296875 C-37.48453125 30.9296875 -36.82453125 30.9296875 -36.14453125 30.9296875 C-35.91121094 30.37796875 -35.67789063 29.82625 -35.4375 29.2578125 C-33.80433841 26.31713483 -31.75113918 24.13891499 -29.45703125 21.6796875 C-22.30212965 14.32347754 -22.30212965 14.32347754 -16.05140686 6.23123169 C-11.63326435 -0.02909243 -7.31596306 -0.10052157 0 0 Z " fill="#FDFDFD" transform="translate(185.14453125,519.0703125)"/>
<path d="M0 0 C21.12 0 42.24 0 64 0 C64.495 14.355 64.495 14.355 65 29 C77.19496576 16.48990007 77.19496576 16.48990007 88.15837097 2.92953491 C90.29653424 0.38093457 90.82411623 0.0389429 94.25874329 -0.7215271 C95.49118271 -0.70820343 96.72362213 -0.69487976 97.9934082 -0.68115234 C98.67688828 -0.6820285 99.36036835 -0.68290466 100.06455994 -0.68380737 C102.31115283 -0.67964556 104.55471396 -0.63307193 106.80078125 -0.5859375 C108.36303578 -0.57474007 109.92531144 -0.56620246 111.4875946 -0.56021118 C115.58988106 -0.53735509 119.69088298 -0.4784622 123.79266357 -0.4119873 C127.98204166 -0.35049371 132.17162833 -0.32318123 136.36132812 -0.29296875 C144.57480677 -0.22871356 152.78724338 -0.12637582 161 0 C161 4 161 4 158.8046875 6.41796875 C157.87914062 7.27003906 156.95359375 8.12210938 156 9 C150.82115771 14.5701696 145.75459459 20.24046127 140.76953125 25.984375 C138.74885044 28.28607764 136.68687382 30.54764379 134.625 32.8125 C131.49577173 36.27530082 128.49499651 39.80679003 125.5625 43.4375 C120.90038721 49.12144573 115.94506174 54.56043209 111 60 C95.49 60 79.98 60 64 60 C64 99.93 64 139.86 64 181 C42.88 181 21.76 181 0 181 C0 121.27 0 61.54 0 0 Z " fill="#FCFCFC" transform="translate(525,520)"/>
<path d="M0 0 C9.09789071 7.76519188 14.54531438 17.56896066 16.4296875 29.40625 C16.97629663 40.16158838 12.93825319 51.6980874 5.875 59.78125 C5.25625 60.41675781 4.6375 61.05226563 4 61.70703125 C3.38125 62.35285156 2.7625 62.99867188 2.125 63.6640625 C-2.66818503 68.25431026 -7.70370194 70.71534513 -14 72.70703125 C-14.60199219 72.89910156 -15.20398438 73.09117187 -15.82421875 73.2890625 C-26.70248142 75.37878262 -37.73794285 74.10482153 -47.23828125 68.3515625 C-51.88415298 65.08807822 -55.5371096 61.18120823 -59 56.70703125 C-59.5053125 56.07152344 -60.010625 55.43601562 -60.53125 54.78125 C-67.0151475 45.62446922 -67.79393708 33.51232222 -66 22.70703125 C-62.79372746 11.32891187 -55.79793561 2.66286212 -45.8671875 -3.6484375 C-31.24009227 -11.59295785 -13.35759143 -9.69898643 0 0 Z " fill="#1F1F1F" transform="translate(800,577.29296875)"/>
<path d="M0 0 C1.54913844 1.17773616 3.09193204 2.36391959 4.625 3.5625 C5.98625 4.4596875 5.98625 4.4596875 7.375 5.375 C15.17264848 12.95604713 18.60856091 22.70766733 18.8125 33.3125 C18.61837876 46.43186044 14.76332726 55.35133947 5.6875 65 C1.99027618 68.47723545 -1.64537022 70.75616538 -6.375 72.5625 C-7.13554687 72.86027344 -7.89609375 73.15804687 -8.6796875 73.46484375 C-20.0273276 77.39845062 -30.35737452 75.92711642 -41.375 71.5625 C-51.44254164 66.24379876 -58.4583117 56.87786617 -62.1875 46.24609375 C-65.17907301 34.63297351 -63.38517065 23.64713481 -57.5 13.25 C-56.448125 11.9196875 -56.448125 11.9196875 -55.375 10.5625 C-54.95605469 10.00175781 -54.53710938 9.44101562 -54.10546875 8.86328125 C-41.13654041 -7.60690047 -17.47463106 -12.02832803 0 0 Z " fill="#1F1F1F" transform="translate(420.375,575.4375)"/>
</svg>
