<?xml version="1.0" encoding="UTF-8"?>
<svg version="1.1" xmlns="http://www.w3.org/2000/svg" width="48" height="48">
<path d="M0 0 C0.86367188 -0.00257812 1.72734375 -0.00515625 2.6171875 -0.0078125 C5.125 0.125 5.125 0.125 7.3203125 0.6953125 C9.21099617 1.34959352 9.21099617 1.34959352 11.125 0.125 C12.78944461 0.0294069 14.45781963 -0.00484645 16.125 0 C17.011875 -0.00257812 17.89875 -0.00515625 18.8125 -0.0078125 C21.125 0.125 21.125 0.125 23.125 1.125 C23.375 7.75 23.375 7.75 21.125 11.125 C20.465 11.125 19.805 11.125 19.125 11.125 C19.56972656 11.83785156 20.01445313 12.55070313 20.47265625 13.28515625 C25.10843556 21.13113353 25.10843556 21.13113353 25.1875 25.875 C24.6615625 27.48375 24.6615625 27.48375 24.125 29.125 C23.795 30.300625 23.465 31.47625 23.125 32.6875 C20.1044987 37.87898661 15.87709117 40.97610387 10.109375 42.7421875 C4.57511018 43.30461279 0.53480707 40.43925278 -3.7265625 37.1875 C-6.87562365 34.16440129 -8.28368135 31.43562724 -8.875 27.125 C-8.875 20.85358169 -6.07081223 16.3255653 -2.875 11.125 C-3.865 10.795 -4.855 10.465 -5.875 10.125 C-7.3533226 7.16835481 -6.93532783 4.38270263 -6.875 1.125 C-4.41490037 -0.10504981 -2.74327194 -0.00814027 0 0 Z " fill="#534656" transform="translate(15.875,2.875)"/>
<path d="M0 0 C0.86367188 -0.00257812 1.72734375 -0.00515625 2.6171875 -0.0078125 C5.125 0.125 5.125 0.125 7.3203125 0.6953125 C9.21099617 1.34959352 9.21099617 1.34959352 11.125 0.125 C12.78944461 0.0294069 14.45781963 -0.00484645 16.125 0 C17.011875 -0.00257812 17.89875 -0.00515625 18.8125 -0.0078125 C21.125 0.125 21.125 0.125 23.125 1.125 C23.375 7.75 23.375 7.75 21.125 11.125 C20.465 11.125 19.805 11.125 19.125 11.125 C20.115 13.105 21.105 15.085 22.125 17.125 C21.526875 16.795 20.92875 16.465 20.3125 16.125 C18.07113529 14.91712012 18.07113529 14.91712012 15.125 15.125 C15.785 15.62 16.445 16.115 17.125 16.625 C20.0077217 20.22840212 19.42700997 22.59485042 19.125 27.125 C18.135 27.125 17.145 27.125 16.125 27.125 C16.33125 26.01125 16.5375 24.8975 16.75 23.75 C16.87375 22.55375 16.9975 21.3575 17.125 20.125 C16.465 19.465 15.805 18.805 15.125 18.125 C12.52219432 18.44541397 12.52219432 18.44541397 10.125 19.125 C10.57203986 23.60383696 10.57203986 23.60383696 13.125 27.125 C10.815 26.795 8.505 26.465 6.125 26.125 C6.125 23.815 6.125 21.505 6.125 19.125 C3.65 18.135 3.65 18.135 1.125 17.125 C1.785 16.465 2.445 15.805 3.125 15.125 C5.2890625 15.1484375 5.2890625 15.1484375 7.75 15.5 C8.97589844 15.66628906 8.97589844 15.66628906 10.2265625 15.8359375 C10.85304688 15.93132813 11.47953125 16.02671875 12.125 16.125 C11.795 15.135 11.465 14.145 11.125 13.125 C6.98406302 12.91529441 6.98406302 12.91529441 3.125 14.125 C3.125 13.465 3.125 12.805 3.125 12.125 C-0.96778118 13.67116178 -2.58959358 14.61126844 -4.75 18.5 C-6.63414012 24.57111815 -6.01180508 27.89639676 -3.09765625 33.453125 C-1.9115367 35.4006879 -1.9115367 35.4006879 0.875 36.125 C1.6175 36.125 2.36 36.125 3.125 36.125 C3.125 35.135 3.125 34.145 3.125 33.125 C5.435 33.785 7.745 34.445 10.125 35.125 C10.125 35.455 10.125 35.785 10.125 36.125 C7.65 36.62 7.65 36.62 5.125 37.125 C5.125 37.785 5.125 38.445 5.125 39.125 C7.765 39.125 10.405 39.125 13.125 39.125 C13.125 38.465 13.125 37.805 13.125 37.125 C14.300625 36.691875 14.300625 36.691875 15.5 36.25 C18.80050303 34.8354987 19.8354987 33.80050303 21.25 30.5 C21.53875 29.71625 21.8275 28.9325 22.125 28.125 C22.785 28.455 23.445 28.785 24.125 29.125 C22.34297921 35.0650693 19.85138213 37.82357034 14.515625 41.0078125 C10.77712038 42.75489145 8.11719283 43.34033545 4.125 42.125 C-1.04091589 39.5574627 -5.73830877 36.58365097 -8.0625 31.125 C-9.68074867 25.05947801 -8.25983346 20.56155532 -5.3125 15.1875 C-4.51071401 13.8269623 -3.70181182 12.47047606 -2.875 11.125 C-3.865 10.795 -4.855 10.465 -5.875 10.125 C-7.3533226 7.16835481 -6.93532783 4.38270263 -6.875 1.125 C-4.41490037 -0.10504981 -2.74327194 -0.00814027 0 0 Z " fill="#3B5D48" transform="translate(15.875,2.875)"/>
<path d="M0 0 C3.36016893 1.12005631 4.69064913 2.37211797 7 5 C7 5.66 7 6.32 7 7 C6.01 7.66 5.02 8.32 4 9 C1.93871195 13.04623211 0.22256952 16.44647863 1 21 C2.0264603 23.89726699 3.18060938 26.51214318 5 29 C7.6147267 30.12815365 7.6147267 30.12815365 10 30 C10 29.01 10 28.02 10 27 C12.31 27.66 14.62 28.32 17 29 C17 29.33 17 29.66 17 30 C15.35 30.33 13.7 30.66 12 31 C12 31.66 12 32.32 12 33 C14.64 33 17.28 33 20 33 C20 32.34 20 31.68 20 31 C21.175625 30.566875 21.175625 30.566875 22.375 30.125 C25.67550303 28.7104987 26.7104987 27.67550303 28.125 24.375 C28.41375 23.59125 28.7025 22.8075 29 22 C29.66 22.33 30.32 22.66 31 23 C29.21797921 28.9400693 26.72638213 31.69857034 21.390625 34.8828125 C17.65212038 36.62989145 14.99219283 37.21533545 11 36 C5.83408411 33.4324627 1.13669123 30.45865097 -1.1875 25 C-2.80574867 18.93447801 -1.38483346 14.43655532 1.5625 9.0625 C2.36428599 7.7019623 3.17318818 6.34547606 4 5 C3.01 4.67 2.02 4.34 1 4 C0.3125 1.9375 0.3125 1.9375 0 0 Z " fill="#394951" transform="translate(9,9)"/>
<path d="M0 0 C0.8125 2.1875 0.8125 2.1875 1 5 C-1.1875 7.875 -1.1875 7.875 -4 10 C-6.25 10 -6.25 10 -8 9 C-8.33 8.01 -8.66 7.02 -9 6 C-9.66 6 -10.32 6 -11 6 C-10.625 3.5625 -10.625 3.5625 -10 1 C-6.78548731 -0.60725635 -3.56387464 -0.05748185 0 0 Z " fill="#60D11B" transform="translate(36,5)"/>
<path d="M0 0 C1.258125 -0.04125 2.51625 -0.0825 3.8125 -0.125 C4.52019531 -0.14820313 5.22789063 -0.17140625 5.95703125 -0.1953125 C8 0 8 0 11 2 C11 3.32 11 4.64 11 6 C10.01 6 9.02 6 8 6 C8 6.99 8 7.98 8 9 C6.3125 9.8125 6.3125 9.8125 4 10 C1.1875 7.875 1.1875 7.875 -1 5 C-0.8125 2.1875 -0.8125 2.1875 0 0 Z " fill="#61D31A" transform="translate(12,5)"/>
<path d="M0 0 C0.99 0.66 1.98 1.32 3 2 C3 2.66 3 3.32 3 4 C3.66 4.53625 4.32 5.0725 5 5.625 C7.9345109 9.1097317 7.29763151 11.53552728 7 16 C6.01 16 5.02 16 4 16 C4.309375 14.329375 4.309375 14.329375 4.625 12.625 C4.74875 11.42875 4.8725 10.2325 5 9 C4.34 8.34 3.68 7.68 3 7 C0.39719432 7.32041397 0.39719432 7.32041397 -2 8 C-1.55296014 12.47883696 -1.55296014 12.47883696 1 16 C-1.31 15.67 -3.62 15.34 -6 15 C-6 12.69 -6 10.38 -6 8 C-8.475 7.01 -8.475 7.01 -11 6 C-10.34 5.34 -9.68 4.68 -9 4 C-6.8359375 4.0234375 -6.8359375 4.0234375 -4.375 4.375 C-3.55773437 4.48585938 -2.74046875 4.59671875 -1.8984375 4.7109375 C-0.95871094 4.85402344 -0.95871094 4.85402344 0 5 C-0.2784375 4.0409375 -0.2784375 4.0409375 -0.5625 3.0625 C-0.706875 2.381875 -0.85125 1.70125 -1 1 C-0.67 0.67 -0.34 0.34 0 0 Z " fill="#454652" transform="translate(28,14)"/>
<path d="M0 0 C2.375 0.75 2.375 0.75 3.375 1.75 C3.6732732 4.58359542 3.73102594 6.18785378 2.1875 8.625 C0.375 9.75 0.375 9.75 -2.25 9.5 C-4.625 8.75 -4.625 8.75 -5.625 7.75 C-5.9232732 4.91640458 -5.98102594 3.31214622 -4.4375 0.875 C-2.625 -0.25 -2.625 -0.25 0 0 Z " fill="#EF407D" transform="translate(19.625,20.25)"/>
<path d="M0 0 C3.125 0.375 3.125 0.375 6 1 C6.6875 3.3125 6.6875 3.3125 7 6 C5.875 7.875 5.875 7.875 4 9 C0.65807308 8.75546876 -0.60543557 8.39456443 -3 6 C-2.63318342 3.06546739 -2.13562754 2.13562754 0 0 Z " fill="#F2407D" transform="translate(22,29)"/>
<path d="M0 0 C3.25696479 0.41755959 4.63443291 0.63443291 7 3 C7.1875 5.5625 7.1875 5.5625 7 8 C6 9 6 9 3.0625 9.25 C2.051875 9.1675 1.04125 9.085 0 9 C-2 6 -2 6 -1.6875 3.375 C-1 1 -1 1 0 0 Z " fill="#F6407E" transform="translate(27,20)"/>
<path d="M0 0 C2.0625 0.4375 2.0625 0.4375 4 1 C3.566875 1.8353125 3.566875 1.8353125 3.125 2.6875 C1.9586747 5.08494645 0.9660119 7.51596939 0 10 C1.32 10.33 2.64 10.66 4 11 C2.68 11 1.36 11 0 11 C0 11.66 0 12.32 0 13 C-2.70879335 14.35439668 -5.00933268 14.06501451 -8 14 C-8 12.68 -8 11.36 -8 10 C-6.35 10 -4.7 10 -3 10 C-1.1261218 6.83783053 -0.90166642 4.63834261 -1 1 C-0.67 0.67 -0.34 0.34 0 0 Z " fill="#584557" transform="translate(29,29)"/>
<path d="M0 0 C0.125 2.875 0.125 2.875 0 6 C-2 8 -2 8 -4.625 8.125 C-5.40875 8.08375 -6.1925 8.0425 -7 8 C-6.62952882 5.25851328 -6.31412056 3.41406801 -4.625 1.1875 C-3 0 -3 0 0 0 Z " fill="#F6407E" transform="translate(36,31)"/>
<path d="M0 0 C2.31 0.66 4.62 1.32 7 2 C7 2.33 7 2.66 7 3 C5.35 3.33 3.7 3.66 2 4 C2 4.66 2 5.32 2 6 C3.65 6.33 5.3 6.66 7 7 C7 7.33 7 7.66 7 8 C0.64948454 8.36637589 0.64948454 8.36637589 -2.4375 6.625 C-4 5 -4 5 -4 3 C-2.68 3 -1.36 3 0 3 C0 2.01 0 1.02 0 0 Z " fill="#4F4555" transform="translate(19,36)"/>
<path d="M0 0 C4.875 1.875 4.875 1.875 6 3 C6.04063832 4.66617115 6.042721 6.33388095 6 8 C1.125 7.125 1.125 7.125 0 6 C-0.04080783 4.00041636 -0.04254356 1.99954746 0 0 Z " fill="#F2407D" transform="translate(12,31)"/>
<path d="M0 0 C0.33 0 0.66 0 1 0 C1.25 6.625 1.25 6.625 -1 10 C-1.66 10 -2.32 10 -3 10 C-2.01 11.98 -1.02 13.96 0 16 C-2.88437779 14.70700306 -4.87219421 13.34058637 -7 11 C-6.21625 10.29875 -5.4325 9.5975 -4.625 8.875 C-1.91639182 5.90842914 -0.98277285 3.8417484 0 0 Z " fill="#39494B" transform="translate(38,4)"/>
<path d="M0 0 C1.98 0 3.96 0 6 0 C6.33 1.32 6.66 2.64 7 4 C1.25 5.125 1.25 5.125 -1 4 C-0.67 2.68 -0.34 1.36 0 0 Z " fill="#ED407C" transform="translate(21,15)"/>
<path d="M0 0 C-0.33 1.65 -0.66 3.3 -1 5 C-2.670625 5.2165625 -2.670625 5.2165625 -4.375 5.4375 C-7.82142047 5.78372035 -7.82142047 5.78372035 -10 7 C-9.63206382 4.33246269 -9.18001672 3.18001672 -7.25 1.25 C-4.62056017 -0.21079991 -2.9625559 -0.24687966 0 0 Z " fill="#3B4E4C" transform="translate(29,10)"/>
<path d="M0 0 C1.98 0 3.96 0 6 0 C6 1.32 6 2.64 6 4 C4.02 4 2.04 4 0 4 C0 2.68 0 1.36 0 0 Z " fill="#ED407C" transform="translate(21,39)"/>
<path d="M0 0 C1.32 0 2.64 0 4 0 C3.25 1.9375 3.25 1.9375 2 4 C-0.125 4.75 -0.125 4.75 -2 5 C-1.125 1.125 -1.125 1.125 0 0 Z " fill="#DF4179" transform="translate(14,16)"/>
<path d="M0 0 C0.33 0 0.66 0 1 0 C1 2.31 1 4.62 1 7 C0.01 7 -0.98 7 -2 7 C-2.125 4.625 -2.125 4.625 -2 2 C-1.34 1.34 -0.68 0.68 0 0 Z " fill="#F3407E" transform="translate(11,23)"/>
<path d="M0 0 C0.99 0.33 1.98 0.66 3 1 C3 2.98 3 4.96 3 7 C2.34 7 1.68 7 1 7 C0.67 4.69 0.34 2.38 0 0 Z " fill="#F0407D" transform="translate(35,23)"/>
<path d="M0 0 C2.475 0.495 2.475 0.495 5 1 C5.33 2.32 5.66 3.64 6 5 C2.83884224 3.63016497 2.0072908 3.0109362 0 0 Z " fill="#F2407D" transform="translate(29,16)"/>
</svg>
