<?xml version="1.0" encoding="UTF-8"?>
<svg version="1.1" xmlns="http://www.w3.org/2000/svg" width="512" height="512">
<path d="M0 0 C2.47980387 2.19672124 4.90517849 4.439372 7.31640625 6.7109375 C7.98027344 7.31035156 8.64414062 7.90976562 9.328125 8.52734375 C29.74880606 27.70538702 42.03890148 56.17989739 45.31640625 83.7109375 C45.35567462 86.04394038 45.36711891 88.37815533 45.31640625 90.7109375 C46.47140625 90.8759375 47.62640625 91.0409375 48.81640625 91.2109375 C68.6259058 95.62348005 88.19507284 111.22188867 99.34765625 127.71484375 C110.51494754 145.36166412 117.88023567 165.53124774 116.31640625 186.7109375 C116.23648437 187.85433594 116.1565625 188.99773437 116.07421875 190.17578125 C114.02742168 211.41652224 105.70748034 230.91398583 91.31640625 246.7109375 C90.70410156 247.40445312 90.09179688 248.09796875 89.4609375 248.8125 C75.00386385 264.2868091 52.52979898 276.00177481 31.15759277 276.7906189 C28.89719726 276.80872887 26.63922108 276.79861667 24.37890625 276.7734375 C23.59966797 276.76892578 22.82042969 276.76441406 22.01757812 276.75976562 C20.11715357 276.74810658 18.21676919 276.73017627 16.31640625 276.7109375 C15.93673667 285.55922951 15.79473441 294.39334974 16.234375 303.2421875 C16.25154572 303.98608231 16.26871643 304.72997711 16.28640747 305.49641418 C16.6096799 310.62744947 18.12021944 313.383588 21.61851501 317.12799072 C23.92790724 319.09854912 26.43087289 320.29178722 29.16308594 321.57617188 C33.28902089 323.7504741 36.76920655 326.84657106 40.37890625 329.7734375 C41.89796938 330.96226952 43.42006624 332.14723626 44.9453125 333.328125 C45.6789502 333.89756836 46.41258789 334.46701172 47.16845703 335.05371094 C49.19804432 336.61961666 51.23678381 338.17234122 53.28125 339.71875 C54.18315063 340.40312134 54.18315063 340.40312134 55.10327148 341.10131836 C56.70264364 342.31230087 58.30624232 343.51769566 59.91015625 344.72265625 C62.31640625 346.7109375 62.31640625 346.7109375 64.31640625 349.7109375 C64.55691528 352.53935242 64.55691528 352.53935242 64.54345703 356.01831055 C64.54330597 357.31943283 64.54315491 358.62055511 64.54299927 359.96110535 C64.53278594 361.38162387 64.52235395 362.80214083 64.51171875 364.22265625 C64.50798808 365.67568263 64.50514136 367.12871153 64.50314331 368.58174133 C64.49551106 372.40405232 64.47586617 376.22621104 64.45373535 380.04846191 C64.43326808 383.9496047 64.42413971 387.85077211 64.4140625 391.75195312 C64.39261982 399.40501729 64.35848889 407.05795605 64.31640625 414.7109375 C65.42556396 415.01636475 66.53472168 415.32179199 67.67749023 415.63647461 C76.21834497 418.15833316 81.10943945 424.12267028 85.31640625 431.7109375 C85.82880859 432.59845703 85.82880859 432.59845703 86.3515625 433.50390625 C90.07051357 441.33964968 89.65840966 453.02792763 86.87890625 461.0859375 C82.62488571 469.96845223 75.41581858 476.97026131 66.31640625 480.7109375 C58.9998341 483.22600918 47.41674465 483.11443584 40.25390625 480.0859375 C38.23046875 478.96484375 38.23046875 478.96484375 36.31640625 477.7109375 C35.62289063 477.28683594 34.929375 476.86273438 34.21484375 476.42578125 C26.57459318 471.28935812 22.08344448 464.09723949 19.78515625 455.24609375 C17.96598608 445.40741509 19.75829589 436.43404415 25.06640625 427.9609375 C29.38209007 421.9147072 34.42302117 417.59654056 41.31640625 414.7109375 C41.97640625 414.7109375 42.63640625 414.7109375 43.31640625 414.7109375 C43.31640625 396.2309375 43.31640625 377.7509375 43.31640625 358.7109375 C41.99640625 358.0509375 40.67640625 357.3909375 39.31640625 356.7109375 C37.41537089 355.32940429 35.54407325 353.90668797 33.69140625 352.4609375 C33.13799561 352.03055176 32.58458496 351.60016602 32.0144043 351.15673828 C30.78730714 350.20193839 29.5613744 349.24564071 28.33642578 348.28808594 C26.16567298 346.59325114 23.98954865 344.90548903 21.8125 343.21875 C17.9804114 340.24843062 14.1550613 337.26962562 10.33398438 334.28515625 C8.57559233 332.91316788 6.81356927 331.54601621 5.05078125 330.1796875 C4.1690625 329.48875 3.28734375 328.7978125 2.37890625 328.0859375 C1.64800781 327.51617187 0.91710937 326.94640625 0.1640625 326.359375 C-2.42140074 324.05268264 -4.4567886 322.06349932 -5.0443573 318.55950928 C-5.03769547 317.78673645 -5.03103363 317.01396362 -5.02416992 316.21777344 C-5.02380737 315.32493652 -5.02344482 314.43209961 -5.02307129 313.51220703 C-5.00772339 312.58263184 -4.99237549 311.65305664 -4.9765625 310.6953125 C-4.97354126 309.83437988 -4.97052002 308.97344727 -4.96740723 308.08642578 C-4.95173959 304.87780732 -4.90985552 301.66936007 -4.87109375 298.4609375 C-4.80921875 291.2834375 -4.74734375 284.1059375 -4.68359375 276.7109375 C-21.51359375 276.7109375 -38.34359375 276.7109375 -55.68359375 276.7109375 C-55.65265625 283.176875 -55.65265625 283.176875 -55.62109375 289.7734375 C-55.63261475 291.11929932 -55.64413574 292.46516113 -55.65600586 293.85180664 C-55.53244123 301.61690247 -55.53244123 301.61690247 -51.33984375 307.84375 C-50.13927647 308.82222228 -48.92248471 309.78146508 -47.68359375 310.7109375 C-31.54565147 328.08775211 -31.54565147 328.08775211 -31.5859375 337.03125 C-31.58916016 338.28808594 -31.59238281 339.54492188 -31.59570312 340.83984375 C-31.60408203 342.15855469 -31.61246094 343.47726562 -31.62109375 344.8359375 C-31.62610886 346.17577961 -31.63067174 347.5156235 -31.63476562 348.85546875 C-31.64658289 352.14066956 -31.66305758 355.42578147 -31.68359375 358.7109375 C-30.10964844 359.07832031 -30.10964844 359.07832031 -28.50390625 359.453125 C-20.75815211 361.67900603 -14.41515709 368.86048436 -10.578125 375.76171875 C-6.59996506 384.43028561 -6.29946501 394.36885414 -9.24609375 403.3984375 C-13.24985882 413.08001575 -19.21546419 419.24759977 -28.68359375 423.7109375 C-36.91498234 426.98772831 -46.78321919 427.18840245 -55.12109375 424.0859375 C-64.34915198 419.70911386 -71.67459439 413.25907777 -75.55859375 403.6484375 C-78.40625347 393.69878307 -77.62075163 383.57408451 -73.15625 374.296875 C-68.92123332 366.86032051 -63.46674791 362.36808223 -55.68359375 358.7109375 C-54.69359375 358.7109375 -53.70359375 358.7109375 -52.68359375 358.7109375 C-51.63440331 344.37956271 -51.63440331 344.37956271 -57.69238281 331.98925781 C-59.80097235 329.91379415 -61.95724117 327.92143057 -64.20800781 326.00097656 C-66.21793852 324.24378366 -67.94733558 322.29780838 -69.68359375 320.2734375 C-70.17859375 319.71785156 -70.67359375 319.16226562 -71.18359375 318.58984375 C-75.45585408 313.23839265 -77.27483626 309.58352935 -77.07421875 302.6875 C-77.06817627 301.69399536 -77.06817627 301.69399536 -77.06201172 300.68041992 C-77.04125504 298.23197289 -76.98541027 295.78392417 -76.93359375 293.3359375 C-76.85109375 287.8496875 -76.76859375 282.3634375 -76.68359375 276.7109375 C-93.51359375 276.7109375 -110.34359375 276.7109375 -127.68359375 276.7109375 C-127.68359375 322.2509375 -127.68359375 367.7909375 -127.68359375 414.7109375 C-125.70359375 415.3709375 -123.72359375 416.0309375 -121.68359375 416.7109375 C-113.03499031 421.9145139 -107.56113227 428.85384329 -104.74609375 438.5234375 C-102.66615926 448.25455957 -103.75879149 457.06331861 -108.68359375 465.7109375 C-109.03292969 466.33742188 -109.38226563 466.96390625 -109.7421875 467.609375 C-113.00071182 472.77340317 -117.4186025 475.75609547 -122.68359375 478.7109375 C-123.57304688 479.22527344 -123.57304688 479.22527344 -124.48046875 479.75 C-131.8045974 483.21761843 -141.96195957 482.85000878 -149.6953125 480.984375 C-152.16231094 480.0550004 -154.39071123 479.00839421 -156.68359375 477.7109375 C-157.32683594 477.34871094 -157.97007812 476.98648437 -158.6328125 476.61328125 C-165.73562515 472.06809745 -170.73733534 464.89374659 -172.68359375 456.7109375 C-174.63434018 446.06500348 -173.48872932 436.49630492 -167.49609375 427.3359375 C-162.4451364 420.70788798 -157.57799009 417.34240295 -149.68359375 414.7109375 C-149.68359375 369.1709375 -149.68359375 323.6309375 -149.68359375 276.7109375 C-166.51359375 276.7109375 -183.34359375 276.7109375 -200.68359375 276.7109375 C-200.44709924 287.54096461 -200.44709924 287.54096461 -200.14306641 298.36914062 C-199.88757502 311.77123958 -199.88757502 311.77123958 -204.98144531 317.12988281 C-205.5431543 317.65163086 -206.10486328 318.17337891 -206.68359375 318.7109375 C-207.70063109 319.84420768 -208.71246055 320.98217552 -209.71875 322.125 C-210.72397348 323.1989678 -211.73307133 324.26932292 -212.74609375 325.3359375 C-214.25682291 326.93758121 -215.76222634 328.54164025 -217.24584961 330.16845703 C-218.61498567 331.63733148 -220.05823347 333.03607496 -221.50390625 334.4296875 C-224.59460661 339.08235471 -224.46272617 343.11365399 -224.49609375 348.5859375 C-224.52123047 349.56046875 -224.54636719 350.535 -224.57226562 351.5390625 C-224.63086933 353.93009378 -224.66734366 356.31930597 -224.68359375 358.7109375 C-223.95011719 358.82308594 -223.21664062 358.93523437 -222.4609375 359.05078125 C-215.47835037 360.71049605 -209.91754532 365.694459 -205.96875 371.53515625 C-200.37287029 381.00903162 -198.77409149 390.74037471 -201.37890625 401.61328125 C-204.97590356 411.42189997 -211.40831734 418.91576378 -220.66796875 423.74609375 C-229.04240847 427.13050078 -239.59824145 427.21053069 -248.05859375 424.1484375 C-258.61587826 419.11531349 -264.67571421 412.09391455 -269.05859375 401.3359375 C-270.870784 390.82523402 -270.27747713 380.44060574 -263.99609375 371.5234375 C-259.83728056 366.41048263 -254.85838038 361.26516651 -248.68359375 358.7109375 C-247.69359375 358.7109375 -246.70359375 358.7109375 -245.68359375 358.7109375 C-245.70454102 357.89415527 -245.72548828 357.07737305 -245.74707031 356.23583984 C-245.83044505 352.51933195 -245.88232363 348.80302117 -245.93359375 345.0859375 C-245.96710938 343.80074219 -246.000625 342.51554687 -246.03515625 341.19140625 C-246.15653813 329.47805528 -246.15653813 329.47805528 -241.68359375 324.7109375 C-240.84183594 323.74414062 -240.00007812 322.77734375 -239.1328125 321.78125 C-238.21613232 320.79584353 -237.29544977 319.8141473 -236.37109375 318.8359375 C-235.39771862 317.79103379 -234.42506345 316.74545895 -233.453125 315.69921875 C-232.98213379 315.19342285 -232.51114258 314.68762695 -232.02587891 314.16650391 C-229.60288611 311.53902427 -227.26444848 308.83905432 -224.92578125 306.13671875 C-224.20247387 305.30650744 -223.46219005 304.4895338 -222.68359375 303.7109375 C-222.52534117 301.71311624 -222.43240204 299.71004916 -222.3671875 297.70703125 C-222.32907959 296.61318115 -222.29097168 295.51933105 -222.25170898 294.39233398 C-222.20860596 292.99184814 -222.16550293 291.5913623 -222.12109375 290.1484375 C-221.97671875 285.7140625 -221.83234375 281.2796875 -221.68359375 276.7109375 C-238.51359375 276.7109375 -255.34359375 276.7109375 -272.68359375 276.7109375 C-272.44668096 290.87679648 -272.44668096 290.87679648 -272.14306641 305.04125977 C-272.12552893 306.82826581 -272.11024287 308.61529597 -272.09765625 310.40234375 C-272.06696045 311.31657104 -272.03626465 312.23079834 -272.00463867 313.17272949 C-271.99988056 319.02917125 -272.97742868 322.13719219 -277.14035034 326.32502747 C-277.64962067 326.78237778 -278.15889099 327.23972809 -278.68359375 327.7109375 C-279.3290918 328.29367432 -279.97458984 328.87641113 -280.63964844 329.47680664 C-281.20586914 329.89567139 -281.77208984 330.31453613 -282.35546875 330.74609375 C-283.0112793 331.23859619 -283.66708984 331.73109863 -284.34277344 332.23852539 C-285.37772949 332.99830688 -285.37772949 332.99830688 -286.43359375 333.7734375 C-287.93423067 334.89758778 -289.43420727 336.02261994 -290.93359375 337.1484375 C-291.70832031 337.72722656 -292.48304688 338.30601562 -293.28125 338.90234375 C-297.3683217 341.9792774 -301.39990555 345.12704456 -305.43359375 348.2734375 C-306.18350586 348.85681885 -306.93341797 349.4402002 -307.70605469 350.04125977 C-308.41536133 350.59354248 -309.12466797 351.1458252 -309.85546875 351.71484375 C-310.51869141 352.23062988 -311.18191406 352.74641602 -311.86523438 353.27783203 C-313.4552199 354.53094898 -315.01727791 355.81933717 -316.57421875 357.11328125 C-318.68359375 358.7109375 -318.68359375 358.7109375 -320.68359375 358.7109375 C-320.68359375 377.1909375 -320.68359375 395.6709375 -320.68359375 414.7109375 C-318.70359375 415.3709375 -316.72359375 416.0309375 -314.68359375 416.7109375 C-305.58533975 421.96250323 -299.95243588 430.0793776 -296.99609375 440.0234375 C-295.71528869 451.03836102 -297.35004105 460.46382791 -303.88671875 469.60546875 C-310.07406115 476.85541996 -317.1410593 481.27017929 -326.61328125 482.0234375 C-337.98747599 482.48302657 -346.02434148 481.01854752 -354.99609375 473.5859375 C-361.64087905 467.27548102 -365.72743062 459.49212818 -365.97583008 450.26538086 C-366.0490177 442.61947901 -365.52099642 436.52454356 -361.68359375 429.7109375 C-361.34457031 429.07929688 -361.00554687 428.44765625 -360.65625 427.796875 C-357.31816314 422.40366704 -352.17516572 418.74846325 -346.68359375 415.7109375 C-345.02388669 415.34452056 -343.35740745 415.00629588 -341.68359375 414.7109375 C-341.6924762 413.90771561 -341.70135864 413.10449371 -341.71051025 412.27693176 C-341.79072687 404.6997089 -341.8515937 397.12269251 -341.89084244 389.54515553 C-341.91169922 385.6496294 -341.93998105 381.75445473 -341.98535156 377.85913086 C-342.02887883 374.09843692 -342.05274523 370.3380806 -342.06310272 366.57715416 C-342.07048187 365.14382298 -342.08489195 363.71050985 -342.10651398 362.27732277 C-342.13563332 360.26685296 -342.13722837 358.25604195 -342.13769531 356.24536133 C-342.14657776 355.10174637 -342.15546021 353.95813141 -342.16461182 352.77986145 C-341.47680811 348.39163277 -339.24409558 346.08236905 -335.98291016 343.21630859 C-335.42265137 342.80977051 -334.86239258 342.40323242 -334.28515625 341.984375 C-333.32959839 341.28127197 -333.32959839 341.28127197 -332.35473633 340.56396484 C-331.67950928 340.07621582 -331.00428223 339.5884668 -330.30859375 339.0859375 C-328.86618156 338.02480353 -327.4247941 336.96227539 -325.984375 335.8984375 C-325.2620166 335.36605469 -324.5396582 334.83367187 -323.79541016 334.28515625 C-319.04606276 330.74483348 -314.3620014 327.08882492 -309.8059082 323.30322266 C-307.68359375 321.7109375 -307.68359375 321.7109375 -304.41088867 319.78662109 C-297.96901105 315.89067049 -297.96901105 315.89067049 -293.96395874 309.75396729 C-292.90580116 304.39471533 -293.1566568 299.01541516 -293.37109375 293.5859375 C-293.38811552 291.94536347 -293.39923111 290.30471701 -293.40429688 288.6640625 C-293.42932287 284.67559245 -293.53417098 280.69660665 -293.68359375 276.7109375 C-294.27672363 276.72664795 -294.86985352 276.7423584 -295.48095703 276.75854492 C-320.82671855 277.33982472 -344.47702956 272.45806983 -363.62109375 254.7109375 C-365.67487799 252.74228421 -367.68655363 250.73694121 -369.68359375 248.7109375 C-370.71613281 247.69386719 -370.71613281 247.69386719 -371.76953125 246.65625 C-386.76543102 230.84609323 -394.19096407 206.98736533 -393.828125 185.546875 C-392.76606675 164.70756986 -386.17674888 145.76462739 -372.68359375 129.7109375 C-371.79220703 128.60105469 -371.79220703 128.60105469 -370.8828125 127.46875 C-359.17177313 113.45429709 -341.52396493 103.53567152 -323.68359375 99.7109375 C-320.8203125 99.6171875 -320.8203125 99.6171875 -318.68359375 99.7109375 C-318.73580078 98.88916016 -318.73580078 98.88916016 -318.7890625 98.05078125 C-319.50004047 77.22928353 -310.3675043 57.51594098 -296.93359375 42.0234375 C-282.81600327 27.10033885 -261.60559675 16.26738817 -240.8828125 15.47265625 C-223.12335016 15.11423801 -208.69700918 18.09758627 -192.68359375 25.7109375 C-192.29171875 25.1025 -191.89984375 24.4940625 -191.49609375 23.8671875 C-181.3241002 8.95995557 -168.06310656 -2.96956005 -152.68359375 -12.2890625 C-152.08256836 -12.65966797 -151.48154297 -13.03027344 -150.86230469 -13.41210938 C-140.16639297 -19.90123629 -128.66615992 -23.84557555 -116.68359375 -27.2890625 C-115.43835938 -27.65257812 -114.193125 -28.01609375 -112.91015625 -28.390625 C-73.56601035 -37.68383385 -30.37516752 -25.90953154 0 0 Z " fill="#27A1CB" transform="translate(394.68359375,30.2890625)"/>
<path d="M0 0 C2.47980387 2.19672124 4.90517849 4.439372 7.31640625 6.7109375 C7.98027344 7.31035156 8.64414062 7.90976562 9.328125 8.52734375 C29.74880606 27.70538702 42.03890148 56.17989739 45.31640625 83.7109375 C45.35567462 86.04394038 45.36711891 88.37815533 45.31640625 90.7109375 C46.47140625 90.8759375 47.62640625 91.0409375 48.81640625 91.2109375 C68.6259058 95.62348005 88.19507284 111.22188867 99.34765625 127.71484375 C110.51494754 145.36166412 117.88023567 165.53124774 116.31640625 186.7109375 C116.23648437 187.85433594 116.1565625 188.99773437 116.07421875 190.17578125 C114.02742168 211.41652224 105.70748034 230.91398583 91.31640625 246.7109375 C90.70410156 247.40445312 90.09179688 248.09796875 89.4609375 248.8125 C75.00386385 264.2868091 52.52979898 276.00177481 31.15759277 276.7906189 C28.89719726 276.80872887 26.63922108 276.79861667 24.37890625 276.7734375 C23.59966797 276.76892578 22.82042969 276.76441406 22.01757812 276.75976562 C20.11715357 276.74810658 18.21676919 276.73017627 16.31640625 276.7109375 C15.93673667 285.55922951 15.79473441 294.39334974 16.234375 303.2421875 C16.25154572 303.98608231 16.26871643 304.72997711 16.28640747 305.49641418 C16.6096799 310.62744947 18.12021944 313.383588 21.61851501 317.12799072 C23.92790724 319.09854912 26.43087289 320.29178722 29.16308594 321.57617188 C33.28902089 323.7504741 36.76920655 326.84657106 40.37890625 329.7734375 C41.89796938 330.96226952 43.42006624 332.14723626 44.9453125 333.328125 C45.6789502 333.89756836 46.41258789 334.46701172 47.16845703 335.05371094 C49.19804432 336.61961666 51.23678381 338.17234122 53.28125 339.71875 C54.18315063 340.40312134 54.18315063 340.40312134 55.10327148 341.10131836 C56.70264364 342.31230087 58.30624232 343.51769566 59.91015625 344.72265625 C62.31640625 346.7109375 62.31640625 346.7109375 64.31640625 349.7109375 C64.55691528 352.53935242 64.55691528 352.53935242 64.54345703 356.01831055 C64.54330597 357.31943283 64.54315491 358.62055511 64.54299927 359.96110535 C64.53278594 361.38162387 64.52235395 362.80214083 64.51171875 364.22265625 C64.50798808 365.67568263 64.50514136 367.12871153 64.50314331 368.58174133 C64.49551106 372.40405232 64.47586617 376.22621104 64.45373535 380.04846191 C64.43326808 383.9496047 64.42413971 387.85077211 64.4140625 391.75195312 C64.39261982 399.40501729 64.35848889 407.05795605 64.31640625 414.7109375 C65.42556396 415.01636475 66.53472168 415.32179199 67.67749023 415.63647461 C76.21834497 418.15833316 81.10943945 424.12267028 85.31640625 431.7109375 C85.82880859 432.59845703 85.82880859 432.59845703 86.3515625 433.50390625 C90.07051357 441.33964968 89.65840966 453.02792763 86.87890625 461.0859375 C82.62488571 469.96845223 75.41581858 476.97026131 66.31640625 480.7109375 C58.9998341 483.22600918 47.41674465 483.11443584 40.25390625 480.0859375 C38.23046875 478.96484375 38.23046875 478.96484375 36.31640625 477.7109375 C35.62289063 477.28683594 34.929375 476.86273438 34.21484375 476.42578125 C26.57459318 471.28935812 22.08344448 464.09723949 19.78515625 455.24609375 C17.96598608 445.40741509 19.75829589 436.43404415 25.06640625 427.9609375 C29.38209007 421.9147072 34.42302117 417.59654056 41.31640625 414.7109375 C41.97640625 414.7109375 42.63640625 414.7109375 43.31640625 414.7109375 C43.31640625 396.2309375 43.31640625 377.7509375 43.31640625 358.7109375 C41.99640625 358.0509375 40.67640625 357.3909375 39.31640625 356.7109375 C37.41537089 355.32940429 35.54407325 353.90668797 33.69140625 352.4609375 C33.13799561 352.03055176 32.58458496 351.60016602 32.0144043 351.15673828 C30.78730714 350.20193839 29.5613744 349.24564071 28.33642578 348.28808594 C26.16567298 346.59325114 23.98954865 344.90548903 21.8125 343.21875 C17.9804114 340.24843062 14.1550613 337.26962562 10.33398438 334.28515625 C8.57559233 332.91316788 6.81356927 331.54601621 5.05078125 330.1796875 C4.1690625 329.48875 3.28734375 328.7978125 2.37890625 328.0859375 C1.64800781 327.51617187 0.91710937 326.94640625 0.1640625 326.359375 C-2.42140074 324.05268264 -4.4567886 322.06349932 -5.0443573 318.55950928 C-5.03769547 317.78673645 -5.03103363 317.01396362 -5.02416992 316.21777344 C-5.02380737 315.32493652 -5.02344482 314.43209961 -5.02307129 313.51220703 C-5.00772339 312.58263184 -4.99237549 311.65305664 -4.9765625 310.6953125 C-4.97354126 309.83437988 -4.97052002 308.97344727 -4.96740723 308.08642578 C-4.95173959 304.87780732 -4.90985552 301.66936007 -4.87109375 298.4609375 C-4.80921875 291.2834375 -4.74734375 284.1059375 -4.68359375 276.7109375 C-21.51359375 276.7109375 -38.34359375 276.7109375 -55.68359375 276.7109375 C-55.65265625 283.176875 -55.65265625 283.176875 -55.62109375 289.7734375 C-55.63261475 291.11929932 -55.64413574 292.46516113 -55.65600586 293.85180664 C-55.53244123 301.61690247 -55.53244123 301.61690247 -51.33984375 307.84375 C-50.13927647 308.82222228 -48.92248471 309.78146508 -47.68359375 310.7109375 C-31.54565147 328.08775211 -31.54565147 328.08775211 -31.5859375 337.03125 C-31.58916016 338.28808594 -31.59238281 339.54492188 -31.59570312 340.83984375 C-31.60408203 342.15855469 -31.61246094 343.47726562 -31.62109375 344.8359375 C-31.62610886 346.17577961 -31.63067174 347.5156235 -31.63476562 348.85546875 C-31.64658289 352.14066956 -31.66305758 355.42578147 -31.68359375 358.7109375 C-30.10964844 359.07832031 -30.10964844 359.07832031 -28.50390625 359.453125 C-20.75815211 361.67900603 -14.41515709 368.86048436 -10.578125 375.76171875 C-6.59996506 384.43028561 -6.29946501 394.36885414 -9.24609375 403.3984375 C-13.24985882 413.08001575 -19.21546419 419.24759977 -28.68359375 423.7109375 C-36.91498234 426.98772831 -46.78321919 427.18840245 -55.12109375 424.0859375 C-64.34915198 419.70911386 -71.67459439 413.25907777 -75.55859375 403.6484375 C-78.40625347 393.69878307 -77.62075163 383.57408451 -73.15625 374.296875 C-68.92123332 366.86032051 -63.46674791 362.36808223 -55.68359375 358.7109375 C-54.69359375 358.7109375 -53.70359375 358.7109375 -52.68359375 358.7109375 C-51.63440331 344.37956271 -51.63440331 344.37956271 -57.69238281 331.98925781 C-59.80097235 329.91379415 -61.95724117 327.92143057 -64.20800781 326.00097656 C-66.21793852 324.24378366 -67.94733558 322.29780838 -69.68359375 320.2734375 C-70.17859375 319.71785156 -70.67359375 319.16226562 -71.18359375 318.58984375 C-75.45585408 313.23839265 -77.27483626 309.58352935 -77.07421875 302.6875 C-77.06817627 301.69399536 -77.06817627 301.69399536 -77.06201172 300.68041992 C-77.04125504 298.23197289 -76.98541027 295.78392417 -76.93359375 293.3359375 C-76.85109375 287.8496875 -76.76859375 282.3634375 -76.68359375 276.7109375 C-93.51359375 276.7109375 -110.34359375 276.7109375 -127.68359375 276.7109375 C-127.68359375 322.2509375 -127.68359375 367.7909375 -127.68359375 414.7109375 C-125.70359375 415.3709375 -123.72359375 416.0309375 -121.68359375 416.7109375 C-113.03499031 421.9145139 -107.56113227 428.85384329 -104.74609375 438.5234375 C-102.66615926 448.25455957 -103.75879149 457.06331861 -108.68359375 465.7109375 C-109.03292969 466.33742188 -109.38226563 466.96390625 -109.7421875 467.609375 C-113.00071182 472.77340317 -117.4186025 475.75609547 -122.68359375 478.7109375 C-123.57304688 479.22527344 -123.57304688 479.22527344 -124.48046875 479.75 C-131.8045974 483.21761843 -141.96195957 482.85000878 -149.6953125 480.984375 C-152.16231094 480.0550004 -154.39071123 479.00839421 -156.68359375 477.7109375 C-157.32683594 477.34871094 -157.97007812 476.98648437 -158.6328125 476.61328125 C-165.73562515 472.06809745 -170.73733534 464.89374659 -172.68359375 456.7109375 C-174.63434018 446.06500348 -173.48872932 436.49630492 -167.49609375 427.3359375 C-162.4451364 420.70788798 -157.57799009 417.34240295 -149.68359375 414.7109375 C-149.68359375 369.1709375 -149.68359375 323.6309375 -149.68359375 276.7109375 C-166.51359375 276.7109375 -183.34359375 276.7109375 -200.68359375 276.7109375 C-200.44709924 287.54096461 -200.44709924 287.54096461 -200.14306641 298.36914062 C-199.88757502 311.77123958 -199.88757502 311.77123958 -204.98144531 317.12988281 C-205.5431543 317.65163086 -206.10486328 318.17337891 -206.68359375 318.7109375 C-207.70063109 319.84420768 -208.71246055 320.98217552 -209.71875 322.125 C-210.72397348 323.1989678 -211.73307133 324.26932292 -212.74609375 325.3359375 C-214.25682291 326.93758121 -215.76222634 328.54164025 -217.24584961 330.16845703 C-218.61498567 331.63733148 -220.05823347 333.03607496 -221.50390625 334.4296875 C-224.59460661 339.08235471 -224.46272617 343.11365399 -224.49609375 348.5859375 C-224.52123047 349.56046875 -224.54636719 350.535 -224.57226562 351.5390625 C-224.63086933 353.93009378 -224.66734366 356.31930597 -224.68359375 358.7109375 C-223.95011719 358.82308594 -223.21664062 358.93523437 -222.4609375 359.05078125 C-215.47835037 360.71049605 -209.91754532 365.694459 -205.96875 371.53515625 C-200.37287029 381.00903162 -198.77409149 390.74037471 -201.37890625 401.61328125 C-204.97590356 411.42189997 -211.40831734 418.91576378 -220.66796875 423.74609375 C-229.04240847 427.13050078 -239.59824145 427.21053069 -248.05859375 424.1484375 C-258.61587826 419.11531349 -264.67571421 412.09391455 -269.05859375 401.3359375 C-270.870784 390.82523402 -270.27747713 380.44060574 -263.99609375 371.5234375 C-259.83728056 366.41048263 -254.85838038 361.26516651 -248.68359375 358.7109375 C-247.69359375 358.7109375 -246.70359375 358.7109375 -245.68359375 358.7109375 C-245.70454102 357.89415527 -245.72548828 357.07737305 -245.74707031 356.23583984 C-245.83044505 352.51933195 -245.88232363 348.80302117 -245.93359375 345.0859375 C-245.96710938 343.80074219 -246.000625 342.51554687 -246.03515625 341.19140625 C-246.15653813 329.47805528 -246.15653813 329.47805528 -241.68359375 324.7109375 C-240.84183594 323.74414062 -240.00007812 322.77734375 -239.1328125 321.78125 C-238.21613232 320.79584353 -237.29544977 319.8141473 -236.37109375 318.8359375 C-235.39771862 317.79103379 -234.42506345 316.74545895 -233.453125 315.69921875 C-232.98213379 315.19342285 -232.51114258 314.68762695 -232.02587891 314.16650391 C-229.60288611 311.53902427 -227.26444848 308.83905432 -224.92578125 306.13671875 C-224.20247387 305.30650744 -223.46219005 304.4895338 -222.68359375 303.7109375 C-222.52534117 301.71311624 -222.43240204 299.71004916 -222.3671875 297.70703125 C-222.32907959 296.61318115 -222.29097168 295.51933105 -222.25170898 294.39233398 C-222.20860596 292.99184814 -222.16550293 291.5913623 -222.12109375 290.1484375 C-221.97671875 285.7140625 -221.83234375 281.2796875 -221.68359375 276.7109375 C-238.51359375 276.7109375 -255.34359375 276.7109375 -272.68359375 276.7109375 C-272.44668096 290.87679648 -272.44668096 290.87679648 -272.14306641 305.04125977 C-272.12552893 306.82826581 -272.11024287 308.61529597 -272.09765625 310.40234375 C-272.06696045 311.31657104 -272.03626465 312.23079834 -272.00463867 313.17272949 C-271.99988056 319.02917125 -272.97742868 322.13719219 -277.14035034 326.32502747 C-277.64962067 326.78237778 -278.15889099 327.23972809 -278.68359375 327.7109375 C-279.3290918 328.29367432 -279.97458984 328.87641113 -280.63964844 329.47680664 C-281.20586914 329.89567139 -281.77208984 330.31453613 -282.35546875 330.74609375 C-283.0112793 331.23859619 -283.66708984 331.73109863 -284.34277344 332.23852539 C-285.37772949 332.99830688 -285.37772949 332.99830688 -286.43359375 333.7734375 C-287.93423067 334.89758778 -289.43420727 336.02261994 -290.93359375 337.1484375 C-291.70832031 337.72722656 -292.48304688 338.30601562 -293.28125 338.90234375 C-297.3683217 341.9792774 -301.39990555 345.12704456 -305.43359375 348.2734375 C-306.18350586 348.85681885 -306.93341797 349.4402002 -307.70605469 350.04125977 C-308.41536133 350.59354248 -309.12466797 351.1458252 -309.85546875 351.71484375 C-310.51869141 352.23062988 -311.18191406 352.74641602 -311.86523438 353.27783203 C-313.4552199 354.53094898 -315.01727791 355.81933717 -316.57421875 357.11328125 C-318.68359375 358.7109375 -318.68359375 358.7109375 -320.68359375 358.7109375 C-320.68359375 377.1909375 -320.68359375 395.6709375 -320.68359375 414.7109375 C-318.70359375 415.3709375 -316.72359375 416.0309375 -314.68359375 416.7109375 C-305.58533975 421.96250323 -299.95243588 430.0793776 -296.99609375 440.0234375 C-295.71528869 451.03836102 -297.35004105 460.46382791 -303.88671875 469.60546875 C-310.07406115 476.85541996 -317.1410593 481.27017929 -326.61328125 482.0234375 C-337.98747599 482.48302657 -346.02434148 481.01854752 -354.99609375 473.5859375 C-361.64087905 467.27548102 -365.72743062 459.49212818 -365.97583008 450.26538086 C-366.0490177 442.61947901 -365.52099642 436.52454356 -361.68359375 429.7109375 C-361.34457031 429.07929688 -361.00554687 428.44765625 -360.65625 427.796875 C-357.31816314 422.40366704 -352.17516572 418.74846325 -346.68359375 415.7109375 C-345.02388669 415.34452056 -343.35740745 415.00629588 -341.68359375 414.7109375 C-341.6924762 413.90771561 -341.70135864 413.10449371 -341.71051025 412.27693176 C-341.79072687 404.6997089 -341.8515937 397.12269251 -341.89084244 389.54515553 C-341.91169922 385.6496294 -341.93998105 381.75445473 -341.98535156 377.85913086 C-342.02887883 374.09843692 -342.05274523 370.3380806 -342.06310272 366.57715416 C-342.07048187 365.14382298 -342.08489195 363.71050985 -342.10651398 362.27732277 C-342.13563332 360.26685296 -342.13722837 358.25604195 -342.13769531 356.24536133 C-342.14657776 355.10174637 -342.15546021 353.95813141 -342.16461182 352.77986145 C-341.47680811 348.39163277 -339.24409558 346.08236905 -335.98291016 343.21630859 C-335.42265137 342.80977051 -334.86239258 342.40323242 -334.28515625 341.984375 C-333.32959839 341.28127197 -333.32959839 341.28127197 -332.35473633 340.56396484 C-331.67950928 340.07621582 -331.00428223 339.5884668 -330.30859375 339.0859375 C-328.86618156 338.02480353 -327.4247941 336.96227539 -325.984375 335.8984375 C-325.2620166 335.36605469 -324.5396582 334.83367187 -323.79541016 334.28515625 C-319.04606276 330.74483348 -314.3620014 327.08882492 -309.8059082 323.30322266 C-307.68359375 321.7109375 -307.68359375 321.7109375 -304.41088867 319.78662109 C-297.96901105 315.89067049 -297.96901105 315.89067049 -293.96395874 309.75396729 C-292.90580116 304.39471533 -293.1566568 299.01541516 -293.37109375 293.5859375 C-293.38811552 291.94536347 -293.39923111 290.30471701 -293.40429688 288.6640625 C-293.42932287 284.67559245 -293.53417098 280.69660665 -293.68359375 276.7109375 C-294.27672363 276.72664795 -294.86985352 276.7423584 -295.48095703 276.75854492 C-320.82671855 277.33982472 -344.47702956 272.45806983 -363.62109375 254.7109375 C-365.67487799 252.74228421 -367.68655363 250.73694121 -369.68359375 248.7109375 C-370.71613281 247.69386719 -370.71613281 247.69386719 -371.76953125 246.65625 C-386.76543102 230.84609323 -394.19096407 206.98736533 -393.828125 185.546875 C-392.76606675 164.70756986 -386.17674888 145.76462739 -372.68359375 129.7109375 C-371.79220703 128.60105469 -371.79220703 128.60105469 -370.8828125 127.46875 C-359.17177313 113.45429709 -341.52396493 103.53567152 -323.68359375 99.7109375 C-320.8203125 99.6171875 -320.8203125 99.6171875 -318.68359375 99.7109375 C-318.73580078 98.88916016 -318.73580078 98.88916016 -318.7890625 98.05078125 C-319.50004047 77.22928353 -310.3675043 57.51594098 -296.93359375 42.0234375 C-282.81600327 27.10033885 -261.60559675 16.26738817 -240.8828125 15.47265625 C-223.12335016 15.11423801 -208.69700918 18.09758627 -192.68359375 25.7109375 C-192.29171875 25.1025 -191.89984375 24.4940625 -191.49609375 23.8671875 C-181.3241002 8.95995557 -168.06310656 -2.96956005 -152.68359375 -12.2890625 C-152.08256836 -12.65966797 -151.48154297 -13.03027344 -150.86230469 -13.41210938 C-140.16639297 -19.90123629 -128.66615992 -23.84557555 -116.68359375 -27.2890625 C-115.43835938 -27.65257812 -114.193125 -28.01609375 -112.91015625 -28.390625 C-73.56601035 -37.68383385 -30.37516752 -25.90953154 0 0 Z M-106.68359375 -8.2890625 C-107.71097656 -8.10601563 -108.73835938 -7.92296875 -109.796875 -7.734375 C-131.07160851 -3.52618595 -149.65980954 8.42148551 -164.68359375 23.7109375 C-165.78767578 24.81695312 -165.78767578 24.81695312 -166.9140625 25.9453125 C-171.69832034 31.02560226 -175.47545656 36.68353075 -179.18432617 42.5715332 C-183.28265446 48.98489688 -183.28265446 48.98489688 -186.68359375 50.7109375 C-191.88489957 51.46916601 -194.55147325 49.90953047 -198.80859375 47.0234375 C-214.93646553 36.48098597 -232.64068527 34.09152558 -251.609375 37.39453125 C-254.45628632 38.30328043 -257.01621515 39.36883376 -259.68359375 40.7109375 C-260.58335937 41.11183594 -261.483125 41.51273438 -262.41015625 41.92578125 C-279.50645022 50.23313536 -290.40658226 65.37475611 -296.828125 82.8203125 C-298.26930053 89.37469984 -298.04338825 96.03634306 -298.07421875 102.7265625 C-298.25056793 110.93659657 -298.25056793 110.93659657 -300.47265625 114.91015625 C-302.69672842 116.72163553 -303.88804449 117.44839643 -306.68359375 117.8984375 C-307.47378906 118.04152344 -308.26398438 118.18460938 -309.078125 118.33203125 C-310.86471218 118.59184978 -312.65406876 118.83310479 -314.4453125 119.05859375 C-332.30128168 121.51408751 -347.12327666 131.08354385 -358.68359375 144.7109375 C-370.54020301 161.05113849 -375.216544 179.97751027 -372.1875 199.98828125 C-371.49528414 202.96441835 -370.66160983 205.81648505 -369.68359375 208.7109375 C-369.19052734 210.17080078 -369.19052734 210.17080078 -368.6875 211.66015625 C-362.04750155 229.23662274 -349.31922076 242.68035215 -332.52587891 250.90185547 C-327.44379334 253.1337706 -322.07632873 254.45168408 -316.68359375 255.7109375 C-316.08174226 255.88737183 -315.47989077 256.06380616 -314.85980135 256.24558699 C-312.16490023 256.8218526 -309.66037295 256.84169574 -306.90333462 256.84795189 C-305.71576641 256.85302643 -304.52819821 256.85810097 -303.30464309 256.86332929 C-301.99855042 256.86382705 -300.69245774 256.86432481 -299.3467865 256.86483765 C-297.94619248 256.86885342 -296.54559961 256.87329184 -295.14500815 256.8781172 C-291.29138979 256.89007693 -287.43778395 256.89572983 -283.58415067 256.90029836 C-279.42907286 256.9062572 -275.27400999 256.9178668 -271.11894226 256.92858887 C-261.07816316 256.95311353 -251.0373791 256.96774379 -240.99657926 256.98064893 C-238.15837746 256.984362 -235.32017615 256.98833517 -232.48197484 256.9924016 C-214.8432252 257.01764847 -197.20447475 257.03969377 -179.56571102 257.05212975 C-175.47959833 257.0550593 -171.39348567 257.05802097 -167.30737305 257.06103516 C-165.78405653 257.06215423 -165.78405653 257.06215423 -164.22996593 257.06329592 C-147.80509256 257.07593003 -131.38032793 257.109126 -114.9555053 257.15083699 C-98.07629099 257.19334868 -81.19713216 257.21683576 -64.31786448 257.22205031 C-54.84757195 257.22545488 -45.37744905 257.2370963 -35.9072094 257.27015305 C-27.83541937 257.29828242 -19.76383374 257.30909697 -11.69199853 257.29795758 C-7.58018746 257.29280287 -3.46880349 257.2954471 0.64294434 257.32042313 C29.24530071 257.48463958 53.99796269 254.66349534 75.31640625 233.7109375 C88.61214767 220.07774071 95.5722751 201.13447632 95.81640625 182.2734375 C95.53554349 160.55704131 87.25225306 142.99958013 72.16796875 127.50390625 C61.50079412 117.43363128 49.26213445 112.90907208 35.46875 108.87890625 C34.67597656 108.63785156 33.88320313 108.39679688 33.06640625 108.1484375 C32.40125 107.96152344 31.73609375 107.77460938 31.05078125 107.58203125 C28.65363259 106.37805793 27.74805862 104.97317607 26.31640625 102.7109375 C25.76391602 100.19995117 25.76391602 100.19995117 25.5078125 97.37890625 C25.40299561 96.34024414 25.29817871 95.30158203 25.19018555 94.23144531 C25.08746338 93.13155273 24.98474121 92.03166016 24.87890625 90.8984375 C23.27185664 75.9817753 20.19483285 63.17545757 13.31640625 49.7109375 C12.60484375 48.27427734 12.60484375 48.27427734 11.87890625 46.80859375 C8.41634647 40.09988417 4.23909844 34.41738569 -0.68359375 28.7109375 C-1.81087891 27.36515625 -1.81087891 27.36515625 -2.9609375 25.9921875 C-15.58634229 11.4228387 -30.85604244 2.47936376 -48.68359375 -4.2890625 C-49.76060547 -4.753125 -49.76060547 -4.753125 -50.859375 -5.2265625 C-67.83317211 -12.45265794 -88.9557291 -11.98919805 -106.68359375 -8.2890625 Z " fill="#052A75" transform="translate(394.68359375,30.2890625)"/>
<path d="M0 0 C14.9321182 0.29503636 27.8320097 4.40336603 41.375 10.3125 C42.49132812 10.79847656 43.60765625 11.28445312 44.7578125 11.78515625 C69.58961955 23.42303971 87.622718 45.54480564 98.375 70.3125 C101.70717963 79.89510352 103.88669343 89.72063718 104.796875 99.8203125 C104.87276855 100.62178711 104.94866211 101.42326172 105.02685547 102.24902344 C105.17262821 103.84199734 105.30256564 105.43652143 105.41455078 107.03222656 C105.85359719 111.88818565 106.50902562 114.98825451 110.375 118.3125 C113.09990408 119.43268045 115.87837927 120.05436785 118.75 120.6875 C137.06486276 125.28790702 153.47095657 135.35292216 163.5390625 151.74609375 C174.28249808 169.94563258 178.84877358 189.65198646 173.875 210.5 C168.58726647 230.17774696 156.50086609 246.71844161 139.0234375 257.3515625 C122.75245457 265.98289656 107.1463566 267.03564496 89.03125 267.23046875 C87.88324417 267.24552271 86.73523834 267.26057667 85.55244446 267.27608681 C79.48565963 267.35313588 73.41922955 267.40552923 67.35205078 267.43823242 C61.12675214 267.4770038 54.90653174 267.60446178 48.68299103 267.75171947 C43.85441121 267.84922676 39.0270341 267.87913844 34.19755554 267.89141273 C31.90417739 267.9089196 29.61083441 267.95144528 27.31843567 268.0207119 C7.64359466 268.57765403 7.64359466 268.57765403 -0.35378265 261.17550373 C-3.33646028 258.04376328 -6.00402847 254.7481726 -8.625 251.3125 C-9.66501685 250.05001779 -10.71083583 248.79228759 -11.76306152 247.53996277 C-14.5337883 244.23599452 -17.10578813 240.81086997 -19.625 237.3125 C-20.05651367 236.71469727 -20.48802734 236.11689453 -20.93261719 235.50097656 C-26.81951116 227.24352126 -31.6695476 218.72876071 -36.03125 209.578125 C-37.55261869 206.27637146 -37.55261869 206.27637146 -39.625 203.3125 C-40.24375 203.621875 -40.8625 203.93125 -41.5 204.25 C-45.2277709 206.11388545 -47.37001352 206.64622443 -51.625 206.3125 C-55.4298135 204.58303932 -57.05896005 203.14237806 -58.625 199.3125 C-58.88506222 197.35341835 -58.88506222 197.35341835 -58.89915466 195.26528931 C-58.90912979 194.46911697 -58.91910492 193.67294464 -58.92938232 192.85264587 C-58.930047 191.98813309 -58.93071167 191.1236203 -58.93139648 190.23291016 C-58.93972 189.3153746 -58.94804352 188.39783905 -58.95661926 187.45249939 C-58.98071815 184.41881062 -58.98949105 181.38533684 -58.99609375 178.3515625 C-59.00505978 176.24172908 -59.01418162 174.13189631 -59.02345276 172.02206421 C-59.03994474 167.59867813 -59.04764333 163.17536776 -59.05053711 158.75195312 C-59.05592271 153.08680596 -59.09360967 147.42237123 -59.13928127 141.75742531 C-59.16903767 137.39935717 -59.17626036 133.04146092 -59.17726326 128.68330002 C-59.18146794 126.59491079 -59.19391213 124.50652116 -59.21478081 122.41823196 C-59.2416667 119.49524925 -59.23687798 116.57392254 -59.22436523 113.65087891 C-59.23919952 112.79041458 -59.25403381 111.92995026 -59.26931763 111.04341125 C-59.19603265 105.02508574 -57.82153217 102.60217233 -53.625 98.3125 C-52.56558976 95.72252403 -52.56558976 95.72252403 -52.10546875 93.03125 C-51.89253174 92.03577148 -51.67959473 91.04029297 -51.46020508 90.01464844 C-51.2464624 88.95793945 -51.03271973 87.90123047 -50.8125 86.8125 C-46.38512208 66.96234169 -26.06391467 0.09701209 0 0 Z " fill="#66CBD0" transform="translate(314.625,19.6875)"/>
<path d="M0 0 C6.93 0 13.86 0 21 0 C20.90976562 2.39894531 20.81953125 4.79789062 20.7265625 7.26953125 C20.5715728 13.69679144 20.59891841 20.10958487 20.91796875 26.53125 C20.93513947 27.27514481 20.95231018 28.01903961 20.97000122 28.78547668 C21.29327365 33.91651197 22.80381319 36.6726505 26.30210876 40.41705322 C28.61150099 42.38761162 31.11446664 43.58084972 33.84667969 44.86523438 C37.97261464 47.0395366 41.4528003 50.13563356 45.0625 53.0625 C46.58156313 54.25133202 48.10365999 55.43629876 49.62890625 56.6171875 C50.36254395 57.18663086 51.09618164 57.75607422 51.85205078 58.34277344 C53.88163807 59.90867916 55.92037756 61.46140372 57.96484375 63.0078125 C58.56611084 63.46406006 59.16737793 63.92030762 59.78686523 64.39038086 C61.38623739 65.60136337 62.98983607 66.80675816 64.59375 68.01171875 C67 70 67 70 69 73 C69.24050903 75.82841492 69.24050903 75.82841492 69.22705078 79.30737305 C69.22689972 80.60849533 69.22674866 81.90961761 69.22659302 83.25016785 C69.21637969 84.67068637 69.2059477 86.09120333 69.1953125 87.51171875 C69.19158183 88.96474513 69.18873511 90.41777403 69.18673706 91.87080383 C69.17910481 95.69311482 69.15945992 99.51527354 69.1373291 103.33752441 C69.11686183 107.2386672 69.10773346 111.13983461 69.09765625 115.04101562 C69.07621357 122.69407979 69.04208264 130.34701855 69 138 C70.66373657 138.45814087 70.66373657 138.45814087 72.36108398 138.92553711 C80.90193872 141.44739566 85.7930332 147.41173278 90 155 C90.34160156 155.59167969 90.68320312 156.18335938 91.03515625 156.79296875 C94.75410732 164.62871218 94.34200341 176.31699013 91.5625 184.375 C87.30847946 193.25751473 80.09941233 200.25932381 71 204 C63.68342785 206.51507168 52.1003384 206.40349834 44.9375 203.375 C42.9140625 202.25390625 42.9140625 202.25390625 41 201 C40.30648437 200.57589844 39.61296875 200.15179688 38.8984375 199.71484375 C31.25818693 194.57842062 26.76703823 187.38630199 24.46875 178.53515625 C22.64957983 168.69647759 24.44188964 159.72310665 29.75 151.25 C34.06568382 145.2037697 39.10661492 140.88560306 46 138 C46.66 138 47.32 138 48 138 C48 119.52 48 101.04 48 82 C46.68 81.34 45.36 80.68 44 80 C42.09896464 78.61846679 40.227667 77.19575047 38.375 75.75 C37.54488403 75.10442139 37.54488403 75.10442139 36.69799805 74.44580078 C35.47090089 73.49100089 34.24496815 72.53470321 33.02001953 71.57714844 C30.84926673 69.88231364 28.6731424 68.19455153 26.49609375 66.5078125 C22.66400515 63.53749312 18.83865505 60.55868812 15.01757812 57.57421875 C13.25918608 56.20223038 11.49716302 54.83507871 9.734375 53.46875 C8.85265625 52.7778125 7.9709375 52.086875 7.0625 51.375 C6.33160156 50.80523437 5.60070312 50.23546875 4.84765625 49.6484375 C2.26219301 47.34174514 0.22680515 45.35256182 -0.36076355 41.84857178 C-0.35410172 41.07579895 -0.34743988 40.30302612 -0.34057617 39.50683594 C-0.34034958 38.62622498 -0.34012299 37.74561401 -0.33988953 36.83831787 C-0.32440567 35.89651672 -0.30892181 34.95471558 -0.29296875 33.984375 C-0.28872391 33.01340881 -0.28447906 32.04244263 -0.28010559 31.04205322 C-0.26332853 27.94441869 -0.22567772 24.84743751 -0.1875 21.75 C-0.17245192 19.6484469 -0.15876373 17.5468836 -0.14648438 15.4453125 C-0.11598147 10.2964215 -0.05725758 5.14894106 0 0 Z " fill="#052A75" transform="translate(390,307)"/>
<path d="M0 0 C6.93 0 13.86 0 21 0 C21.13808807 6.13980481 21.25741537 12.27418351 21.32958984 18.41430664 C21.35968519 20.50075576 21.40057226 22.58707917 21.45263672 24.6730957 C21.52577166 27.67951524 21.5595289 30.68425669 21.5859375 33.69140625 C21.61690521 34.61772354 21.64787292 35.54404083 21.67977905 36.49842834 C21.68278529 42.33851272 20.6934257 45.4390703 16.54324341 49.61408997 C16.03397308 50.07144028 15.52470276 50.52879059 15 51 C14.35450195 51.58273682 13.70900391 52.16547363 13.04394531 52.76586914 C12.47772461 53.18473389 11.91150391 53.60359863 11.328125 54.03515625 C10.67231445 54.52765869 10.01650391 55.02016113 9.34082031 55.52758789 C8.65084961 56.03410889 7.96087891 56.54062988 7.25 57.0625 C5.74936308 58.18665028 4.24938648 59.31168244 2.75 60.4375 C1.97527344 61.01628906 1.20054688 61.59507812 0.40234375 62.19140625 C-3.68472795 65.2683399 -7.7163118 68.41610706 -11.75 71.5625 C-12.49991211 72.14588135 -13.24982422 72.7292627 -14.02246094 73.33032227 C-14.73176758 73.88260498 -15.44107422 74.4348877 -16.171875 75.00390625 C-16.83509766 75.51969238 -17.49832031 76.03547852 -18.18164062 76.56689453 C-19.77162615 77.82001148 -21.33368416 79.10839967 -22.890625 80.40234375 C-25 82 -25 82 -27 82 C-27 100.48 -27 118.96 -27 138 C-24.03 138.99 -24.03 138.99 -21 140 C-11.901746 145.25156573 -6.26884213 153.3684401 -3.3125 163.3125 C-2.03169494 174.32742352 -3.6664473 183.75289041 -10.203125 192.89453125 C-16.3904674 200.14448246 -23.45746555 204.55924179 -32.9296875 205.3125 C-44.30388224 205.77208907 -52.34074773 204.30761002 -61.3125 196.875 C-67.9572853 190.56454352 -72.04383687 182.78119068 -72.29223633 173.55444336 C-72.36542395 165.90854151 -71.83740267 159.81360606 -68 153 C-67.66097656 152.36835938 -67.32195312 151.73671875 -66.97265625 151.0859375 C-63.63456939 145.69272954 -58.49157197 142.03752575 -53 139 C-51.34029294 138.63358306 -49.6738137 138.29535838 -48 138 C-48.00888245 137.19677811 -48.01776489 136.39355621 -48.0269165 135.56599426 C-48.10713312 127.9887714 -48.16799995 120.41175501 -48.20724869 112.83421803 C-48.22810547 108.9386919 -48.2563873 105.04351723 -48.30175781 101.14819336 C-48.34528508 97.38749942 -48.36915148 93.6271431 -48.37950897 89.86621666 C-48.38688812 88.43288548 -48.4012982 86.99957235 -48.42292023 85.56638527 C-48.45203957 83.55591546 -48.45363462 81.54510445 -48.45410156 79.53442383 C-48.46298401 78.39080887 -48.47186646 77.24719391 -48.48101807 76.06892395 C-47.79321436 71.68069527 -45.56050183 69.37143155 -42.29931641 66.50537109 C-41.73905762 66.09883301 -41.17879883 65.69229492 -40.6015625 65.2734375 C-39.96452393 64.80470215 -39.32748535 64.3359668 -38.67114258 63.85302734 C-37.658302 63.12140381 -37.658302 63.12140381 -36.625 62.375 C-35.18258781 61.31386603 -33.74120035 60.25133789 -32.30078125 59.1875 C-31.57842285 58.65511719 -30.85606445 58.12273437 -30.11181641 57.57421875 C-25.36246901 54.03389598 -20.67840765 50.37788742 -16.12231445 46.59228516 C-14 45 -14 45 -10.72729492 43.07568359 C-4.2854173 39.17973299 -4.2854173 39.17973299 -0.28036499 33.04302979 C0.77779259 27.68377783 0.52693695 22.30447766 0.3125 16.875 C0.29547823 15.23442597 0.28436264 13.59377951 0.27929688 11.953125 C0.26518011 7.96009734 0.1304016 3.99755731 0 0 Z " fill="#052A75" transform="translate(101,307)"/>
<path d="M0 0 C7.26 0 14.52 0 22 0 C22 45.54 22 91.08 22 138 C24.97 138.99 24.97 138.99 28 140 C36.64860344 145.2035764 42.12246148 152.14290579 44.9375 161.8125 C47.01743449 171.54362207 45.92480226 180.35238111 41 189 C40.65066406 189.62648438 40.30132812 190.25296875 39.94140625 190.8984375 C36.68288193 196.06246567 32.26499125 199.04515797 27 202 C26.11054688 202.51433594 26.11054688 202.51433594 25.203125 203.0390625 C17.87899635 206.50668093 7.72163418 206.13907128 -0.01171875 204.2734375 C-2.47871719 203.3440629 -4.70711748 202.29745671 -7 201 C-7.64324219 200.63777344 -8.28648437 200.27554688 -8.94921875 199.90234375 C-16.0520314 195.35715995 -21.05374159 188.18280909 -23 180 C-24.95074643 169.35406598 -23.80513557 159.78536742 -17.8125 150.625 C-12.76154265 143.99695048 -7.89439634 140.63146545 0 138 C0 92.46 0 46.92 0 0 Z " fill="#052A74" transform="translate(245,307)"/>
<path d="M0 0 C6.93 0 13.86 0 21 0 C21.13847502 4.69789335 21.25764748 9.38859829 21.32958984 14.08691406 C21.35959836 15.68156025 21.40042047 17.27604366 21.45263672 18.87011719 C21.92971936 33.81870667 21.92971936 33.81870667 18.35546875 38.6796875 C17.27135533 39.82015176 16.15289923 40.92911999 15 42 C13.98296266 43.13327018 12.9711332 44.27123802 11.96484375 45.4140625 C10.95962027 46.4880303 9.95052242 47.55838542 8.9375 48.625 C7.42677084 50.22664371 5.92136741 51.83070275 4.43774414 53.45751953 C3.06860808 54.92639398 1.62536028 56.32513746 0.1796875 57.71875 C-2.91101286 62.37141721 -2.77913242 66.40271649 -2.8125 71.875 C-2.83763672 72.84953125 -2.86277344 73.8240625 -2.88867188 74.828125 C-2.94727558 77.21915628 -2.98374991 79.60836847 -3 82 C-2.26652344 82.11214844 -1.53304687 82.22429687 -0.77734375 82.33984375 C6.20524338 83.99955855 11.76604843 88.9835215 15.71484375 94.82421875 C21.31072346 104.29809412 22.90950226 114.02943721 20.3046875 124.90234375 C16.70769019 134.71096247 10.27527641 142.20482628 1.015625 147.03515625 C-7.35881472 150.41956328 -17.9146477 150.49959319 -26.375 147.4375 C-36.93228451 142.40437599 -42.99212046 135.38297705 -47.375 124.625 C-49.18719025 114.11429652 -48.59388338 103.72966824 -42.3125 94.8125 C-38.15368681 89.69954513 -33.17478663 84.55422901 -27 82 C-26.01 82 -25.02 82 -24 82 C-24.02094727 81.18321777 -24.04189453 80.36643555 -24.06347656 79.52490234 C-24.1468513 75.80839445 -24.19872988 72.09208367 -24.25 68.375 C-24.28351563 67.08980469 -24.31703125 65.80460937 -24.3515625 64.48046875 C-24.47294438 52.76711778 -24.47294438 52.76711778 -20 48 C-19.15824219 47.03320312 -18.31648438 46.06640625 -17.44921875 45.0703125 C-16.53253857 44.08490603 -15.61185602 43.1032098 -14.6875 42.125 C-13.71412487 41.08009629 -12.7414697 40.03452145 -11.76953125 38.98828125 C-11.06304443 38.2295874 -11.06304443 38.2295874 -10.34228516 37.45556641 C-7.91929236 34.82808677 -5.58085473 32.12811682 -3.2421875 29.42578125 C-2.51888012 28.59556994 -1.7785963 27.7785963 -1 27 C-0.84174742 25.00217874 -0.74880829 22.99911166 -0.68359375 20.99609375 C-0.62075195 19.17368164 -0.62075195 19.17368164 -0.55664062 17.31445312 C-0.51732422 16.03505859 -0.47800781 14.75566406 -0.4375 13.4375 C-0.37272461 11.51260742 -0.37272461 11.51260742 -0.30664062 9.54882812 C-0.20015281 6.36602555 -0.09953579 3.18302757 0 0 Z " fill="#062A74" transform="translate(173,307)"/>
<path d="M0 0 C6.93 0 13.86 0 21 0 C20.99097656 1.86785156 20.98195313 3.73570312 20.97265625 5.66015625 C21.00080229 8.12762538 21.03085009 10.59507333 21.0625 13.0625 C21.05154297 14.29162109 21.04058594 15.52074219 21.02929688 16.78710938 C21.10012421 24.74142678 21.10012421 24.74142678 25.34375 31.1328125 C26.54431728 32.11128478 27.76110904 33.07052758 29 34 C45.13794228 51.37681461 45.13794228 51.37681461 45.09765625 60.3203125 C45.09443359 61.57714844 45.09121094 62.83398438 45.08789062 64.12890625 C45.07532227 66.10697266 45.07532227 66.10697266 45.0625 68.125 C45.05748489 69.46484211 45.05292201 70.804686 45.04882812 72.14453125 C45.03701086 75.42973206 45.02053617 78.71484397 45 82 C46.57394531 82.36738281 46.57394531 82.36738281 48.1796875 82.7421875 C55.92544164 84.96806853 62.26843666 92.14954686 66.10546875 99.05078125 C70.08362869 107.71934811 70.38412874 117.65791664 67.4375 126.6875 C63.43373493 136.36907825 57.46812956 142.53666227 48 147 C39.76861141 150.27679081 29.90037456 150.47746495 21.5625 147.375 C12.33444177 142.99817636 5.00899936 136.54814027 1.125 126.9375 C-1.72265972 116.98784557 -0.93715788 106.86314701 3.52734375 97.5859375 C7.76236043 90.14938301 13.21684584 85.65714473 21 82 C21.99 82 22.98 82 24 82 C25.04919044 67.66862521 25.04919044 67.66862521 18.99121094 55.27832031 C16.8826214 53.20285665 14.72635258 51.21049307 12.47558594 49.29003906 C10.46565523 47.53284616 8.73625817 45.58687088 7 43.5625 C6.505 43.00691406 6.01 42.45132813 5.5 41.87890625 C1.22783681 36.52757683 -0.59030811 32.87030539 -0.390625 25.9765625 C-0.38496521 25.23038666 -0.37930542 24.48421082 -0.37347412 23.71542358 C-0.35122898 21.35127363 -0.30105984 18.98868541 -0.25 16.625 C-0.22991944 15.01434493 -0.2116714 13.40366591 -0.1953125 11.79296875 C-0.15481751 7.86090552 -0.07651817 3.9321835 0 0 Z " fill="#062A74" transform="translate(318,307)"/>
<path d="M0 0 C0.81597656 -0.00128906 1.63195312 -0.00257812 2.47265625 -0.00390625 C5.82719578 0.76694673 7.42210736 2.21948514 9.9375 4.5625 C11.53036499 7.46466064 11.53036499 7.46466064 12.88037109 10.83300781 C13.12925268 11.4452483 13.37813427 12.05748878 13.63455772 12.68828201 C14.42043835 14.63970917 15.18204694 16.59911037 15.9375 18.5625 C16.30107983 19.49919777 16.30107983 19.49919777 16.6720047 20.45481873 C18.44195246 25.03207273 20.15047761 29.63118231 21.8515625 34.234375 C22.3935716 35.69269201 22.93592729 37.15088023 23.47860718 38.60894775 C24.89051005 42.40472243 26.29850392 46.20193372 27.7053833 49.99957275 C29.96189921 56.08877524 32.22427016 62.17580368 34.48707199 68.26267242 C35.26822354 70.36577018 36.04754246 72.46953948 36.8265686 74.57342529 C39.19288912 80.95257512 41.5912571 87.30762418 44.20614624 93.58990479 C45.28442994 96.49823368 45.56101042 98.51422684 44.9375 101.5625 C42.87357742 105.09114183 41.65690527 106.97485516 37.77734375 108.30078125 C33.86501046 108.94739393 31.88471915 109.1144456 28.36328125 107.0625 C25.21777765 103.82075716 24.05655442 100.66039668 22.625 96.4375 C22.36138672 95.70917969 22.09777344 94.98085937 21.82617188 94.23046875 C19.9375 88.92256494 19.9375 88.92256494 19.9375 86.5625 C6.7375 86.5625 -6.4625 86.5625 -20.0625 86.5625 C-21.0525 89.5325 -22.0425 92.5025 -23.0625 95.5625 C-26.76375516 105.6608064 -26.76375516 105.6608064 -32.0625 108.5625 C-35.62974837 109.08272372 -37.53166312 108.80378949 -40.8125 107.3125 C-43.25847914 105.41007178 -44.16290209 104.50663861 -45.0625 101.5625 C-45.64155598 95.1231879 -43.77698975 90.25919921 -41.43359375 84.3125 C-40.86164276 82.81954659 -40.86164276 82.81954659 -40.27813721 81.2964325 C-39.03023681 78.04722779 -37.76578024 74.80477679 -36.5 71.5625 C-35.63234983 69.32040467 -34.7655764 67.07796988 -33.8996582 64.83520508 C-32.57999879 61.41867736 -31.25907954 58.00267752 -29.93315125 54.58857727 C-27.11840591 47.3347439 -24.37117051 40.0592091 -21.671875 32.76171875 C-20.67868792 30.09833943 -19.68378392 27.43560979 -18.6880188 24.77319336 C-18.06693438 23.1025274 -17.45167159 21.42968466 -16.84249878 19.75463867 C-15.99859222 17.43802098 -15.13283863 15.13071466 -14.26171875 12.82421875 C-14.02487366 12.15565353 -13.78802856 11.48708832 -13.54400635 10.79826355 C-11.18031711 4.66330882 -7.00764968 -0.18879563 0 0 Z " fill="#FCFDFE" transform="translate(187.0625,117.4375)"/>
<path d="M0 0 C1.45647985 -0.01141644 2.91292139 -0.03170044 4.36914062 -0.06152344 C17.30244369 -0.32622287 29.00728953 1.105144 38.83642578 10.29516602 C46.26304688 17.63543105 49.88367861 25.5263434 50.14892578 35.98266602 C50.03210763 46.56119857 45.35356094 54.43914049 38.24658203 61.98266602 C31.23606455 68.58080012 23.25343956 70.76816058 13.78173828 70.64672852 C12.76853516 70.61321289 11.75533203 70.57969727 10.71142578 70.54516602 C9.65955078 70.52711914 8.60767578 70.50907227 7.52392578 70.49047852 C4.96043156 70.44386953 2.39894484 70.37846871 -0.16357422 70.29516602 C-0.14786377 71.20806396 -0.13215332 72.12096191 -0.1159668 73.06152344 C-0.06470452 76.46278612 -0.02715983 79.86363565 0.0012207 83.26513672 C0.01626644 84.73460384 0.03670816 86.20402636 0.06274414 87.67333984 C0.09931534 89.79088371 0.11619379 91.90783166 0.12939453 94.02563477 C0.14510498 95.29818115 0.16081543 96.57072754 0.17700195 97.88183594 C-0.27350469 102.3969136 -1.80874164 104.94033344 -4.97607422 108.10766602 C-7.93923063 109.71623664 -9.83116791 109.70321577 -13.16357422 109.29516602 C-16.96838771 107.56570534 -18.59753426 106.12504408 -20.16357422 102.29516602 C-20.42363644 100.33608437 -20.42363644 100.33608437 -20.43772888 98.24795532 C-20.44770401 97.45178299 -20.45767914 96.65561066 -20.46795654 95.83531189 C-20.46862122 94.9707991 -20.46928589 94.10628632 -20.4699707 93.21557617 C-20.47829422 92.29804062 -20.48661774 91.38050507 -20.49519348 90.43516541 C-20.51929237 87.40147664 -20.52806527 84.36800286 -20.53466797 81.33422852 C-20.543634 79.22439509 -20.55275584 77.11456233 -20.56202698 75.00473022 C-20.57851896 70.58134414 -20.58621755 66.15803377 -20.58911133 61.73461914 C-20.59449693 56.06947198 -20.63218389 50.40503724 -20.67785549 44.74009132 C-20.70761189 40.38202318 -20.71483457 36.02412694 -20.71583748 31.66596603 C-20.72004216 29.5775768 -20.73248635 27.48918717 -20.75335503 25.40089798 C-20.78024092 22.47791527 -20.7754522 19.55658856 -20.76293945 16.63354492 C-20.78519089 15.34284843 -20.78519089 15.34284843 -20.80789185 14.02607727 C-20.75652369 9.80760996 -20.45035759 7.11714259 -17.75111389 3.77401733 C-12.65402807 -1.10896786 -6.67991169 0.03634418 0 0 Z " fill="#FCFEFE" transform="translate(276.16357421875,116.704833984375)"/>
<path d="M0 0 C6.93 0 13.86 0 21 0 C20.90976562 2.39894531 20.81953125 4.79789062 20.7265625 7.26953125 C20.5715728 13.69679144 20.59891841 20.10958487 20.91796875 26.53125 C20.93513947 27.27514481 20.95231018 28.01903961 20.97000122 28.78547668 C21.29327365 33.91651197 22.80381319 36.6726505 26.30210876 40.41705322 C28.61150099 42.38761162 31.11446664 43.58084972 33.84667969 44.86523438 C37.97261464 47.0395366 41.4528003 50.13563356 45.0625 53.0625 C46.58156313 54.25133202 48.10365999 55.43629876 49.62890625 56.6171875 C50.36254395 57.18663086 51.09618164 57.75607422 51.85205078 58.34277344 C53.88163807 59.90867916 55.92037756 61.46140372 57.96484375 63.0078125 C58.56611084 63.46406006 59.16737793 63.92030762 59.78686523 64.39038086 C61.38623739 65.60136337 62.98983607 66.80675816 64.59375 68.01171875 C67 70 67 70 69 73 C69.24050903 75.82841492 69.24050903 75.82841492 69.22705078 79.30737305 C69.22689972 80.60849533 69.22674866 81.90961761 69.22659302 83.25016785 C69.21637969 84.67068637 69.2059477 86.09120333 69.1953125 87.51171875 C69.19158183 88.96474513 69.18873511 90.41777403 69.18673706 91.87080383 C69.17910481 95.69311482 69.15945992 99.51527354 69.1373291 103.33752441 C69.11686183 107.2386672 69.10773346 111.13983461 69.09765625 115.04101562 C69.07621354 122.69408783 69.04103484 130.34700317 69 138 C62.07 138 55.14 138 48 138 C48 119.52 48 101.04 48 82 C46.68 81.34 45.36 80.68 44 80 C42.09896464 78.61846679 40.227667 77.19575047 38.375 75.75 C37.54488403 75.10442139 37.54488403 75.10442139 36.69799805 74.44580078 C35.47090089 73.49100089 34.24496815 72.53470321 33.02001953 71.57714844 C30.84926673 69.88231364 28.6731424 68.19455153 26.49609375 66.5078125 C22.66400515 63.53749312 18.83865505 60.55868812 15.01757812 57.57421875 C13.25918608 56.20223038 11.49716302 54.83507871 9.734375 53.46875 C8.85265625 52.7778125 7.9709375 52.086875 7.0625 51.375 C6.33160156 50.80523437 5.60070312 50.23546875 4.84765625 49.6484375 C2.26219301 47.34174514 0.22680515 45.35256182 -0.36076355 41.84857178 C-0.35410172 41.07579895 -0.34743988 40.30302612 -0.34057617 39.50683594 C-0.34034958 38.62622498 -0.34012299 37.74561401 -0.33988953 36.83831787 C-0.32440567 35.89651672 -0.30892181 34.95471558 -0.29296875 33.984375 C-0.28872391 33.01340881 -0.28447906 32.04244263 -0.28010559 31.04205322 C-0.26332853 27.94441869 -0.22567772 24.84743751 -0.1875 21.75 C-0.17245192 19.6484469 -0.15876373 17.5468836 -0.14648438 15.4453125 C-0.11598147 10.2964215 -0.05725758 5.14894106 0 0 Z " fill="#FCCA4F" transform="translate(390,307)"/>
<path d="M0 0 C6.93 0 13.86 0 21 0 C21.13808807 6.13980481 21.25741537 12.27418351 21.32958984 18.41430664 C21.35968519 20.50075576 21.40057226 22.58707917 21.45263672 24.6730957 C21.52577166 27.67951524 21.5595289 30.68425669 21.5859375 33.69140625 C21.61690521 34.61772354 21.64787292 35.54404083 21.67977905 36.49842834 C21.68278529 42.33851272 20.6934257 45.4390703 16.54324341 49.61408997 C16.03397308 50.07144028 15.52470276 50.52879059 15 51 C14.35450195 51.58273682 13.70900391 52.16547363 13.04394531 52.76586914 C12.47772461 53.18473389 11.91150391 53.60359863 11.328125 54.03515625 C10.67231445 54.52765869 10.01650391 55.02016113 9.34082031 55.52758789 C8.65084961 56.03410889 7.96087891 56.54062988 7.25 57.0625 C5.74936308 58.18665028 4.24938648 59.31168244 2.75 60.4375 C1.97527344 61.01628906 1.20054688 61.59507812 0.40234375 62.19140625 C-3.68472795 65.2683399 -7.7163118 68.41610706 -11.75 71.5625 C-12.49991211 72.14588135 -13.24982422 72.7292627 -14.02246094 73.33032227 C-14.73176758 73.88260498 -15.44107422 74.4348877 -16.171875 75.00390625 C-16.83509766 75.51969238 -17.49832031 76.03547852 -18.18164062 76.56689453 C-19.77162615 77.82001148 -21.33368416 79.10839967 -22.890625 80.40234375 C-25 82 -25 82 -27 82 C-27 100.48 -27 118.96 -27 138 C-33.93 138 -40.86 138 -48 138 C-48.09044315 129.61139821 -48.1637971 121.22317676 -48.20724869 112.83421803 C-48.22810547 108.9386919 -48.2563873 105.04351723 -48.30175781 101.14819336 C-48.34528508 97.38749942 -48.36915148 93.6271431 -48.37950897 89.86621666 C-48.38688812 88.43288548 -48.4012982 86.99957235 -48.42292023 85.56638527 C-48.45203957 83.55591546 -48.45363462 81.54510445 -48.45410156 79.53442383 C-48.46742523 77.81900139 -48.46742523 77.81900139 -48.48101807 76.06892395 C-47.79321436 71.68069527 -45.56050183 69.37143155 -42.29931641 66.50537109 C-41.45892822 65.89556396 -41.45892822 65.89556396 -40.6015625 65.2734375 C-39.96452393 64.80470215 -39.32748535 64.3359668 -38.67114258 63.85302734 C-37.658302 63.12140381 -37.658302 63.12140381 -36.625 62.375 C-35.18258781 61.31386603 -33.74120035 60.25133789 -32.30078125 59.1875 C-31.57842285 58.65511719 -30.85606445 58.12273437 -30.11181641 57.57421875 C-25.36246901 54.03389598 -20.67840765 50.37788742 -16.12231445 46.59228516 C-14 45 -14 45 -10.72729492 43.07568359 C-4.2854173 39.17973299 -4.2854173 39.17973299 -0.28036499 33.04302979 C0.77779259 27.68377783 0.52693695 22.30447766 0.3125 16.875 C0.29547823 15.23442597 0.28436264 13.59377951 0.27929688 11.953125 C0.26518011 7.96009734 0.1304016 3.99755731 0 0 Z " fill="#FCCB4F" transform="translate(101,307)"/>
<path d="M0 0 C7.26 0 14.52 0 22 0 C22 45.54 22 91.08 22 138 C14.74 138 7.48 138 0 138 C0 92.46 0 46.92 0 0 Z " fill="#FDCA4F" transform="translate(245,307)"/>
<path d="M0 0 C2.8100346 1.79363911 4.50940468 3.01880935 6 6 C6.10914536 8.96363336 6.1573383 11.90412438 6.16113281 14.8684082 C6.16609772 15.787258 6.17106262 16.70610779 6.17617798 17.65280151 C6.1908206 20.70213563 6.19760535 23.75141771 6.203125 26.80078125 C6.20887504 28.91586814 6.21463279 31.03095502 6.22039795 33.14604187 C6.23091413 37.58556359 6.23675265 42.02506718 6.24023438 46.46459961 C6.24571819 52.15436515 6.26974133 57.84389127 6.29820633 63.53358173 C6.31682756 67.90446168 6.32203805 72.27528392 6.32357025 76.64620018 C6.32659883 78.74376928 6.33463424 80.84133732 6.34775543 82.93886757 C6.36480381 85.87389974 6.36293846 88.80834665 6.35644531 91.7434082 C6.3656601 92.61060989 6.37487488 93.47781158 6.3843689 94.37129211 C6.35172616 99.07987424 6.04437997 102.16632011 3 106 C-0.21553446 108.32849047 -3.11021377 108.54457007 -7 108 C-10.42765324 105.93227415 -12.70709412 103.87871765 -14 100 C-14.11222936 97.02920908 -14.16771495 94.08128734 -14.17700195 91.10986328 C-14.18357315 90.20062103 -14.19014435 89.29137878 -14.19691467 88.35458374 C-14.21663947 85.34315917 -14.22830719 82.3317844 -14.23828125 79.3203125 C-14.24235678 78.29224361 -14.2464323 77.26417473 -14.25063133 76.20495224 C-14.2714865 70.76570588 -14.2857918 65.32648472 -14.29516602 59.88720703 C-14.30624182 54.26577815 -14.34065696 48.64474386 -14.38033772 43.02345467 C-14.40646041 38.70318863 -14.41485389 34.38301736 -14.41844749 30.06267929 C-14.42332306 27.9902161 -14.43496453 25.91775741 -14.45348549 23.84537125 C-14.47778889 20.94623585 -14.47692818 18.0481315 -14.4699707 15.14892578 C-14.48278076 14.29264587 -14.49559082 13.43636597 -14.50878906 12.55413818 C-14.47331733 8.50079141 -14.31440099 6.49681931 -12.09562683 2.99069214 C-8.45811035 -0.46468234 -4.86184396 -0.6985408 0 0 Z " fill="#FEFEFE" transform="translate(364,118)"/>
<path d="M0 0 C6.93 0 13.86 0 21 0 C20.99097656 1.86785156 20.98195313 3.73570312 20.97265625 5.66015625 C21.00080229 8.12762538 21.03085009 10.59507333 21.0625 13.0625 C21.05154297 14.29162109 21.04058594 15.52074219 21.02929688 16.78710938 C21.10012421 24.74142678 21.10012421 24.74142678 25.34375 31.1328125 C26.54431728 32.11128478 27.76110904 33.07052758 29 34 C45.13794228 51.37681461 45.13794228 51.37681461 45.09765625 60.3203125 C45.09443359 61.57714844 45.09121094 62.83398438 45.08789062 64.12890625 C45.07532227 66.10697266 45.07532227 66.10697266 45.0625 68.125 C45.05748489 69.46484211 45.05292201 70.804686 45.04882812 72.14453125 C45.03701095 75.42970657 45.01907501 78.71485881 45 82 C38.07 82 31.14 82 24 82 C24.0825 78.803125 24.165 75.60625 24.25 72.3125 C24.12286902 64.4679131 23.05316882 59.27646496 17.375 53.6875 C15.77351345 52.17904587 14.14915832 50.71800531 12.47558594 49.29003906 C10.46565523 47.53284616 8.73625817 45.58687088 7 43.5625 C6.505 43.00691406 6.01 42.45132813 5.5 41.87890625 C1.22783681 36.52757683 -0.59030811 32.87030539 -0.390625 25.9765625 C-0.38496521 25.23038666 -0.37930542 24.48421082 -0.37347412 23.71542358 C-0.35122898 21.35127363 -0.30105984 18.98868541 -0.25 16.625 C-0.22991944 15.01434493 -0.2116714 13.40366591 -0.1953125 11.79296875 C-0.15481751 7.86090552 -0.07651817 3.9321835 0 0 Z " fill="#FCCA4F" transform="translate(318,307)"/>
<path d="M0 0 C6.93 0 13.86 0 21 0 C21.13847502 4.69789335 21.25764748 9.38859829 21.32958984 14.08691406 C21.35959836 15.68156025 21.40042047 17.27604366 21.45263672 18.87011719 C21.92971936 33.81870667 21.92971936 33.81870667 18.35546875 38.6796875 C17.27135533 39.82015176 16.15289923 40.92911999 15 42 C13.98296266 43.13327018 12.9711332 44.27123802 11.96484375 45.4140625 C10.95962027 46.4880303 9.95052242 47.55838542 8.9375 48.625 C7.42677084 50.22664371 5.92136741 51.83070275 4.43774414 53.45751953 C3.06860808 54.92639398 1.62536028 56.32513746 0.1796875 57.71875 C-2.9126616 62.37389919 -2.77740134 66.40722115 -2.8125 71.875 C-2.874375 75.21625 -2.93625 78.5575 -3 82 C-9.93 82 -16.86 82 -24 82 C-24.10800723 77.45769588 -24.18733842 72.91796461 -24.25 68.375 C-24.28351563 67.08980469 -24.31703125 65.80460937 -24.3515625 64.48046875 C-24.47294438 52.76711778 -24.47294438 52.76711778 -20 48 C-19.15824219 47.03320312 -18.31648437 46.06640625 -17.44921875 45.0703125 C-16.53253857 44.08490603 -15.61185602 43.1032098 -14.6875 42.125 C-13.71412487 41.08009629 -12.7414697 40.03452145 -11.76953125 38.98828125 C-11.29854004 38.48248535 -10.82754883 37.97668945 -10.34228516 37.45556641 C-7.91929236 34.82808677 -5.58085473 32.12811682 -3.2421875 29.42578125 C-2.51888012 28.59556994 -1.7785963 27.7785963 -1 27 C-0.84174742 25.00217874 -0.74880829 22.99911166 -0.68359375 20.99609375 C-0.64169922 19.78115234 -0.59980469 18.56621094 -0.55664062 17.31445312 C-0.51732422 16.03505859 -0.47800781 14.75566406 -0.4375 13.4375 C-0.39431641 12.15423828 -0.35113281 10.87097656 -0.30664062 9.54882812 C-0.20015281 6.36602555 -0.09953579 3.18302757 0 0 Z " fill="#FCCA50" transform="translate(173,307)"/>
<path d="M0 0 C2.990625 -0.0825 5.98125 -0.165 9.0625 -0.25 C9.99070557 -0.28641602 10.91891113 -0.32283203 11.87524414 -0.36035156 C17.79818326 -0.43882623 21.17107071 0.52590544 26 4 C28.64867608 6.66815164 29.89464821 9.48820177 30.15625 13.2421875 C29.80810153 18.41219232 28.48520008 22.04382693 25 26 C19.72894261 29.44614726 15.18534221 29.36409068 9.125 29.1875 C6.11375 29.125625 3.1025 29.06375 0 29 C0 19.43 0 9.86 0 0 Z " fill="#68CCD1" transform="translate(276,138)"/>
<path d="M0 0 C3.5677811 2.35149209 5.84221079 4.99692157 7.75 8.8125 C8.15331428 14.05558569 7.61051133 17.37377553 4.75 21.8125 C1.07297423 25.21374883 -1.53622563 26.65082317 -6.5625 27.125 C-11.63517063 26.69511266 -14.29686239 24.49623932 -18.0625 21.25 C-20.75614482 17.98927206 -20.58351862 14.11580625 -20.53125 10.09765625 C-19.96546306 5.50063738 -17.43953344 2.80377787 -14 -0.0625 C-9.0209333 -2.09939092 -4.91636794 -1.79636521 0 0 Z " fill="#F77B9F" transform="translate(455.25,465.1875)"/>
<path d="M0 0 C3.98753693 2.09514652 6.49992322 4.06229676 8.09375 8.28125 C8.64725509 12.56116965 8.59514247 16.09374151 6.90625 20.09375 C4.37924495 23.14358368 1.64456434 25.50584283 -1.90625 27.28125 C-8.01310229 27.79015436 -11.03584772 27.3587961 -15.90625 23.28125 C-18.80251035 19.98550546 -19.80285298 17.37725845 -20.21875 12.96875 C-19.77936537 7.78401139 -17.70871279 4.86523245 -13.84375 1.46875 C-9.55084314 -1.16238646 -4.77281121 -1.79958456 0 0 Z " fill="#F87B9F" transform="translate(68.90625,464.71875)"/>
<path d="M0 0 C4.71362305 1.9901964 7.72172827 5.44345654 10 10 C10.40331428 15.24308569 9.86051133 18.56127553 7 23 C3.32297423 26.40124883 0.71377437 27.83832317 -4.3125 28.3125 C-9.49723861 27.87311537 -12.41601755 25.80246279 -15.8125 21.9375 C-18.23789522 17.98027622 -18.31372523 14.54901583 -18 10 C-14.46523399 1.75221264 -8.59762317 -1.44885872 0 0 Z " fill="#F97B9F" transform="translate(260,464)"/>
<path d="M0 0 C4.15235536 1.7151033 6.79673658 4.08308726 9 8 C9.65827511 12.85660744 9.6111334 17.31039589 7.9375 21.9375 C4.20544658 25.91033106 0.73691668 27.75622222 -4.5625 28.5 C-9.71790034 27.75012359 -13.69145315 25.00508303 -17 21 C-18.45132458 16.64602625 -18.64332822 12.54571477 -18 8 C-13.94802066 0.31844843 -7.96172515 -0.81658719 0 0 Z " fill="#F87B9F" transform="translate(164,408)"/>
<path d="M0 0 C4.01610676 2.04456344 6.61203911 4.20252637 9 8 C9.74252547 12.4769918 9.54587651 16.67840424 7.8125 20.875 C4.4496273 24.81767834 1.80317302 27.11935833 -3.375 28 C-8.43911922 28.35448835 -10.98481302 27.0515421 -15 24 C-18.60019069 20.16753895 -18.61203635 15.78128811 -18.49609375 10.734375 C-17.7051922 6.37507512 -15.35733934 3.76589096 -12 1 C-8.29018719 -0.85490641 -4.04876607 -0.4540091 0 0 Z " fill="#F97B9F" transform="translate(357,408)"/>
<path d="M0 0 C0.66 0 1.32 0 2 0 C3.56861844 4.25339842 5.13514517 8.50755891 6.69970703 12.76245117 C7.23265552 14.21090696 7.76618298 15.65914984 8.30029297 17.10717773 C9.06628987 19.18418047 9.83022617 21.26193083 10.59375 23.33984375 C10.83436157 23.99089584 11.07497314 24.64194794 11.32287598 25.31272888 C13 29.88612829 13 29.88612829 13 31 C5.08 31 -2.84 31 -11 31 C-7.625 19.75 -7.625 19.75 -5.95703125 15.4296875 C-5.60576172 14.51445312 -5.25449219 13.59921875 -4.89257812 12.65625 C-4.53615234 11.7384375 -4.17972656 10.820625 -3.8125 9.875 C-3.44447266 8.91851562 -3.07644531 7.96203125 -2.69726562 6.9765625 C-1.80144555 4.64975711 -0.90232227 2.32428979 0 0 Z " fill="#2DA4CD" transform="translate(186,153)"/>
</svg>
