<?xml version="1.0" encoding="UTF-8"?>
<svg version="1.1" xmlns="http://www.w3.org/2000/svg" width="512" height="512">
<path d="M0 0 C168.96 0 337.92 0 512 0 C512 168.96 512 337.92 512 512 C343.04 512 174.08 512 0 512 C0 343.04 0 174.08 0 0 Z " fill="#203C55" transform="translate(0,0)"/>
<path d="M0 0 C11.24206517 2.24841303 11.24206517 2.24841303 15.8125 3.953125 C16.81458496 4.32155518 17.81666992 4.68998535 18.84912109 5.06958008 C19.88891113 5.45911865 20.92870117 5.84865723 22 6.25 C24.24160453 7.07320376 26.48379471 7.89481451 28.7265625 8.71484375 C29.80969727 9.11171387 30.89283203 9.50858398 32.00878906 9.91748047 C35.77725069 11.2812871 39.566433 12.5659406 43.375 13.8125 C51.96314906 16.63396104 60.5134437 19.56278517 69.0625 22.5 C72.11843921 23.54962589 75.17443113 24.59909817 78.23046875 25.6484375 C79.4115773 26.05401634 79.4115773 26.05401634 80.61654663 26.4677887 C89.15459588 29.3984199 97.69827725 32.31251078 106.24191284 35.22680664 C118.66789419 39.46553223 131.09097055 43.71185356 143.5 48 C154.97033786 51.96352498 166.45208629 55.89291687 177.9375 59.8125 C179.70198682 60.41479158 181.46647249 61.01708651 183.23095703 61.61938477 C190.10393015 63.9652013 196.9769826 66.31078309 203.85107422 68.65332031 C208.52621726 70.24658025 213.20086153 71.84129535 217.875 73.4375 C218.64090454 73.69902863 219.40680908 73.96055725 220.19592285 74.23001099 C234.14677475 78.99688726 248.06453413 83.85660936 261.97943115 88.7272644 C272.4620893 92.39484166 282.95152518 96.02544322 293.5 99.5 C304.48469801 103.11889041 315.39981961 106.92105953 326.3125 110.75 C344.49816793 117.12989006 362.74034043 123.33609446 381 129.5 C400.74634303 136.16644954 420.46605433 142.89992527 440.13208008 149.80053711 C448.58137977 152.76456202 457.03657599 155.7082134 465.51171875 158.59765625 C466.3732254 158.89143158 467.23473206 159.18520691 468.12234497 159.48788452 C472.17199803 160.86771831 476.22284898 162.2439087 480.27539062 163.61523438 C483.81875414 164.816618 487.35670051 166.032611 490.8895874 167.26446533 C492.3423765 167.7708008 493.7962616 168.27399897 495.2510376 168.77459717 C497.47070484 169.54291374 499.68310445 170.32941318 501.89453125 171.12109375 C502.5659465 171.35087418 503.23736176 171.5806546 503.92912292 171.81739807 C508.15217823 173.35797624 509.15072632 174.20096843 512 178 C512 184.93 512 191.86 512 199 C343.04 199 174.08 199 0 199 C0 133.33 0 67.66 0 0 Z " fill="#1E6380" transform="translate(0,313)"/>
<path d="M0 0 C0 53.46 0 106.92 0 162 C-1.65 160.68 -3.3 159.36 -5 158 C-7.52031359 156.94643206 -9.95311558 156.02974563 -12.5390625 155.18359375 C-13.27959869 154.93185898 -14.02013489 154.68012421 -14.78311157 154.42076111 C-16.37091117 153.88202753 -17.96022876 153.34775067 -19.55090332 152.81756592 C-21.97626407 152.00792361 -24.39643718 151.18441516 -26.81542969 150.35595703 C-31.08140346 148.8957563 -35.35057012 147.44516351 -39.62063599 145.99697876 C-55.29532005 140.67899637 -70.94318982 135.29084834 -86.5625 129.8125 C-103.83496086 123.75575147 -121.15950215 117.85874726 -138.5 112 C-156.70772456 105.84824719 -174.89234783 99.63974833 -193.02813721 93.27886963 C-207.37696943 88.24659548 -221.75899006 83.31830287 -236.15759277 78.4303894 C-248.86272596 74.1156 -261.53748266 69.72368419 -274.1875 65.25 C-289.98238749 59.66438164 -305.84937371 54.31600828 -321.75976562 49.06933594 C-325.84285776 47.7218417 -329.92184495 46.36235311 -334 45 C-330.72887618 42.81925079 -329.00690371 42.53992517 -325.16049194 42.04058838 C-323.93981522 41.87822693 -322.71913849 41.71586548 -321.46147156 41.54858398 C-320.10502977 41.37631686 -318.74856852 41.20420294 -317.39208984 41.03222656 C-315.96369246 40.84529802 -314.53538532 40.6576788 -313.10716248 40.46942139 C-309.21045449 39.95784718 -305.3125305 39.45614939 -301.41431379 38.95621967 C-297.28718487 38.42531868 -293.16119771 37.88568321 -289.0350647 37.34710693 C-282.05627463 36.43743133 -275.07674729 35.53360712 -268.09667969 34.63378906 C-258.438433 33.38870359 -248.78161422 32.13282392 -239.12504494 30.87480533 C-208.92160519 26.94155477 -178.71530538 23.04230371 -148.47696114 19.38544655 C-127.67130658 16.86789153 -106.89943636 14.11436556 -86.12982178 11.31671143 C-81.39993694 10.68006907 -76.66969226 10.04611307 -71.93945312 9.41210938 C-71.00351255 9.28665552 -70.06757198 9.16120167 -69.10326958 9.03194618 C-67.22395762 8.78004874 -65.34464384 8.52816485 -63.46532822 8.27629471 C-60.70937103 7.90684661 -57.9534534 7.53710453 -55.19754028 7.16732788 C-42.56463077 5.47303341 -29.92972796 3.79424185 -17.29296875 2.12890625 C-16.46275019 2.01928999 -15.63253162 1.90967373 -14.77715492 1.79673576 C-12.46896101 1.49211726 -10.16065142 1.18839346 -7.85229492 0.88500977 C-6.54757736 0.71332779 -5.2428598 0.54164581 -3.89860535 0.36476135 C-1 0 -1 0 0 0 Z " fill="#1F4C67" transform="translate(512,329)"/>
<path d="M0 0 C9.9 0 19.8 0 30 0 C30 14.19 30 28.38 30 43 C43.53 43 57.06 43 71 43 C71 28.81 71 14.62 71 0 C80.9 0 90.8 0 101 0 C101 36.3 101 72.6 101 110 C91.1 110 81.2 110 71 110 C71 95.81 71 81.62 71 67 C57.47 67 43.94 67 30 67 C30 81.19 30 95.38 30 110 C20.1 110 10.2 110 0 110 C0 73.7 0 37.4 0 0 Z " fill="#FCFCFD" transform="translate(206,201)"/>
<path d="M0 0 C66.89473684 0 66.89473684 0 79 10.78125 C87.44220675 19.66012262 89.69902025 28.69258142 89.52368164 40.64648438 C89.11192104 50.72653598 86.37432297 59.79327528 79 67 C67.93101115 75.54237183 58.19591298 77.439275 44.4375 77.6875 C40.003125 77.790625 35.56875 77.89375 31 78 C30.67 88.56 30.34 99.12 30 110 C20.1 110 10.2 110 0 110 C0 73.7 0 37.4 0 0 Z " fill="#FDFDFD" transform="translate(336,201)"/>
<path d="M0 0 C1.69745361 -0.03468384 1.69745361 -0.03468384 3.42919922 -0.07006836 C14.79719192 0.034839 25.74118476 4.07041167 34.375 11.625 C40.53953479 18.77640111 43.375 26.25434808 43.375 35.625 C33.805 35.625 24.235 35.625 14.375 35.625 C13.385 33.315 12.395 31.005 11.375 28.625 C5.80858057 25.03002078 -0.12465153 24.7660951 -6.625 25.625 C-9.56841373 26.57230557 -10.404516 27.28448983 -12.625 29.625 C-13.54166667 33.125 -13.54166667 33.125 -12.625 36.625 C-9.19517606 39.96317119 -6.19780781 41.31203419 -1.58203125 42.40625 C-0.42509766 42.69113281 0.73183594 42.97601563 1.92382812 43.26953125 C3.7249707 43.69298828 3.7249707 43.69298828 5.5625 44.125 C33.9198893 50.90107011 33.9198893 50.90107011 42.1875 64.3359375 C46.20978862 72.08942806 46.41047753 80.4823715 44.125 88.8125 C41.29847115 97.25301011 35.89961902 103.55893137 28.1015625 107.88671875 C18.63246769 112.2334534 10.00817431 112.98990643 -0.3125 113 C-1.61123047 113.02449219 -2.90996094 113.04898438 -4.24804688 113.07421875 C-17.6005492 113.11445733 -28.5991223 109.87058404 -38.59375 100.84765625 C-46.488716 92.66833766 -47.625 84.83070625 -47.625 73.625 C-38.385 73.625 -29.145 73.625 -19.625 73.625 C-18.305 76.595 -16.985 79.565 -15.625 82.625 C-9.56259623 87.57390103 -4.20277159 88.26301031 3.375 87.625 C7.80194544 86.56399655 10.76241373 85.5438794 13.375 81.625 C13.95850505 79.16790625 13.95850505 79.16790625 13.375 76.625 C7.63581223 70.52711299 -0.9839275 69.20955538 -8.875 67.75 C-20.30291135 65.47039919 -32.62920686 62.27692014 -40.15234375 52.67578125 C-45.32515229 44.80411608 -46.82839047 37.31949153 -45.16015625 28.0390625 C-42.54820851 17.99310964 -36.38707169 11.01302021 -27.625 5.625 C-18.72714735 0.60569851 -10.02001646 0.12472201 0 0 Z " fill="#FCFDFD" transform="translate(134.625,199.375)"/>
<path d="M0 0 C4.021875 -0.0928125 4.021875 -0.0928125 8.125 -0.1875 C8.95789551 -0.21481201 9.79079102 -0.24212402 10.64892578 -0.27026367 C15.5165823 -0.32427131 18.78185795 0.3151494 23 3 C27.44427138 7.92473315 28.36172836 10.95394683 28.27734375 17.4609375 C27.73364094 22.43849848 25.13962215 25.04452411 21.4375 28.1484375 C16.96292492 30.55860635 13.59825242 30.45461588 8.625 30.25 C4.355625 30.12625 4.355625 30.12625 0 30 C0 20.1 0 10.2 0 0 Z " fill="#264058" transform="translate(366,225)"/>
<path d="M0 0 C9.9 3.3 19.8 6.6 30 10 C30 10.99 30 11.98 30 13 C22.89125763 15.47260604 15.66990634 16.55289454 8.625 13.3125 C5.2650036 11.37795662 3.01019779 9.37713229 1 6 C0.67 4.02 0.34 2.04 0 0 Z " fill="#24465E" transform="translate(115,273)"/>
</svg>
