<?xml version="1.0" encoding="UTF-8"?>
<svg version="1.1" xmlns="http://www.w3.org/2000/svg" width="250" height="250">
<path d="M0 0 C1.01320312 0.78310547 1.01320312 0.78310547 2.046875 1.58203125 C7.53950864 5.95346216 11.7314929 11.46844089 16 17 C16.60972656 17.78246094 17.21945313 18.56492188 17.84765625 19.37109375 C35.65360145 43.42331586 42.4435624 74.22646769 38.22631836 103.67626953 C34.59625185 125.10350017 25.7143934 143.32851328 12 160 C11.21689453 161.01320312 11.21689453 161.01320312 10.41796875 162.046875 C6.04653784 167.53950864 0.53155911 171.7314929 -5 176 C-5.78246094 176.60972656 -6.56492188 177.21945313 -7.37109375 177.84765625 C-31.48508344 195.69932821 -61.70316202 201.92979147 -91.1875 198.3125 C-114.27571807 194.3877736 -135.07043075 184.2486725 -152 168 C-152.845625 167.195625 -153.69125 166.39125 -154.5625 165.5625 C-155.366875 164.716875 -156.17125 163.87125 -157 163 C-157.65355469 162.34128906 -158.30710937 161.68257812 -158.98046875 161.00390625 C-179.62264861 139.36692255 -187.56327272 109.91477796 -187.2109375 80.67578125 C-186.51167551 54.86783401 -176.20467746 31.69872506 -160 12 C-159.47792969 11.32453125 -158.95585937 10.6490625 -158.41796875 9.953125 C-154.04653784 4.46049136 -148.53155911 0.2685071 -143 -4 C-142.21753906 -4.60972656 -141.43507812 -5.21945313 -140.62890625 -5.84765625 C-98.04070878 -37.37584965 -39.9659352 -32.87700535 0 0 Z " fill="#F47421" transform="translate(199,39)"/>
<path d="M0 0 C3.27905867 3.02458627 5.53769852 6.16875541 7.8125 10 C8.43769531 11.03125 9.06289062 12.0625 9.70703125 13.125 C11 16 11 16 10.8359375 18.234375 C9.50782214 21.03955324 7.20890885 22.84017801 5 25 C-4.06712313 35.97599116 -7.33294015 46.75420216 -6 61 C-3.66508072 71.81226825 1.43104359 80.21777633 9.77734375 87.39453125 C11 89 11 89 10.9375 90.75 C9.5660752 94.04141953 7.84419186 97.10659213 6.0625 100.1875 C5.52206055 101.14946289 5.52206055 101.14946289 4.97070312 102.13085938 C2.25064767 106.87467617 2.25064767 106.87467617 0 108 C-11.17690404 99.80054991 -18.53916721 90.77728837 -24 78 C-24.32613281 77.24332031 -24.65226562 76.48664063 -24.98828125 75.70703125 C-25.6875 73.6875 -25.6875 73.6875 -26 70 C-24.95960323 67.91920647 -23.78404989 66.29886303 -22.26171875 64.54296875 C-19.0108857 60.5674918 -19.56399019 55.21915388 -19.55859375 50.3515625 C-20.03928648 46.70170091 -20.89743907 45.1219806 -23.125 42.25 C-25.95768862 38.55810725 -25.95768862 38.55810725 -26.1640625 35.8359375 C-23.36868219 20.90966152 -11.75999911 8.62721246 0 0 Z " fill="#FEFCFB" transform="translate(88,71)"/>
<path d="M0 0 C0.79019531 -0.00773437 1.58039063 -0.01546875 2.39453125 -0.0234375 C7.82397904 -0.00566517 13.41644855 0.17385129 18.5 2.25 C20.078125 4.4921875 20.078125 4.4921875 20.75 7.125 C22.6131175 12.95773272 25.03126484 14.78286596 30.234375 17.875 C34.05825902 19.48505643 36.2874476 19.25402849 40.375 18.8125 C46.71923327 18.69909099 46.71923327 18.69909099 49.94140625 20.97265625 C52.13571947 23.61356159 53.82124382 26.25383427 55.5 29.25 C56.13679688 30.35859375 56.77359375 31.4671875 57.4296875 32.609375 C62.42175532 41.93066346 65.5 50.63944007 65.5 61.25 C58.57 61.25 51.64 61.25 44.5 61.25 C43.79875 58.960625 43.0975 56.67125 42.375 54.3125 C40.29326615 47.89934979 37.82270077 42.5035794 33.5 37.25 C32.99984375 36.62738281 32.4996875 36.00476563 31.984375 35.36328125 C25.29767852 27.88132232 14.60090894 22.78426811 4.64453125 22.03515625 C-3.44566911 21.79351347 -10.71888499 23.11051175 -18.5 25.25 C-20.17373751 22.46251481 -21.83776267 19.66935573 -23.5 16.875 C-24.21542969 15.68390625 -24.21542969 15.68390625 -24.9453125 14.46875 C-25.39648438 13.70820312 -25.84765625 12.94765625 -26.3125 12.1640625 C-26.94091797 11.1114624 -26.94091797 11.1114624 -27.58203125 10.03759766 C-28.5 8.25 -28.5 8.25 -28.5 6.25 C-27.02484445 5.61559072 -25.54456668 4.99309173 -24.0625 4.375 C-23.23878906 4.02695312 -22.41507812 3.67890625 -21.56640625 3.3203125 C-14.38187483 0.81259071 -7.5866241 -0.07425733 0 0 Z " fill="#FEFCFB" transform="translate(124.5,59.75)"/>
<path d="M0 0 C7.26 0 14.52 0 22 0 C20.5995246 14.00475399 17.17574404 24.57319539 9 36 C8.64808594 36.66257813 8.29617187 37.32515625 7.93359375 38.0078125 C6.9375 39.6875 6.9375 39.6875 4 42 C0.48153327 42.20358424 -2.95994141 42.05392648 -6.48046875 41.91015625 C-11.66944127 42.04261615 -15.13716504 43.57276133 -19 47 C-21.48593159 50.09210703 -23.49663476 53.30231474 -24.62890625 57.12109375 C-26.52166375 59.71487255 -28.67228402 60.04566666 -31.72607422 60.66894531 C-35.51418069 61.22044546 -39.23725231 61.38211233 -43.0625 61.375 C-44.29335327 61.3747583 -44.29335327 61.3747583 -45.54907227 61.37451172 C-54.69606097 61.20622201 -63.89435999 59.42125819 -72 55 C-70.40376856 50.60616294 -68.21975667 46.71004193 -65.875 42.6875 C-65.50246094 42.04232422 -65.12992187 41.39714844 -64.74609375 40.73242188 C-63.83367787 39.15324055 -62.91724491 37.57638136 -62 36 C-61.21238281 36.2165625 -60.42476562 36.433125 -59.61328125 36.65625 C-46.01258846 40.1328768 -34.1058212 40.47070196 -21.49609375 33.64453125 C-12.03400111 27.67268598 -5.96912232 20.55565348 -2 10 C-1.34 6.7 -0.68 3.4 0 0 Z " fill="#FEFDFB" transform="translate(168,129)"/>
<path d="M0 0 C3.99720165 1.7110579 7.0741109 3.9873088 10 7.1875 C11.52910703 11.48811353 11.65723796 15.49322542 11 20 C8.38679161 25.13308791 5.46062759 28.1797908 0 30 C-4.77349304 30.64756688 -8.75129551 30.613521 -12.875 27.9375 C-17.31001348 24.28453066 -18.74690449 20.06092059 -19.4375 14.4375 C-18.75669889 9.08834842 -16.35362284 6.19247726 -12.375 2.6875 C-8.3258265 -0.18954433 -4.90341837 -0.76428062 0 0 Z " fill="#FEFBF9" transform="translate(167,176)"/>
<path d="M0 0 C3.51520834 2.3707219 5.79390381 5.02530762 7.6875 8.8125 C8.33203357 13.84906946 8.46640427 18.39007476 5.625 22.75 C2.77574639 26.12600638 -0.00284204 27.66325788 -4.3125 28.8125 C-9.50931556 29.19028269 -13.19215374 28.3238907 -17.25 25 C-20.84549539 21.69350424 -22.18214542 18.92982493 -22.75 14.0625 C-22.61928146 9.06718435 -20.44638627 5.58878955 -17.3125 1.8125 C-12.32945815 -2.61687054 -5.9741923 -2.14169158 0 0 Z " fill="#FEFCFA" transform="translate(170.3125,45.1875)"/>
<path d="M0 0 C3.35257301 2.23504867 6.07433994 4.20637281 7.8125 7.875 C8.73153513 13.24536179 8.50811394 17.48377211 6.0625 22.375 C2.02243842 26.86395732 -0.87703181 28.68561736 -7 29.1875 C-11.40347578 29.11478205 -13.81841573 27.78466369 -17.1875 24.875 C-21.31202838 20.42485096 -21.91898092 16.4435384 -21.7109375 10.5703125 C-20.86905342 6.23523774 -18.60833864 3.56616435 -15.1875 0.875 C-10.20484604 -2.08283044 -5.31730259 -1.87669503 0 0 Z " fill="#FEFDFB" transform="translate(55.1875,111.125)"/>
</svg>
